<svg width="80" height="80" viewBox="0 0 80 80" fill="none" xmlns="http://www.w3.org/2000/svg">
<g clip-path="url(#clip0)">
<path d="M61.7982 23.1635C59.9374 17.7565 56.1355 13.7783 51.3671 12.2492C44.6981 10.1108 38.9019 13.4566 35.1751 16.0807C33.343 17.3707 30.8961 17.3707 29.064 16.0807C25.3374 13.4566 19.541 10.1108 12.872 12.2492C8.10361 13.7783 4.30166 17.7565 2.44084 23.1635C-0.00576878 30.2735 2.96054 38.4745 7.47109 45.1011C9.16972 47.5968 14.2025 58.0605 18.269 66.7122C20.1159 70.6417 25.8983 69.9716 26.7993 65.7242L30.4767 48.3873C30.928 46.7081 33.3105 46.7081 33.7618 48.3873L37.4392 65.7242C38.3401 69.9716 44.1226 70.6417 45.9695 66.7122C50.036 58.0603 55.0687 47.5967 56.7674 45.1011C61.2785 38.4745 64.2449 30.2735 61.7982 23.1635Z" fill="white"/>
<path opacity="0.4" d="M61.2379 23.1635C59.3771 17.7565 55.5752 13.7783 50.8068 12.2492C44.1378 10.1108 38.3416 13.4566 34.6148 16.0807C32.7827 17.3707 30.3358 17.3707 28.5037 16.0807C24.7771 13.4566 18.9807 10.1108 12.3117 12.2492C7.5433 13.7783 3.74136 17.7565 1.88054 23.1635C-0.566072 30.2735 2.40024 38.4745 6.91079 45.1011C8.60942 47.5968 13.6422 58.0605 17.7087 66.7122C19.5556 70.6417 25.338 69.9716 26.239 65.7242L29.9164 48.3873C30.3677 46.7081 32.7502 46.7081 33.2015 48.3873L36.8789 65.7242C37.7798 69.9716 43.5623 70.6417 45.4092 66.7122C49.4757 58.0603 54.5084 47.5967 56.2071 45.1011C60.7182 38.4745 63.6846 30.2735 61.2379 23.1635Z" fill="#007AFF"/>
<path d="M59.8437 68.7441C70.1129 68.7441 78.4377 60.3526 78.4377 50.0012C78.4377 39.6498 70.1129 31.2584 59.8437 31.2584C49.5746 31.2584 41.2498 39.6498 41.2498 50.0012C41.2498 60.3526 49.5746 68.7441 59.8437 68.7441Z" fill="#EEEFF1"/>
<path d="M67.3109 46.204H63.6093V42.4703C63.6093 41.4159 62.7613 40.561 61.7152 40.561H57.9718C56.9257 40.561 56.0778 41.4159 56.0778 42.4703V46.204H52.3763C51.3302 46.204 50.4822 47.0588 50.4822 48.1132V51.8894C50.4822 52.9438 51.3302 53.7986 52.3763 53.7986H56.0779V57.5323C56.0779 58.5867 56.9259 59.4416 57.972 59.4416H61.7154C62.7615 59.4416 63.6095 58.5867 63.6095 57.5323V53.7986H67.3111C68.3572 53.7986 69.2052 52.9439 69.2052 51.8894V48.1132C69.2049 47.0587 68.3569 46.204 67.3109 46.204Z" fill="#FE565B"/>
<path d="M1.5609 30.2433C2.19512 30.2433 2.77918 29.8441 3.01246 29.2553C3.25246 28.6498 3.08199 27.9361 2.59105 27.5064C2.09293 27.0705 1.35324 26.9989 0.779963 27.3288C0.206371 27.6589 -0.100191 28.3384 0.0294961 28.987C0.173558 29.707 0.825744 30.2433 1.5609 30.2433Z" fill="#05294A"/>
<path d="M64.1836 30.1699C64.3796 27.5019 64.0749 24.9769 63.2759 22.6553C61.2532 16.7776 57.0866 12.4426 51.8446 10.7614C44.5593 8.42528 38.3289 11.9493 34.2758 14.8032C32.9863 15.7111 31.2534 15.7111 29.964 14.8032C25.911 11.9493 19.6802 8.42544 12.3952 10.7614C7.64436 12.2849 3.80976 15.9292 1.59753 21.0227C1.25377 21.8141 1.61674 22.7345 2.40832 23.0784C3.19943 23.4221 4.12008 23.0592 4.46399 22.2676C6.31246 18.0114 9.46799 14.982 13.3496 13.7373C19.1882 11.8649 24.4449 14.7692 27.9535 17.2105C29.1624 19.3905 31.1176 21.0118 33.4983 21.7984C34.5188 22.1354 35.5674 22.3027 36.6118 22.3027C38.1357 22.3027 39.6502 21.9463 41.051 21.2412C41.8218 20.8532 42.1321 19.9136 41.7441 19.143C41.3561 18.372 40.4166 18.0619 39.6459 18.4499C38.0304 19.2628 36.1954 19.3983 34.4786 18.8311C34.1629 18.7267 33.858 18.601 33.5657 18.455C34.4508 18.2656 35.306 17.9002 36.0751 17.3586C39.582 14.8892 44.9332 11.8274 50.8904 13.7374C55.1848 15.1145 58.6221 18.7356 60.321 23.6722C60.9609 25.5317 61.2157 27.5674 61.0809 29.734C60.6715 29.7088 60.259 29.696 59.8435 29.696C48.7292 29.696 39.687 38.805 39.687 50.0013C39.687 55.5151 41.8799 60.5226 45.4332 64.1853C45.137 64.8128 44.844 65.4349 44.556 66.0477C43.8871 67.4707 42.554 67.8512 41.5305 67.7327C40.506 67.6141 39.2947 66.9391 38.9684 65.4002L35.291 48.0631C35.2852 48.0359 35.2787 48.0087 35.2715 47.9819C34.883 46.5365 33.6166 45.5654 32.1199 45.5654C30.6233 45.5654 29.3567 46.5365 28.9684 47.9819C28.9612 48.0087 28.9546 48.0359 28.9488 48.0631L25.2714 65.4002C24.945 66.9391 23.7339 67.6141 22.7092 67.7327C21.6848 67.851 20.3524 67.4708 19.6837 66.0477C13.8565 53.6503 10.1825 46.3071 8.76329 44.2221C6.73356 41.24 5.219 38.2324 4.26211 35.283C3.99585 34.4622 3.11412 34.0127 2.29363 34.2789C1.47284 34.5452 1.0233 35.4266 1.28955 36.2474C2.33801 39.4787 3.98335 42.7535 6.1798 45.9806C7.46905 47.8748 11.2604 55.4736 16.8553 67.3771C17.8811 69.5596 19.981 70.8797 22.3334 70.8797C22.5759 70.8797 22.8214 70.8656 23.0683 70.837C25.7114 70.5312 27.7762 68.6516 28.3284 66.0486L31.9947 48.7633C32.0089 48.7209 32.0328 48.6905 32.1197 48.6905C32.2067 48.6905 32.2305 48.7209 32.2449 48.7634L35.9113 66.0485C36.4634 68.6515 38.5281 70.5311 41.1713 70.8369C43.8143 71.1425 46.2526 69.7845 47.3844 67.3769C47.5469 67.031 47.7111 66.6822 47.8766 66.3311C51.2257 68.8284 55.3664 70.3065 59.8437 70.3065C70.958 70.3065 80.0002 61.1976 80.0002 50.0011C80.0002 40.3053 73.2191 32.175 64.1836 30.1699ZM59.8437 67.1815C50.4526 67.1815 42.8123 59.4744 42.8123 50.0011C42.8123 40.528 50.4526 32.8209 59.8437 32.8209C69.2348 32.8209 76.8751 40.528 76.8751 50.0011C76.8751 59.4744 69.2348 67.1815 59.8437 67.1815Z" fill="#05294A"/>
<path d="M67.3106 44.6415H65.1715V42.4703C65.1715 40.5559 63.6208 38.9985 61.7148 38.9985H57.9716C56.0657 38.9985 54.515 40.5559 54.515 42.4703V44.6415H52.3759C50.4699 44.6415 48.9194 46.1988 48.9194 48.1132V51.8894C48.9194 53.8037 50.4701 55.3612 52.3759 55.3612H54.515V57.5323C54.515 59.4466 56.0657 61.0041 57.9716 61.0041H61.7148C63.6208 61.0041 65.1715 59.4468 65.1715 57.5323V55.3612H67.3106C69.2166 55.3612 70.7672 53.8038 70.7672 51.8894V48.1132C70.7672 46.1988 69.2166 44.6415 67.3106 44.6415ZM67.6422 51.8893C67.6422 52.0805 67.4934 52.236 67.3106 52.236H63.6089C62.746 52.236 62.0464 52.9355 62.0464 53.7985V57.5322C62.0464 57.7234 61.8977 57.8789 61.7148 57.8789H57.9716C57.7888 57.8789 57.6401 57.7234 57.6401 57.5322V53.7985C57.6401 52.9355 56.9405 52.236 56.0775 52.236H52.3759C52.1931 52.236 52.0445 52.0805 52.0445 51.8893V48.1131C52.0445 47.9218 52.1933 47.7664 52.3759 47.7664H56.0775C56.9405 47.7664 57.6401 47.0668 57.6401 46.2038V42.4703C57.6401 42.2791 57.7888 42.1236 57.9716 42.1236H61.7148C61.8977 42.1236 62.0464 42.2791 62.0464 42.4703V46.204C62.0464 47.067 62.746 47.7665 63.6089 47.7665H67.3106C67.4934 47.7665 67.6422 47.922 67.6422 48.1132V51.8893Z" fill="#05294A"/>
</g>
<defs>
<clipPath id="clip0">
<rect width="80" height="80" fill="white"/>
</clipPath>
</defs>
</svg>
