<svg width="64" height="80" viewBox="0 0 64 80" fill="none" xmlns="http://www.w3.org/2000/svg">
<path d="M33.6695 13.796C33.6695 11.5093 35.5057 9.65683 37.7703 9.65683C38.9026 9.65683 39.9266 10.1192 40.6691 10.8689C41.4101 11.6186 41.8695 12.6526 41.8695 13.796V26.1212V49.8501L37.7703 65.3789V77.8405C37.7703 78.3862 37.3321 78.8287 36.7916 78.8287H8.85273C8.31225 78.8287 7.87402 78.3862 7.87402 77.8405V64.2183L9.0713 32.3471V10.2933C9.0713 8.02773 10.8397 6.11889 13.0829 6.07156C14.2499 6.04704 15.3093 6.51531 16.0693 7.28269C16.8103 8.03242 17.2697 9.06798 17.2697 10.2113V5.39509C17.2697 3.12653 19.0422 1.21597 21.2884 1.17161C22.4532 1.14865 23.5088 1.61661 24.2692 2.38446C25.0117 3.13262 25.4696 4.16819 25.4696 5.31152V9.1039C25.4696 6.81723 27.3057 4.96321 29.5704 4.96321C30.7027 4.96321 31.7282 5.42711 32.4692 6.17684C33.2101 6.925 33.6695 7.96057 33.6695 9.1039V13.796Z" fill="#007AFF"/>
<path d="M33.6695 13.796C33.6695 11.5093 35.5057 9.65683 37.7703 9.65683C38.9026 9.65683 39.9266 10.1192 40.6691 10.8689C41.4101 11.6186 41.8695 12.6526 41.8695 13.796V26.1212V49.8501L37.7703 65.3789V77.8405C37.7703 78.3862 37.3321 78.8287 36.7916 78.8287H8.85273C8.31225 78.8287 7.87402 78.3862 7.87402 77.8405V64.2183L9.0713 32.3471V10.2933C9.0713 8.02773 10.8397 6.11889 13.0829 6.07156C14.2499 6.04704 15.3093 6.51531 16.0693 7.28269C16.8103 8.03242 17.2697 9.06798 17.2697 10.2113V5.39509C17.2697 3.12653 19.0422 1.21597 21.2884 1.17161C22.4532 1.14865 23.5088 1.61661 24.2692 2.38446C25.0117 3.13262 25.4696 4.16819 25.4696 5.31152V9.1039C25.4696 6.81723 27.3057 4.96321 29.5704 4.96321C30.7027 4.96321 31.7282 5.42711 32.4692 6.17684C33.2101 6.925 33.6695 7.96057 33.6695 9.1039V13.796Z" fill="white" fill-opacity="0.6"/>
<path d="M19.9082 54.0614V56.1403C19.6607 60.6918 15.9312 64.2499 11.4252 64.2499C11.4004 64.2499 11.3757 64.2499 11.3509 64.2499L7.87355 64.2187V64.164L4.4952 61.8664C2.41002 60.4482 1.16016 58.0771 1.16016 55.5374V43.2965C1.16016 40.3148 2.52294 37.4971 4.85252 35.6649L10.9333 30.8807C12.757 29.4469 15.3944 29.817 16.7603 31.6992C17.2924 32.4317 17.5554 33.2908 17.5554 34.1483C17.5554 35.1776 17.1764 36.2022 16.4308 36.9957L12.3904 41.3013C12.0164 41.6999 12.0408 42.3314 12.4445 42.6993L16.5544 46.4438C18.6892 48.3885 19.9082 51.1562 19.9082 54.0614Z" fill="#007AFF"/>
<path d="M19.9082 54.0614V56.1403C19.6607 60.6918 15.9312 64.2499 11.4252 64.2499C11.4004 64.2499 11.3757 64.2499 11.3509 64.2499L7.87355 64.2187V64.164L4.4952 61.8664C2.41002 60.4482 1.16016 58.0771 1.16016 55.5374V43.2965C1.16016 40.3148 2.52294 37.4971 4.85252 35.6649L10.9333 30.8807C12.757 29.4469 15.3944 29.817 16.7603 31.6992C17.2924 32.4317 17.5554 33.2908 17.5554 34.1483C17.5554 35.1776 17.1764 36.2022 16.4308 36.9957L12.3904 41.3013C12.0164 41.6999 12.0408 42.3314 12.4445 42.6993L16.5544 46.4438C18.6892 48.3885 19.9082 51.1562 19.9082 54.0614Z" fill="white" fill-opacity="0.6"/>
<path d="M43.8932 68.9804C54.3571 68.9804 62.8397 60.4151 62.8397 49.8493C62.8397 39.2835 54.3571 30.7183 43.8932 30.7183C33.4294 30.7183 24.9468 39.2835 24.9468 49.8493C24.9468 60.4151 33.4294 68.9804 43.8932 68.9804Z" fill="#EEEFF1"/>
<path d="M50.4193 48.5407C52.4059 48.5407 54.0164 46.9146 54.0164 44.9086C54.0164 42.9026 52.4059 41.2765 50.4193 41.2765C48.4327 41.2765 46.8223 42.9026 46.8223 44.9086C46.8223 46.9146 48.4327 48.5407 50.4193 48.5407Z" fill="#FE565B"/>
<path d="M39.617 60.2751C40.9387 60.2751 42.0102 59.1932 42.0102 57.8586C42.0102 56.524 40.9387 55.4421 39.617 55.4421C38.2953 55.4421 37.2239 56.524 37.2239 57.8586C37.2239 59.1932 38.2953 60.2751 39.617 60.2751Z" fill="#FE565B"/>
<path d="M35.5921 48.1944C36.9138 48.1944 37.9853 47.1126 37.9853 45.778C37.9853 44.4434 36.9138 43.3615 35.5921 43.3615C34.2704 43.3615 33.199 44.4434 33.199 45.778C33.199 47.1126 34.2704 48.1944 35.5921 48.1944Z" fill="#FE565B"/>
<path d="M24.3102 29.547C24.3102 30.1939 24.8295 30.7184 25.4703 30.7184C26.1112 30.7184 26.6305 30.1939 26.6305 29.547V9.10312C26.6305 7.46636 27.9492 6.13481 29.5703 6.13481C31.1913 6.13481 32.51 7.46636 32.51 9.10312V29.547C32.51 30.1939 33.0293 30.7184 33.6701 30.7184C34.311 30.7184 34.8303 30.1939 34.8303 29.547V13.7961C34.8303 12.1594 36.149 10.8278 37.7701 10.8278C39.3911 10.8278 40.7098 12.1594 40.7098 13.7961V26.121C40.7098 26.768 41.229 27.2925 41.8699 27.2925C42.5108 27.2925 43.0301 26.768 43.0301 26.121V13.7961C43.0301 10.8675 40.6705 8.4849 37.7701 8.4849C36.682 8.4849 35.6701 8.82025 34.8303 9.39395V9.10327C34.8303 6.17464 32.4707 3.79207 29.5703 3.79207C28.4679 3.79207 27.444 4.13694 26.5977 4.72454C26.3075 2.07097 24.0745 0 21.3705 0C18.4702 0 16.1104 2.38258 16.1104 5.31121V5.80868C15.2706 5.23514 14.2588 4.89979 13.1708 4.89979C10.2704 4.89979 7.91064 7.28237 7.91064 10.211V20.029C7.91064 20.676 8.42993 21.2005 9.07079 21.2005C9.71166 21.2005 10.2309 20.676 10.2309 20.029V10.2112C10.2309 8.5744 11.5496 7.24285 13.1708 7.24285C14.7917 7.24285 16.1104 8.5744 16.1104 10.2112V26.3003C16.1104 26.9473 16.6297 27.4718 17.2706 27.4718C17.9114 27.4718 18.4307 26.9473 18.4307 26.3003V5.31121C18.4307 3.67445 19.7494 2.3429 21.3705 2.3429C22.9915 2.3429 24.3102 3.67445 24.3102 5.31121V29.547Z" fill="#05294A"/>
<path d="M17.6443 47.4986C17.1066 47.8504 16.953 48.5757 17.3013 49.1187C18.248 50.5941 18.7483 52.303 18.7483 54.0606V56.1397C18.7483 56.7867 19.2675 57.3112 19.9084 57.3112C20.5493 57.3112 21.0685 56.7867 21.0685 56.1397V54.0606C21.0685 51.8499 20.4393 49.7005 19.2487 47.8449C18.9003 47.3017 18.1823 47.1466 17.6443 47.4986Z" fill="#05294A"/>
<path d="M15.6144 44.0085L13.3688 41.9625L17.2735 37.801C19.0238 35.9356 19.202 33.0777 17.6969 31.0055C16.8489 29.8377 15.5992 29.0846 14.1787 28.8853C12.7623 28.6867 11.3605 29.0643 10.2308 29.9492V25.0214C10.2308 24.3745 9.71153 23.85 9.07067 23.85C8.4298 23.85 7.91052 24.3745 7.91052 25.0214V31.7741L4.14019 34.7401C1.50897 36.81 0 39.9287 0 43.2967V55.5377C0 58.4707 1.43843 61.1999 3.84752 62.8381L6.71355 64.7872V78.8285C6.71355 79.4755 7.23283 80 7.8737 80C8.51457 80 9.03385 79.4755 9.03385 78.8285V64.1637C9.03385 63.774 8.84188 63.4097 8.52168 63.192L5.14348 60.8947C3.37557 59.6925 2.32014 57.6899 2.32014 55.5376V43.2965C2.32014 40.6559 3.50319 38.2109 5.56593 36.5882L11.6468 31.8046C12.2792 31.307 13.0654 31.0945 13.8591 31.2059C14.6533 31.3173 15.3517 31.7382 15.8258 32.391C16.667 33.5494 16.5676 35.1468 15.5892 36.1896L10.8669 41.2224C10.6519 41.4516 10.5376 41.7587 10.5498 42.074C10.562 42.3894 10.6998 42.6864 10.9319 42.8979L14.0599 45.748C14.5356 46.1811 15.2691 46.1433 15.6985 45.663C16.1278 45.1827 16.0902 44.4419 15.6144 44.0085Z" fill="#05294A"/>
<path d="M37.77 71.6793C37.1291 71.6793 36.6099 72.2038 36.6099 72.8507V78.7387C36.6099 79.3857 37.1291 79.9102 37.77 79.9102C38.4109 79.9102 38.9302 79.3857 38.9302 78.7387V72.8507C38.9302 72.2038 38.4107 71.6793 37.77 71.6793Z" fill="#05294A"/>
<path d="M56.9487 34.4097C56.4616 33.9894 55.7292 34.0472 55.3131 34.5392C54.897 35.0311 54.9543 35.7705 55.4415 36.1908C59.4061 39.6118 61.6798 44.5901 61.6798 49.8493C61.6798 59.7523 53.7009 67.8089 43.8935 67.8089C34.086 67.8089 26.1072 59.7521 26.1072 49.8493C26.1072 39.9465 34.086 31.8897 43.8935 31.8897C46.5719 31.8897 49.1466 32.4762 51.5461 33.6328C52.1242 33.9116 52.8169 33.6644 53.093 33.0804C53.369 32.4965 53.1239 31.7973 52.5459 31.5186C49.8316 30.2102 46.9207 29.5468 43.8935 29.5468C32.8066 29.5468 23.7869 38.6545 23.7869 49.8493C23.7869 61.0442 32.8068 70.1518 43.8935 70.1518C54.9802 70.1518 64.0001 61.0442 64.0001 49.8493C64.0001 43.904 61.43 38.2765 56.9487 34.4097Z" fill="#05294A"/>
<path d="M51.5794 40.2501V39.0915C51.5794 38.4445 51.0601 37.92 50.4193 37.92C49.7784 37.92 49.2591 38.4445 49.2591 39.0915V40.2501C48.8026 40.366 48.3722 40.5488 47.9785 40.7874L47.1661 39.9671C46.7128 39.5096 45.9784 39.5096 45.5253 39.9671C45.0722 40.4246 45.0722 41.1664 45.5253 41.6237L46.3379 42.4442C46.1015 42.8417 45.9207 43.2762 45.8059 43.7373H44.6584C44.0176 43.7373 43.4983 44.2618 43.4983 44.9088C43.4983 45.5557 44.0176 46.0802 44.6584 46.0802H45.8059C45.9207 46.5411 46.1017 46.9757 46.3379 47.3733L45.5253 48.1938C45.0722 48.6513 45.0722 49.3931 45.5253 49.8504C45.7519 50.0791 46.0489 50.1936 46.3458 50.1936C46.6426 50.1936 46.9396 50.0792 47.1662 49.8504L47.9786 49.0301C48.3723 49.2688 48.8028 49.4513 49.2593 49.5674V50.726C49.2593 51.373 49.7786 51.8975 50.4194 51.8975C51.0603 51.8975 51.5796 51.373 51.5796 50.726V49.5674C52.0361 49.4515 52.4665 49.2688 52.8602 49.0301L53.6726 49.8504C53.8993 50.0791 54.1962 50.1936 54.4931 50.1936C54.7899 50.1936 55.0869 50.0792 55.3136 49.8504C55.7666 49.3929 55.7666 48.6512 55.3136 48.1938L54.501 47.3733C54.7373 46.9758 54.9183 46.5411 55.0331 46.0802H56.1804C56.8213 46.0802 57.3406 45.5557 57.3406 44.9088C57.3406 44.2618 56.8213 43.7373 56.1804 43.7373H55.0331C54.9183 43.2764 54.7373 42.8417 54.501 42.4442L55.3136 41.6237C55.7666 41.1662 55.7666 40.4245 55.3136 39.9671C54.8603 39.5096 54.1259 39.5096 53.6728 39.9671L52.8604 40.7874C52.4664 40.5486 52.0359 40.366 51.5794 40.2501ZM50.4193 47.3693C49.0755 47.3693 47.9823 46.2655 47.9823 44.9086C47.9823 43.5518 49.0755 42.4479 50.4193 42.4479C51.7632 42.4479 52.8564 43.5518 52.8564 44.9086C52.8564 46.2655 51.7632 47.3693 50.4193 47.3693Z" fill="#05294A"/>
<path d="M43.4501 59.0301C44.0909 59.0301 44.6102 58.5056 44.6102 57.8586C44.6102 57.2117 44.0909 56.6872 43.4501 56.6872H42.975C42.9283 56.5508 42.874 56.4179 42.812 56.2895L43.1478 55.9504C43.6009 55.4929 43.6009 54.7512 43.1478 54.2938C42.6946 53.8363 41.9601 53.8363 41.507 54.2938L41.1712 54.6329C41.0441 54.5703 40.9124 54.5156 40.7774 54.4683V53.9886C40.7774 53.3417 40.2581 52.8172 39.6172 52.8172C38.9764 52.8172 38.4571 53.3417 38.4571 53.9886V54.4683C38.322 54.5155 38.1904 54.5703 38.0633 54.6329L37.7274 54.2938C37.2742 53.8363 36.5397 53.8363 36.0867 54.2938C35.6336 54.7513 35.6336 55.4931 36.0867 55.9504L36.4225 56.2895C36.3605 56.4179 36.3063 56.5508 36.2595 56.6872H35.7844C35.1436 56.6872 34.6243 57.2117 34.6243 57.8586C34.6243 58.5056 35.1436 59.0301 35.7844 59.0301H36.2595C36.3062 59.1664 36.3605 59.2994 36.4225 59.4277L36.0868 59.7667C35.6336 60.2242 35.6336 60.9659 36.0867 61.4234C36.3133 61.6521 36.6101 61.7666 36.9071 61.7666C37.204 61.7666 37.501 61.6523 37.7274 61.4236L38.0633 61.0845C38.1904 61.1473 38.322 61.2019 38.4571 61.2491V61.7288C38.4571 62.3757 38.9764 62.9002 39.6172 62.9002C40.2581 62.9002 40.7774 62.3757 40.7774 61.7288V61.2491C40.9124 61.2019 41.0441 61.1471 41.1712 61.0845L41.507 61.4236C41.7335 61.6523 42.0305 61.7666 42.3273 61.7666C42.6242 61.7666 42.9212 61.6523 43.1478 61.4234C43.6009 60.9659 43.6009 60.2242 43.1476 59.7667L42.812 59.4277C42.874 59.2994 42.9281 59.1664 42.975 59.0301H43.4501ZM40.8502 57.8586C40.8502 58.5453 40.2972 59.1036 39.6172 59.1036C38.9372 59.1036 38.3842 58.5451 38.3842 57.8586C38.3842 57.1722 38.9372 56.6136 39.6172 56.6136C40.2972 56.6136 40.8502 57.1722 40.8502 57.8586Z" fill="#05294A"/>
<path d="M35.5924 50.8196C36.2332 50.8196 36.7525 50.2951 36.7525 49.6482V49.1685C36.8875 49.1213 37.0192 49.0665 37.1463 49.0039L37.4822 49.343C37.7088 49.5716 38.0058 49.6861 38.3026 49.6861C38.5995 49.6861 38.8965 49.5718 39.1231 49.343C39.5762 48.8855 39.5762 48.1437 39.1231 47.6864L38.7872 47.3473C38.8493 47.2189 38.9034 47.086 38.9503 46.9496H39.4253C40.0662 46.9496 40.5855 46.4251 40.5855 45.7782C40.5855 45.1312 40.0662 44.6067 39.4253 44.6067H38.9503C38.9036 44.4703 38.8493 44.3374 38.7872 44.209L39.1229 43.8701C39.5762 43.4126 39.5762 42.6708 39.1231 42.2133C38.67 41.756 37.9354 41.7559 37.4825 42.2133L37.1466 42.5524C37.0195 42.4897 36.8879 42.435 36.7528 42.3878V41.9081C36.7528 41.2612 36.2335 40.7367 35.5927 40.7367C34.9518 40.7367 34.4325 41.2612 34.4325 41.9081V42.3878C34.2975 42.435 34.1658 42.4898 34.0387 42.5524L33.7029 42.2133C33.2499 41.7559 32.5153 41.756 32.0623 42.2133C31.6092 42.6708 31.6092 43.4126 32.0624 43.8701L32.3981 44.209C32.3361 44.3374 32.2819 44.4703 32.235 44.6067H31.76C31.1191 44.6067 30.5999 45.1312 30.5999 45.7782C30.5999 46.4251 31.1191 46.9496 31.76 46.9496H32.235C32.2818 47.086 32.3361 47.2189 32.3981 47.3473L32.0623 47.6864C31.6092 48.1439 31.6092 48.8856 32.0623 49.343C32.2889 49.5716 32.5859 49.6861 32.8827 49.6861C33.1796 49.6861 33.4766 49.5718 33.7032 49.343L34.039 49.0039C34.1662 49.0665 34.2978 49.1212 34.4328 49.1685V49.6482C34.4322 50.2951 34.9515 50.8196 35.5924 50.8196ZM34.3594 45.778C34.3594 45.0914 34.9124 44.533 35.5924 44.533C36.2724 44.533 36.8254 45.0915 36.8254 45.778C36.8254 46.4645 36.2724 47.023 35.5924 47.023C34.9124 47.023 34.3594 46.4645 34.3594 45.778Z" fill="#05294A"/>
<path d="M42.0097 39.4383C42.4551 39.4383 42.8798 39.1779 43.0714 38.7401L43.7911 37.0957C44.0502 36.5039 43.7851 35.8122 43.1991 35.5506C42.6129 35.2894 41.9281 35.5568 41.669 36.1485L40.9492 37.7929C40.6901 38.3847 40.9552 39.0764 41.5412 39.338C41.6939 39.4059 41.853 39.4383 42.0097 39.4383Z" fill="#05294A"/>
<path d="M54.863 52.8215L53.7248 53.8377C53.2446 54.2663 53.1996 55.0065 53.6241 55.4912C53.8533 55.7531 54.1728 55.8867 54.4937 55.8867C54.7669 55.8867 55.041 55.7898 55.2617 55.5929L56.3999 54.5767C56.8801 54.1481 56.9251 53.4079 56.5006 52.9232C56.0762 52.4385 55.343 52.3931 54.863 52.8215Z" fill="#05294A"/>
<path d="M46.51 61.2102L46.2235 62.9541C46.1188 63.5923 46.5462 64.1955 47.1784 64.3014C47.2426 64.3122 47.3065 64.3174 47.3695 64.3174C47.9268 64.3174 48.4184 63.9108 48.5128 63.3374L48.7992 61.5935C48.904 60.9553 48.4766 60.3521 47.8444 60.2462C47.2117 60.1405 46.6149 60.572 46.51 61.2102Z" fill="#05294A"/>
<path d="M29.3863 51.2419C28.8727 51.6285 28.7665 52.3625 29.1495 52.8812L29.8965 53.8932C30.1243 54.2018 30.4736 54.3647 30.8277 54.3647C31.0688 54.3647 31.312 54.2891 31.5202 54.1325C32.0338 53.7459 32.14 53.0119 31.757 52.4932L31.01 51.4812C30.6269 50.9624 29.8999 50.8554 29.3863 51.2419Z" fill="#05294A"/>
<path d="M49.562 57.1639C50.0811 57.1639 50.5539 56.8093 50.6863 56.2778C50.8425 55.6502 50.4654 55.0139 49.844 54.856L48.278 54.4584C47.6572 54.3012 47.0262 54.6816 46.87 55.3089C46.7138 55.9365 47.0909 56.5728 47.7123 56.7307L49.2783 57.1283C49.3733 57.1525 49.4684 57.1639 49.562 57.1639Z" fill="#05294A"/>
</svg>
