<svg width="80" height="80" viewBox="0 0 80 80" fill="none" xmlns="http://www.w3.org/2000/svg">
<g clip-path="url(#clip0)">
<path fill-rule="evenodd" clip-rule="evenodd" d="M47.333 16.5372V5.47328C47.333 3.32078 45.5674 1.5625 43.416 1.5625C41.2601 1.5625 39.499 3.32078 39.499 5.47328V12.6306H27.4638C23.1564 12.6306 19.6296 16.1473 19.6296 20.448C19.6296 24.7486 23.1564 28.2697 27.4638 28.2697C23.1564 28.2697 19.6296 31.7864 19.6296 36.087C19.6296 40.392 23.1564 43.9087 27.4638 43.9087C23.1564 43.9087 19.6296 47.4298 19.6296 51.7305C19.6296 56.0311 23.1564 59.5478 27.4638 59.5478H35.5818C33.4303 59.5478 31.6648 61.3106 31.6648 63.4586V74.5267C31.6648 76.6748 33.4304 78.4375 35.5818 78.4375C37.7377 78.4375 39.4988 76.6747 39.4988 74.5267V67.3694H52.5364C56.8439 67.3694 60.3661 63.8483 60.3661 59.5477C60.3661 55.247 56.8439 51.7303 52.5364 51.7303C56.8439 51.7303 60.3661 48.2092 60.3661 43.9086C60.3661 39.608 56.8439 36.0869 52.5364 36.0869C56.8439 36.0869 60.3661 32.5702 60.3661 28.2695C60.3661 23.9689 56.8439 20.4478 52.5364 20.4478H43.4158C45.5674 20.448 47.333 18.6897 47.333 16.5372Z" fill="#FE565B"/>
<path d="M47.333 5.47328V16.5372C47.333 18.6895 45.5677 20.4477 43.4164 20.4478H52.5364C56.8439 20.4478 60.3661 23.9689 60.3661 28.2695C60.3661 32.5702 56.8439 36.0869 52.5364 36.0869C56.8439 36.0869 60.3661 39.608 60.3661 43.9086C60.3661 48.2092 56.8439 51.7303 52.5364 51.7303L29 51.7304L21 56.5L19.6296 51.7305C19.6296 47.4298 23.1564 43.9087 27.4638 43.9087C23.1564 43.9087 19.6296 40.392 19.6296 36.087C19.6296 31.7864 23.1564 28.2697 27.4638 28.2697C23.1564 28.2697 19.6296 24.7486 19.6296 20.448C19.6296 16.1473 23.1564 12.6306 27.4638 12.6306H39.499V5.47328C39.499 3.32078 41.2601 1.5625 43.416 1.5625C45.5674 1.5625 47.333 3.32078 47.333 5.47328Z" fill="#007AFF"/>
<path d="M47.333 5.47328V16.5372C47.333 18.6895 45.5677 20.4477 43.4164 20.4478H52.5364C56.8439 20.4478 60.3661 23.9689 60.3661 28.2695C60.3661 32.5702 56.8439 36.0869 52.5364 36.0869C56.8439 36.0869 60.3661 39.608 60.3661 43.9086C60.3661 48.2092 56.8439 51.7303 52.5364 51.7303L29 51.7304L21 56.5L19.6296 51.7305C19.6296 47.4298 23.1564 43.9087 27.4638 43.9087C23.1564 43.9087 19.6296 40.392 19.6296 36.087C19.6296 31.7864 23.1564 28.2697 27.4638 28.2697C23.1564 28.2697 19.6296 24.7486 19.6296 20.448C19.6296 16.1473 23.1564 12.6306 27.4638 12.6306H39.499V5.47328C39.499 3.32078 41.2601 1.5625 43.416 1.5625C45.5674 1.5625 47.333 3.32078 47.333 5.47328Z" fill="white" fill-opacity="0.6"/>
<path d="M79.9788 40.9427C79.8374 40.0913 79.031 39.5158 78.1784 39.6567L75.2878 40.1347L75.0207 39.1572C74.8095 38.3844 74.0468 37.8964 73.2551 38.0267L69.4666 38.6513C68.6135 38.7919 68.0362 39.5961 68.1772 40.4475C68.3181 41.2988 69.1231 41.8747 69.977 41.7344L72.3715 41.3397L72.6387 42.318C72.8269 43.0067 73.4533 43.4695 74.1479 43.4695C74.2328 43.4695 74.3189 43.4627 74.4051 43.4483L78.6904 42.7397C79.5431 42.5986 80.12 41.7941 79.9788 40.9427Z" fill="#05294A"/>
<path d="M76.5243 53.5456L73.6402 52.4611L73.8367 51.3455C73.9671 50.6053 73.5513 49.8773 72.8466 49.6125L69.2179 48.2484C68.4085 47.9441 67.5056 48.3523 67.201 49.16C66.8963 49.9675 67.3051 50.8687 68.1141 51.173L70.5279 52.0805L70.3314 53.1959C70.201 53.9359 70.6168 54.6639 71.3213 54.9287L75.4203 56.47C75.602 56.5384 75.7885 56.5709 75.972 56.5709C76.6049 56.5709 77.2009 56.1848 77.4372 55.5587C77.7423 54.7511 77.3335 53.8498 76.5243 53.5456Z" fill="#05294A"/>
<path d="M68.6659 31.1609C69.0753 31.1609 69.4842 31.0015 69.7912 30.6848L71.5458 28.8745L72.1684 29.4186C72.7963 29.9673 73.745 29.9278 74.3252 29.3292L77.4748 26.0783C78.0758 25.4579 78.0591 24.4687 77.4376 23.8689C76.816 23.2687 75.825 23.2854 75.2239 23.9059L73.1101 26.0876L72.4878 25.5439C71.8598 24.9953 70.9112 25.0345 70.3312 25.6329L67.5409 28.5119C66.9397 29.1322 66.9562 30.1214 67.5777 30.7214C67.8816 31.0148 68.2739 31.1609 68.6659 31.1609Z" fill="#05294A"/>
<path d="M5.84771 43.4694C6.54234 43.4694 7.16872 43.0066 7.3569 42.3178L7.62414 41.3392L10.0233 41.7342C10.8772 41.8761 11.6822 41.2984 11.8229 40.447C11.9637 39.5956 11.3862 38.7914 10.5331 38.6511L6.74023 38.0266C5.94837 37.8958 5.18611 38.3844 4.97491 39.157L4.70799 40.1344L1.82189 39.6566C0.968981 39.5153 0.162722 40.0909 0.0213529 40.9423C-0.120173 41.7936 0.456733 42.5983 1.30964 42.7394L5.59049 43.448C5.67659 43.4625 5.7627 43.4694 5.84771 43.4694Z" fill="#05294A"/>
<path d="M10.7772 48.2487L7.15293 49.6128C6.44968 49.8773 6.03419 50.6036 6.16303 51.3426L6.35794 52.4606L3.47545 53.5456C2.66653 53.8501 2.25792 54.7515 2.56305 55.559C2.7996 56.1848 3.39529 56.5706 4.02809 56.5706C4.21173 56.5706 4.3985 56.5381 4.58026 56.4697L8.6748 54.9284C9.37805 54.6637 9.79354 53.9376 9.6647 53.1986L9.46979 52.0807L11.8821 51.1726C12.6911 50.8683 13.0997 49.9667 12.7945 49.1593C12.4893 48.3518 11.5863 47.9443 10.7772 48.2487Z" fill="#05294A"/>
<path d="M9.66446 25.6331C9.08379 25.0342 8.13397 24.9953 7.50634 25.5453L6.88779 26.0872L4.77086 23.9053C4.16937 23.285 3.17822 23.2692 2.55701 23.8697C1.93596 24.47 1.91999 25.4591 2.52132 26.0791L5.67528 29.33C6.25594 29.9286 7.20529 29.9672 7.83276 29.4173L8.45068 28.8759L10.2039 30.6848C10.5111 31.0016 10.9199 31.1609 11.3293 31.1609C11.7211 31.1609 12.1136 31.0148 12.4176 30.7214C13.0392 30.1214 13.0556 29.1322 12.4544 28.5119L9.66446 25.6331Z" fill="#05294A"/>
<path d="M52.5365 26.7072C51.6718 26.7072 50.9709 27.4068 50.9709 28.2697C50.9709 29.1325 51.6718 29.8322 52.5365 29.8322H52.5409C53.4055 29.8322 54.1042 29.1325 54.1042 28.2697C54.1042 27.4068 53.4012 26.7072 52.5365 26.7072Z" fill="#05294A"/>
<path d="M61.9315 28.2697C61.9315 23.0953 57.7168 18.8855 52.5363 18.8855H48.3677C48.7079 18.1734 48.8984 17.3772 48.8984 16.5372V5.47328C48.8983 2.45531 46.4388 0 43.4155 0C40.3923 0 37.9328 2.45531 37.9328 5.47328V11.0683H27.4632C22.2803 11.0683 18.0635 15.2761 18.0635 20.448C18.0635 23.7087 19.7383 26.5867 22.2742 28.2694C19.7385 29.9511 18.0635 32.8277 18.0635 36.0869C18.0635 39.3481 19.7385 42.2262 22.2747 43.9087C19.7385 45.5912 18.0635 48.4692 18.0635 51.7305C18.0635 56.9025 22.2801 61.1102 27.4632 61.1102H30.6294C30.2892 61.8222 30.0986 62.6184 30.0986 63.4584V74.5267C30.0986 77.5447 32.5581 80 35.5814 80C38.6044 80 41.0639 77.5447 41.0639 74.5267V68.9317H52.5361C57.7167 68.9317 61.9313 64.722 61.9313 59.5475C61.9313 56.2883 60.2573 53.4116 57.7226 51.73C60.2571 50.0473 61.9313 47.1694 61.9313 43.9086C61.9313 40.6477 60.2573 37.7697 57.7226 36.0872C60.2573 34.4055 61.9315 31.5289 61.9315 28.2697ZM52.5363 34.5244H27.4634C26.5987 34.5244 25.8978 35.2241 25.8978 36.0869C25.8978 36.9497 26.5987 37.6494 27.4634 37.6494H52.5361C55.9902 37.6494 58.8002 40.4573 58.8002 43.9087C58.8002 47.36 55.9902 50.168 52.5361 50.168H27.4634C26.5987 50.168 25.8978 50.8677 25.8978 51.7305C25.8978 52.5933 26.5987 53.293 27.4634 53.293H52.5361C55.9902 53.293 58.8002 56.0988 58.8002 59.5477C58.8002 62.9991 55.9902 65.8069 52.5361 65.8069H39.4984C38.6337 65.8069 37.9328 66.5066 37.9328 67.3694V74.5269C37.9328 75.8217 36.878 76.8752 35.5814 76.8752C34.2848 76.8752 33.2298 75.8217 33.2298 74.5269V63.4586C33.2298 62.1637 34.2846 61.1103 35.5814 61.1103H52.5361C53.4008 61.1103 54.1017 60.4106 54.1017 59.5478C54.1017 58.685 53.4008 57.9853 52.5361 57.9853H27.4634C24.0068 57.9853 21.1947 55.1795 21.1947 51.7306C21.1947 48.2792 24.0068 45.4714 27.4634 45.4714H52.5361C53.4008 45.4714 54.1017 44.7717 54.1017 43.9089C54.1017 43.0461 53.4008 42.3464 52.5361 42.3464H27.4634C24.0068 42.3464 21.1947 39.5384 21.1947 36.087C21.1947 32.6381 24.0068 29.8323 27.4634 29.8323H45.5049C46.3696 29.8323 47.0705 29.1327 47.0705 28.2698C47.0705 27.407 46.3696 26.7073 45.5049 26.7073H27.4634C24.0068 26.7073 21.1947 23.8994 21.1947 20.4481C21.1947 16.9994 24.0068 14.1934 27.4634 14.1934H39.4985C40.3632 14.1934 41.0641 13.4937 41.0641 12.6309V5.47328C41.0641 4.17844 42.1189 3.125 43.4157 3.125C44.7124 3.125 45.7673 4.17844 45.7673 5.47328V16.5372C45.7673 17.832 44.7124 18.8855 43.4157 18.8855H27.4634C26.5987 18.8855 25.8978 19.5852 25.8978 20.448C25.8978 21.3108 26.5987 22.0105 27.4634 22.0105H52.5361C55.9902 22.0105 58.8002 24.8183 58.8002 28.2697C58.8004 31.7186 55.9904 34.5244 52.5363 34.5244Z" fill="#05294A"/>
</g>
<defs>
<clipPath id="clip0">
<rect width="80" height="80" fill="white"/>
</clipPath>
</defs>
</svg>
