<svg width="56" height="56" viewBox="0 0 56 56" fill="none" xmlns="http://www.w3.org/2000/svg">
<g clip-path="url(#clip0)">
<path d="M42 6.82051H38.7693V1.0769H17.2307V6.8204H14C12.2157 6.8204 10.7693 8.26678 10.7693 10.0511C10.7693 11.8354 12.2157 13.2818 14 13.2818H17.2307V19.0253H38.7692V13.2818H42C43.7843 13.2818 45.2307 11.8355 45.2307 10.0511C45.2307 8.267 43.7843 6.82051 42 6.82051Z" fill="white"/>
<path d="M42 6.82051H38.7693V1.0769H17.2307V6.8204H14C12.2157 6.8204 10.7693 8.26678 10.7693 10.0511C10.7693 11.8354 12.2157 13.2818 14 13.2818H17.2307V19.0253H38.7692V13.2818H42C43.7843 13.2818 45.2307 11.8355 45.2307 10.0511C45.2307 8.267 43.7843 6.82051 42 6.82051Z" fill="#007AFF" fill-opacity="0.4"/>
<path d="M42 24.7693H38.7693V19.0258H17.2307V24.7693H14C12.2157 24.7693 10.7693 26.2156 10.7693 28C10.7693 29.7842 12.2157 31.2307 14 31.2307H17.2307V36.9743H38.7692V31.2307H42C43.7843 31.2307 45.2307 29.7843 45.2307 28C45.2307 26.2156 43.7843 24.7693 42 24.7693Z" fill="#FE565B"/>
<path d="M42 42.7179H38.7693V36.9743H17.2307V42.7179H14C12.2157 42.7179 10.7693 44.1643 10.7693 45.9486C10.7693 47.7329 12.2157 49.1794 14 49.1794H17.2307V54.9229H38.7692V49.1794H42C43.7843 49.1794 45.2307 47.733 45.2307 45.9486C45.2307 44.1644 43.7843 42.7179 42 42.7179Z" fill="#EEEFF1"/>
<path d="M39.8462 14.359H42C44.3753 14.359 46.3077 12.4265 46.3077 10.0512C46.3077 7.67594 44.3753 5.7435 42 5.7435H39.8462V1.07691C39.8462 0.482234 39.3641 0 38.7693 0H17.2307C16.6359 0 16.1538 0.482234 16.1538 1.07691V5.7435H14C11.6247 5.7435 9.69226 7.67594 9.69226 10.0513C9.69226 12.4266 11.6247 14.359 14 14.359H16.1538V23.6924H14C11.6247 23.6924 9.69226 25.6248 9.69226 28.0001C9.69226 30.3754 11.6247 32.3078 14 32.3078H16.1538V41.6411H14C11.6247 41.6411 9.69226 43.5736 9.69226 45.949C9.69226 48.3243 11.6247 50.2566 14 50.2566H16.1538V54.9233C16.1538 55.518 16.6359 56.0002 17.2307 56.0002H38.7692C39.3639 56.0002 39.8461 55.518 39.8461 54.9233V50.2566H42C44.3753 50.2566 46.3077 48.3242 46.3077 45.9489C46.3077 43.5736 44.3753 41.6409 42 41.6409H39.8462V32.3076H42C44.3753 32.3076 46.3077 30.3752 46.3077 27.9999C46.3077 25.6246 44.3753 23.6923 42 23.6923H39.8462V14.359ZM42 43.7948C43.1876 43.7948 44.1538 44.7612 44.1538 45.9488C44.1538 47.1362 43.1876 48.1025 42 48.1025H38.7693C38.1745 48.1025 37.6924 48.5847 37.6924 49.1794V53.8461H18.3077V49.1794C18.3077 48.5847 17.8256 48.1025 17.2308 48.1025H14C12.8124 48.1025 11.8462 47.1362 11.8462 45.9487C11.8462 44.7611 12.8124 43.7948 14 43.7948H17.2307C17.8255 43.7948 18.3076 43.3126 18.3076 42.7179V38.0513H37.6923V42.7179C37.6923 43.3126 38.1744 43.7948 38.7692 43.7948H42ZM42 25.8462C43.1876 25.8462 44.1538 26.8124 44.1538 28C44.1538 29.1876 43.1876 30.1538 42 30.1538H38.7693C38.1745 30.1538 37.6924 30.636 37.6924 31.2307V35.8973H18.3077V31.2307C18.3077 30.636 17.8256 30.1538 17.2308 30.1538H14C12.8124 30.1538 11.8462 29.1876 11.8462 28C11.8462 26.8124 12.8124 25.8462 14 25.8462H17.2307C17.8255 25.8462 18.3076 25.364 18.3076 24.7693V20.1026H37.6923V24.7693C37.6923 25.364 38.1744 25.8462 38.7692 25.8462H42ZM38.7693 12.205C38.1745 12.205 37.6924 12.6873 37.6924 13.282V17.9485H18.3077V13.282C18.3077 12.6873 17.8256 12.205 17.2308 12.205H14C12.8124 12.205 11.8462 11.2388 11.8462 10.0512C11.8462 8.86364 12.8124 7.89742 14 7.89742H17.2307C17.8255 7.89742 18.3076 7.41519 18.3076 6.82052V2.15381H37.6923V5.7435H34.4615C33.8668 5.7435 33.3846 6.22573 33.3846 6.82041C33.3846 7.41508 33.8668 7.89731 34.4615 7.89731H42C43.1876 7.89731 44.1538 8.86364 44.1538 10.0512C44.1538 11.2387 43.1876 12.2049 42 12.2049H38.7693V12.205Z" fill="#05294A"/>
<path d="M24.7693 7.8974H25.8462C26.441 7.8974 26.9231 7.41517 26.9231 6.8205C26.9231 6.22583 26.441 5.74359 25.8462 5.74359H24.7693C22.394 5.74359 20.4615 7.67603 20.4615 10.0513C20.4615 12.4266 22.394 14.3591 24.7693 14.3591H25.8462C26.441 14.3591 26.9231 13.8768 26.9231 13.2822C26.9231 12.6875 26.441 12.2052 25.8462 12.2052H24.7693C23.5817 12.2052 22.6155 11.239 22.6155 10.0514C22.6155 8.86384 23.5816 7.8974 24.7693 7.8974Z" fill="#05294A"/>
<path d="M24.7693 25.8462H25.8462C26.441 25.8462 26.9231 25.364 26.9231 24.7693C26.9231 24.1746 26.441 23.6924 25.8462 23.6924H24.7693C22.394 23.6924 20.4615 25.6248 20.4615 28.0001C20.4615 30.3754 22.394 32.3078 24.7693 32.3078H25.8462C26.441 32.3078 26.9231 31.8256 26.9231 31.2309C26.9231 30.6363 26.441 30.154 25.8462 30.154H24.7693C23.5817 30.154 22.6155 29.1878 22.6155 28.0002C22.6154 26.8124 23.5816 25.8462 24.7693 25.8462Z" fill="#05294A"/>
<path d="M24.7693 43.7949H25.8462C26.441 43.7949 26.9231 43.3127 26.9231 42.718C26.9231 42.1233 26.441 41.6411 25.8462 41.6411H24.7693C22.394 41.6411 20.4615 43.5736 20.4615 45.9488C20.4615 48.3241 22.394 50.2566 24.7693 50.2566H25.8462C26.441 50.2566 26.9231 49.7743 26.9231 49.1797C26.9231 48.585 26.441 48.1028 25.8462 48.1028H24.7693C23.5817 48.1028 22.6155 47.1366 22.6155 45.949C22.6154 44.7611 23.5816 43.7949 24.7693 43.7949Z" fill="#05294A"/>
<path d="M54.9231 26.9231H49.5385C48.9437 26.9231 48.4615 27.4053 48.4615 28C48.4615 28.5947 48.9437 29.0769 49.5385 29.0769H54.9231C55.5179 29.0769 56 28.5947 56 28C56 27.4053 55.5179 26.9231 54.9231 26.9231Z" fill="#05294A"/>
<path d="M49.5384 22.6154C49.814 22.6154 50.0897 22.5102 50.2999 22.2999L53.4948 19.105C53.9154 18.6844 53.9154 18.0026 53.4948 17.5819C53.0743 17.1615 52.3924 17.1615 51.9719 17.5819L48.777 20.7769C48.3564 21.1974 48.3564 21.8794 48.777 22.2999C48.9873 22.5102 49.2628 22.6154 49.5384 22.6154Z" fill="#05294A"/>
<path d="M50.2999 33.7001C49.8794 33.2797 49.1974 33.2796 48.777 33.7001C48.3565 34.1206 48.3563 34.8026 48.777 35.2231L51.972 38.4181C52.1823 38.6283 52.4579 38.7335 52.7334 38.7335C53.009 38.7335 53.2847 38.6283 53.4949 38.4181C53.9154 37.9975 53.9155 37.3156 53.4949 36.895L50.2999 33.7001Z" fill="#05294A"/>
<path d="M6.46155 26.9231H1.07691C0.482125 26.9231 0 27.4053 0 28C0 28.5947 0.482125 29.0769 1.07691 29.0769H6.46155C7.05633 29.0769 7.53845 28.5947 7.53845 28C7.53845 27.4053 7.05633 26.9231 6.46155 26.9231Z" fill="#05294A"/>
<path d="M4.02833 17.582C3.60778 17.1617 2.92583 17.1617 2.50539 17.582C2.08485 18.0026 2.08474 18.6844 2.50539 19.1051L5.70035 22.3C5.91056 22.5101 6.18608 22.6154 6.46171 22.6154C6.73733 22.6154 7.01296 22.5101 7.22317 22.2999C7.64372 21.8794 7.64383 21.1975 7.22317 20.7769L4.02833 17.582Z" fill="#05294A"/>
<path d="M5.70006 33.7001L2.50511 36.8951C2.08456 37.3156 2.08456 37.9976 2.50511 38.4181C2.71544 38.6283 2.99106 38.7335 3.26658 38.7335C3.54209 38.7335 3.81783 38.6283 4.02804 38.4181L7.223 35.2232C7.64355 34.8026 7.64355 34.1208 7.223 33.7001C6.80245 33.2796 6.12061 33.2796 5.70006 33.7001Z" fill="#05294A"/>
<path d="M31.2307 5.74329C30.9474 5.74329 30.6696 5.85846 30.4694 6.05883C30.2691 6.2591 30.1538 6.53702 30.1538 6.82019C30.1538 7.10446 30.2691 7.38129 30.4694 7.58145C30.6696 7.78281 30.9475 7.8971 31.2307 7.8971C31.5139 7.8971 31.7918 7.78281 31.9921 7.58145C32.1923 7.38129 32.3076 7.10435 32.3076 6.82019C32.3076 6.53691 32.1923 6.2591 31.9921 6.05883C31.7918 5.85846 31.514 5.74329 31.2307 5.74329Z" fill="#05294A"/>
</g>
<defs>
<clipPath id="clip0">
<rect width="56" height="56" fill="white"/>
</clipPath>
</defs>
</svg>
