<svg width="56" height="56" viewBox="0 0 56 56" fill="none" xmlns="http://www.w3.org/2000/svg">
<g clip-path="url(#clip0)">
<path d="M0.98936 17.1404C1.02633 16.369 1.14566 15.6138 1.33695 14.882C1.35238 14.8228 1.36834 14.7638 1.38475 14.705C1.81328 13.1676 2.55922 11.7371 3.52522 10.4819C5.87252 7.43187 9.51897 5.41675 13.067 5.41675C17.1638 5.41675 20.6222 7.8837 22.2213 9.24783C22.765 9.71169 23.565 9.70326 24.1007 9.23022C25.6496 7.86248 29.0152 5.41675 33.2776 5.41675C39.0325 5.41675 45.0477 10.7195 45.3553 17.1404C45.4513 19.1494 45.1721 20.8917 44.654 22.4719C44.2369 23.7447 43.6653 24.9127 43.0072 26.0282C40.82 29.7366 30.3477 37.7268 25.7749 41.5976C24.2616 42.8786 22.0447 42.8782 20.5319 41.5966C15.9718 37.7331 5.53772 29.7664 3.33742 26.0282C2.35031 24.3512 1.55964 22.5667 1.19313 20.4873C1.0108 19.4525 0.93161 18.3459 0.98936 17.1404Z" fill="white"/>
<path d="M0.98936 17.1404C1.02633 16.369 1.14566 15.6138 1.33695 14.882C1.35238 14.8228 1.36834 14.7638 1.38475 14.705C1.81328 13.1676 2.55922 11.7371 3.52522 10.4819C5.87252 7.43187 9.51897 5.41675 13.067 5.41675C17.1638 5.41675 20.6222 7.8837 22.2213 9.24783C22.765 9.71169 23.565 9.70326 24.1007 9.23022C25.6496 7.86248 29.0152 5.41675 33.2776 5.41675C39.0325 5.41675 45.0477 10.7195 45.3553 17.1404C45.4513 19.1494 45.1721 20.8917 44.654 22.4719C44.2369 23.7447 43.6653 24.9127 43.0072 26.0282C40.82 29.7366 30.3477 37.7268 25.7749 41.5976C24.2616 42.8786 22.0447 42.8782 20.5319 41.5966C15.9718 37.7331 5.53772 29.7664 3.33742 26.0282C2.35031 24.3512 1.55964 22.5667 1.19313 20.4873C1.0108 19.4525 0.93161 18.3459 0.98936 17.1404Z" fill="#007AFF" fill-opacity="0.4"/>
<path d="M41.8611 50.5832C49.0658 50.5832 54.9064 44.6952 54.9064 37.4321C54.9064 30.1689 49.0658 24.2809 41.8611 24.2809C34.6564 24.2809 28.8159 30.1689 28.8159 37.4321C28.8159 44.6952 34.6564 50.5832 41.8611 50.5832Z" fill="#EEEFF1"/>
<path d="M47.1002 34.7678H44.5032V32.148C44.5032 31.4082 43.9082 30.8084 43.1744 30.8084H40.5482C39.8143 30.8084 39.2194 31.4081 39.2194 32.148V34.7678H36.6224C35.8885 34.7678 35.2936 35.3676 35.2936 36.1074V38.757C35.2936 39.4968 35.8885 40.0966 36.6224 40.0966H39.2194V42.7164C39.2194 43.4562 39.8143 44.056 40.5482 44.056H43.1744C43.9083 44.056 44.5032 43.4563 44.5032 42.7164V40.0966H47.1002C47.8341 40.0966 48.429 39.4968 48.429 38.757V36.1074C48.429 35.3675 47.834 34.7678 47.1002 34.7678Z" fill="#FE565B"/>
<path d="M0.339193 15.2557C0.5096 15.6713 0.935178 15.9466 1.38438 15.9309C1.83719 15.9152 2.23597 15.6153 2.38418 15.1891C2.53183 14.7647 2.38812 14.2769 2.0426 13.9926C1.68024 13.6944 1.15108 13.6639 0.756678 13.9183C0.318631 14.2006 0.1386 14.7742 0.339193 15.2557Z" fill="#05294A"/>
<path d="M45.3977 23.6383C45.5049 23.362 45.6036 23.0864 45.6933 22.8126C46.2971 20.9707 46.5437 19.0982 46.4476 17.0881C46.2881 13.7584 44.7471 10.5573 42.1085 8.07422C39.5753 5.69029 36.3565 4.323 33.2775 4.323C28.6903 4.323 25.1054 6.88379 23.3766 8.41033C23.248 8.52397 23.0605 8.52638 22.931 8.41569C21.1392 6.88718 17.475 4.323 13.0668 4.323C9.42419 4.323 5.54653 6.28835 2.94702 9.45202C2.56355 9.91872 2.63092 10.608 3.09763 10.9915C3.56444 11.375 4.25361 11.3076 4.63708 10.8409C6.83179 8.16993 10.062 6.5106 13.0668 6.5106C16.7735 6.5106 19.9486 8.74699 21.5112 10.08C22.4621 10.8912 23.8865 10.8784 24.8245 10.0502C26.3215 8.72829 29.4105 6.5106 33.2774 6.5106C38.2213 6.5106 43.9696 11.079 44.2625 17.1928C44.3456 18.9318 44.1335 20.5472 43.6143 22.1314C43.4914 22.5066 43.3529 22.8765 43.1953 23.2503C42.7559 23.2086 42.3109 23.1873 41.8609 23.1873C34.0647 23.1873 27.7219 29.5775 27.7219 37.4322C27.7219 37.8036 27.7362 38.1718 27.764 38.5362C26.6821 39.4185 25.8028 40.1409 25.0681 40.7629C23.9585 41.7022 22.348 41.7019 21.2386 40.7622C20.2462 39.9213 18.9558 38.8699 17.5897 37.7567C12.6587 33.7386 5.90549 28.2356 4.27986 25.4737C3.21105 23.6578 2.57241 22.0132 2.2701 20.2977C2.23521 20.0994 2.20425 19.8979 2.17844 19.6985C2.10067 19.0994 1.55205 18.6768 0.953004 18.7546C0.353959 18.8323 -0.0686654 19.3811 0.00910011 19.98C0.0391782 20.2121 0.0751625 20.4467 0.11585 20.6774C0.464974 22.6583 1.18904 24.5349 2.39467 26.5832C4.21937 29.6834 10.8666 35.1 16.2078 39.4523C17.5657 40.5588 18.8481 41.6038 19.8246 42.4311C20.7891 43.2483 21.9712 43.6567 23.1538 43.6567C24.3354 43.6567 25.5173 43.2485 26.4814 42.4325C26.9726 42.0167 27.5322 41.5531 28.1772 41.0239C29.7612 47.1455 35.2957 51.677 41.8609 51.677C49.6572 51.677 55.9998 45.2868 55.9998 37.4322C56 30.8073 51.4881 25.2242 45.3977 23.6383ZM41.8611 49.4894C35.271 49.4894 29.9095 44.0805 29.9095 37.4321C29.9095 30.7836 35.271 25.3747 41.8611 25.3747C48.4512 25.3747 53.8126 30.7836 53.8126 37.4321C53.8125 44.0805 48.4512 49.4894 41.8611 49.4894Z" fill="#05294A"/>
<path d="M47.1 33.674H45.5968V32.148C45.5968 30.8062 44.51 29.7147 43.1743 29.7147H40.548C39.2123 29.7147 38.1255 30.8062 38.1255 32.148V33.674H36.6223C35.2865 33.674 34.1997 34.7656 34.1997 36.1074V38.757C34.1997 40.0988 35.2865 41.1904 36.6223 41.1904H38.1255V42.7165C38.1255 44.0582 39.2123 45.1499 40.548 45.1499H43.1743C44.51 45.1499 45.5968 44.0583 45.5968 42.7165V41.1904H47.1C48.4358 41.1904 49.5226 40.0988 49.5226 38.757V36.1074C49.5227 34.7656 48.4358 33.674 47.1 33.674ZM47.3352 38.7569C47.3352 38.8924 47.2298 39.0028 47.1002 39.0028H44.5032C43.8992 39.0028 43.4094 39.4925 43.4094 40.0965V42.7164C43.4094 42.8519 43.304 42.9623 43.1744 42.9623H40.5482C40.4184 42.9623 40.3131 42.852 40.3131 42.7164V40.0965C40.3131 39.4925 39.8233 39.0028 39.2194 39.0028H36.6224C36.4926 39.0028 36.3873 38.8925 36.3873 38.7569V36.1073C36.3873 35.9717 36.4928 35.8614 36.6224 35.8614H39.2194C39.8233 35.8614 40.3131 35.3718 40.3131 34.7677V32.1479C40.3131 32.0123 40.4186 31.9021 40.5482 31.9021H43.1744C43.304 31.9021 43.4094 32.0123 43.4094 32.1479V34.7677C43.4094 35.3718 43.8992 35.8614 44.5032 35.8614H47.1002C47.2299 35.8614 47.3352 35.9717 47.3352 36.1073V38.7569Z" fill="#05294A"/>
</g>
<defs>
<clipPath id="clip0">
<rect width="56" height="56" fill="white"/>
</clipPath>
</defs>
</svg>
