<svg width="56" height="56" viewBox="0 0 56 56" fill="none" xmlns="http://www.w3.org/2000/svg">
<g clip-path="url(#clip0)">
<path d="M16.0451 3.02705C16.0451 5.25293 17.8552 7.0631 20.0811 7.0631H21.0901C22.2046 7.0631 23.1082 7.96667 23.1082 9.08112C23.1082 10.1956 22.2046 11.0991 21.0901 11.0991H20.0811C15.6301 11.0991 12.009 7.47805 12.009 3.02705C12.009 1.9126 12.9126 1.00903 14.0271 1.00903C15.1415 1.00903 16.0451 1.9126 16.0451 3.02705Z" fill="white"/>
<path d="M16.0451 3.02705C16.0451 5.25293 17.8552 7.0631 20.0811 7.0631H21.0901C22.2046 7.0631 23.1082 7.96667 23.1082 9.08112C23.1082 10.1956 22.2046 11.0991 21.0901 11.0991H20.0811C15.6301 11.0991 12.009 7.47805 12.009 3.02705C12.009 1.9126 12.9126 1.00903 14.0271 1.00903C15.1415 1.00903 16.0451 1.9126 16.0451 3.02705Z" fill="#007AFF" fill-opacity="0.4"/>
<path d="M21.0901 12.1081H20.0811C15.0734 12.1081 11 8.03424 11 3.02703C11 1.35787 12.3579 0 14.027 0C15.6962 0 17.0541 1.35787 17.0541 3.02703C17.0541 4.69618 18.4119 6.05406 20.0811 6.05406H21.0901C22.7592 6.05406 24.1171 7.41193 24.1171 9.08109C24.1171 10.7502 22.7592 12.1081 21.0901 12.1081ZM14.027 2.01802C13.4703 2.01802 13.018 2.47081 13.018 3.02703C13.018 6.92155 16.1868 10.0901 20.0811 10.0901H21.0901C21.6468 10.0901 22.0991 9.6373 22.0991 9.08109C22.0991 8.52487 21.6468 8.07208 21.0901 8.07208H20.0811C17.2995 8.07208 15.036 5.80862 15.036 3.02703C15.036 2.47081 14.5837 2.01802 14.027 2.01802Z" fill="#05294A"/>
<path d="M35.2161 11.0991H36.2252C40.6762 11.0991 44.2972 7.47805 44.2972 3.02705C44.2972 1.9126 43.3937 1.00903 42.2792 1.00903C41.1648 1.00903 40.2612 1.9126 40.2612 3.02705C40.2612 5.25293 38.451 7.0631 36.2252 7.0631H35.2161C34.1017 7.0631 33.1981 7.96667 33.1981 9.08112C33.1981 10.1956 34.1017 11.0991 35.2161 11.0991Z" fill="#FE565B"/>
<path d="M36.2251 12.1081H35.2161C33.547 12.1081 32.1891 10.7502 32.1891 9.08109C32.1891 7.41193 33.547 6.05406 35.2161 6.05406H36.2251C37.8943 6.05406 39.2521 4.69618 39.2521 3.02703C39.2521 1.35787 40.61 0 42.2792 0C43.9483 0 45.3062 1.35787 45.3062 3.02703C45.3062 8.03424 41.2328 12.1081 36.2251 12.1081ZM35.2161 8.07208C34.6594 8.07208 34.2071 8.52487 34.2071 9.08109C34.2071 9.6373 34.6594 10.0901 35.2161 10.0901H36.2251C40.1194 10.0901 43.2882 6.92155 43.2882 3.02703C43.2882 2.47081 42.8359 2.01802 42.2792 2.01802C41.7225 2.01802 41.2702 2.47081 41.2702 3.02703C41.2702 5.80862 39.0067 8.07208 36.2251 8.07208H35.2161Z" fill="#05294A"/>
<path d="M31.0483 39.3514V36.9643C31.9307 36.3019 32.496 35.3522 32.496 34.2844C32.496 33.6152 32.2631 32.9964 31.883 32.4586C32.5815 30.9605 33.6924 29.6737 35.1746 28.8501C39.6211 26.3796 42.6297 23.0834 42.6297 17.6357C42.6297 8.14576 33.4989 4.86748 23.5435 6.42439C17.8477 7.31509 13.5369 12.2386 13.6802 18.0018C13.8089 23.1835 16.6601 26.2408 20.8576 28.6942C22.415 29.6044 23.6495 30.9232 24.4128 32.4732C24.0392 33.0078 23.8097 33.6212 23.8097 34.2844C23.8097 35.3522 24.375 36.3019 25.2573 36.9643V39.3514" fill="#EEEFF1"/>
<path d="M31.0483 40.3604C30.4906 40.3604 30.0393 39.9086 30.0393 39.3513V36.9643C30.0393 36.647 30.1891 36.348 30.4424 36.1573C31.1164 35.6518 31.487 34.9866 31.487 34.2841C31.487 33.8603 31.3432 33.4421 31.0594 33.0405C30.8505 32.7449 30.816 32.3597 30.9688 32.0315C31.7917 30.2667 33.0774 28.8617 34.6845 27.968C39.4823 25.3032 41.6214 22.1165 41.6214 17.6354C41.6214 14.4876 40.5474 11.9731 38.43 10.161C35.2629 7.45126 29.8937 6.45108 23.6997 7.42124C18.4339 8.2451 14.5606 12.7831 14.6895 17.977C14.7949 22.2042 16.7912 25.1485 21.3673 27.8232C23.0958 28.8337 24.4625 30.2877 25.3186 32.0282C25.4813 32.3584 25.4506 32.7499 25.2399 33.0516C24.9612 33.4517 24.8192 33.8664 24.8192 34.2844C24.8192 34.9864 25.1897 35.6516 25.8637 36.1581C26.118 36.3488 26.2668 36.6472 26.2668 36.9645V39.3513C26.2668 39.9086 25.8156 40.3604 25.2578 40.3604C24.7001 40.3604 24.2488 39.9086 24.2488 39.3513V37.4352C23.3226 36.5799 22.8014 35.4556 22.8014 34.2841C22.8014 33.658 22.957 33.0327 23.2547 32.4469C22.5698 31.2709 21.5747 30.2816 20.3488 29.5652C16.8576 27.5245 12.8304 24.3688 12.6717 18.0272C12.5181 11.8238 17.1255 6.40744 23.3884 5.42794C30.1657 4.36672 36.1271 5.53439 39.7424 8.62802C42.2914 10.8095 43.6395 13.9243 43.6395 17.6357C43.6395 22.8664 41.1051 26.71 35.665 29.732C34.5753 30.3379 33.6745 31.2598 33.036 32.4157C33.3445 33.0095 33.505 33.6454 33.505 34.2844C33.505 35.4568 32.9828 36.5811 32.0575 37.436V39.3513C32.0573 39.9086 31.606 40.3604 31.0483 40.3604Z" fill="#05294A"/>
<path d="M30.0747 28.7373C30.4344 27.9656 31.0068 27.3027 31.7703 26.8784C34.0608 25.6058 35.6109 23.9077 35.6109 21.1014C35.6109 16.2127 30.9071 14.5239 25.7786 15.3258C22.8444 15.7846 20.6238 18.321 20.6975 21.2898C20.7638 23.9591 22.2327 25.5342 24.395 26.798C25.1974 27.2669 25.8333 27.9462 26.2266 28.7448" fill="white"/>
<path d="M30.0747 28.7373C30.4344 27.9656 31.0068 27.3027 31.7703 26.8784C34.0608 25.6058 35.6109 23.9077 35.6109 21.1014C35.6109 16.2127 30.9071 14.5239 25.7786 15.3258C22.8444 15.7846 20.6238 18.321 20.6975 21.2898C20.7638 23.9591 22.2327 25.5342 24.395 26.798C25.1974 27.2669 25.8333 27.9462 26.2266 28.7448" fill="#007AFF" fill-opacity="0.4"/>
<path d="M26.2276 29.7539C25.8551 29.7544 25.4966 29.5471 25.321 29.1909C25.0125 28.5643 24.5161 28.0381 23.8855 27.6696C22.1265 26.6414 19.7765 24.8633 19.6887 21.3156C19.603 17.8756 22.154 14.8723 25.6225 14.3294C29.2574 13.7609 32.4706 14.4028 34.4415 16.0894C35.8662 17.3093 36.6202 19.0425 36.6202 21.1019C36.6202 24.8991 34.1322 26.7209 32.26 27.7609C31.7151 28.0638 31.2757 28.5492 30.9889 29.1639C30.7543 29.6674 30.1534 29.8902 29.6489 29.6523C29.1434 29.4172 28.9247 28.8168 29.1601 28.3118C29.6272 27.3081 30.3603 26.5082 31.2805 25.9971C33.6088 24.7028 34.6022 23.239 34.6022 21.1019C34.6022 19.6298 34.1065 18.4591 33.129 17.6226C31.6067 16.3205 28.9895 15.846 25.934 16.323C23.4637 16.7097 21.6457 18.8347 21.7068 21.2656C21.756 23.2786 22.6822 24.6292 24.9043 25.9278C25.8778 26.4963 26.6484 27.3167 27.1322 28.2994C27.3777 28.7994 27.1726 29.4046 26.6721 29.6503C26.5291 29.7209 26.3775 29.7539 26.2276 29.7539Z" fill="#05294A"/>
<path d="M32.6216 50.4865C32.6216 47.9988 28.1171 42.3784 28.1171 42.3784C28.1171 42.3784 23.6127 47.9988 23.6127 50.4865C23.6127 52.9742 25.6294 54.991 28.1171 54.991C30.6049 54.991 32.6216 52.9742 32.6216 50.4865Z" fill="white"/>
<path d="M32.6216 50.4865C32.6216 47.9988 28.1171 42.3784 28.1171 42.3784C28.1171 42.3784 23.6127 47.9988 23.6127 50.4865C23.6127 52.9742 25.6294 54.991 28.1171 54.991C30.6049 54.991 32.6216 52.9742 32.6216 50.4865Z" fill="#007AFF" fill-opacity="0.4"/>
<path d="M28.1166 56C25.077 56 22.6036 53.5267 22.6036 50.4865C22.6036 47.7816 26.54 42.7323 27.3293 41.7472C27.7118 41.2692 28.5217 41.2692 28.9039 41.7472C29.6932 42.732 33.6306 47.7816 33.6306 50.4865C33.6309 53.5267 31.1575 56 28.1166 56ZM28.1166 44.0319C26.5284 46.168 24.6217 49.164 24.6217 50.4865C24.6217 52.414 26.1894 53.982 28.1166 53.982C30.0438 53.982 31.6126 52.4137 31.6126 50.4865C31.6128 49.1645 29.7051 46.168 28.1166 44.0319Z" fill="#05294A"/>
</g>
<defs>
<clipPath id="clip0">
<rect width="56" height="56" fill="white"/>
</clipPath>
</defs>
</svg>
