<svg width="56" height="56" viewBox="0 0 56 56" fill="none" xmlns="http://www.w3.org/2000/svg">
<g clip-path="url(#clip0)">
<path d="M43.2367 53.8125C49.5607 53.8125 54.6874 48.6448 54.6874 42.2701C54.6874 35.8955 49.5607 30.7278 43.2367 30.7278C36.9127 30.7278 31.786 35.8955 31.786 42.2701C31.786 48.6448 36.9127 53.8125 43.2367 53.8125Z" fill="#EEEFF1"/>
<path d="M47.8353 39.9317H45.5557V37.6325C45.5557 36.9831 45.0334 36.4568 44.3893 36.4568H42.0841C41.4399 36.4568 40.9178 36.9832 40.9178 37.6325V39.9317H38.6382C37.994 39.9317 37.4718 40.4582 37.4718 41.1075V43.4329C37.4718 44.0823 37.9941 44.6087 38.6382 44.6087H40.9178V46.908C40.9178 47.5574 41.44 48.0838 42.0841 48.0838H44.3893C45.0336 48.0838 45.5557 47.5574 45.5557 46.908V44.6086H47.8353C48.4795 44.6086 49.0017 44.0822 49.0017 43.4328V41.1075C49.0018 40.4582 48.4795 39.9317 47.8353 39.9317Z" fill="#FE565B"/>
<path d="M30.7625 25.2351L29.536 28.3854L34.0734 28.6653L41.9854 20.7468C42.2162 21.0743 42.4781 21.3865 42.7709 21.6795C45.5419 24.4529 50.0346 24.4529 52.8055 21.6795C55.5765 18.9062 55.5765 14.4098 52.8055 11.6365C51.0297 9.85917 48.5468 9.22097 46.263 9.72169C46.7633 7.43608 46.1255 4.95108 44.3497 3.17373C41.5787 0.400422 37.086 0.400422 34.3151 3.17373C31.5441 5.94705 31.5441 10.4435 34.3151 13.2168C34.6079 13.5098 34.92 13.7718 35.2471 14.003L27.0326 22.2242L27.5613 24.3266L30.7625 25.2351Z" fill="#EEEFF1"/>
<path d="M28.5596 34.131L29.5316 33.2107L24.9942 32.9309L26.2207 29.7805L23.0197 28.8721L22.4909 26.7697L14.0145 35.2531C13.7836 34.9256 13.5218 34.6134 13.229 34.3204C10.4579 31.547 5.96526 31.547 3.19435 34.3204C0.423335 37.0937 0.423335 41.5901 3.19435 44.3634C4.97016 46.1407 7.45309 46.7789 9.73684 46.2782C9.23655 48.5638 9.87432 51.0488 11.6501 52.8262C14.4211 55.5995 18.9138 55.5995 21.6847 52.8262C24.4558 50.0529 24.4558 45.5564 21.6847 42.7831C21.3919 42.4901 21.0799 42.2281 20.7528 41.9969L20.7324 41.9582L21.5672 41.1235" fill="white"/>
<path d="M28.5596 34.131L29.5316 33.2107L24.9942 32.9309L26.2207 29.7805L23.0197 28.8721L22.4909 26.7697L14.0145 35.2531C13.7836 34.9256 13.5218 34.6134 13.229 34.3204C10.4579 31.547 5.96526 31.547 3.19435 34.3204C0.423335 37.0937 0.423335 41.5901 3.19435 44.3634C4.97016 46.1407 7.45309 46.7789 9.73684 46.2782C9.23655 48.5638 9.87432 51.0488 11.6501 52.8262C14.4211 55.5995 18.9138 55.5995 21.6847 52.8262C24.4558 50.0529 24.4558 45.5564 21.6847 42.7831C21.3919 42.4901 21.0799 42.2281 20.7528 41.9969L20.7324 41.9582L21.5672 41.1235" fill="#007AFF" fill-opacity="0.4"/>
<path d="M43.2368 29.634C36.3199 29.634 30.6925 35.3026 30.6925 42.2701C30.6925 49.2376 36.3199 54.9062 43.2368 54.9062C50.1538 54.9062 55.7813 49.2376 55.7813 42.2701C55.7813 35.3026 50.1538 29.634 43.2368 29.634ZM43.2368 52.7187C37.526 52.7187 32.88 48.0316 32.88 42.2701C32.88 36.5087 37.5261 31.8215 43.2368 31.8215C48.9476 31.8215 53.5938 36.5087 53.5938 42.2701C53.5938 48.0316 48.9477 52.7187 43.2368 52.7187Z" fill="#05294A"/>
<path d="M47.8354 38.838H46.6496V37.6324C46.6496 36.3811 45.6357 35.3629 44.3893 35.3629H42.0841C40.8379 35.3629 39.824 36.381 39.824 37.6324V38.838H38.6382C37.392 38.838 36.3781 39.8561 36.3781 41.1075V43.4329C36.3781 44.6843 37.392 45.7025 38.6382 45.7025H39.824V46.908C39.824 48.1593 40.8379 49.1775 42.0841 49.1775H44.3893C45.6357 49.1775 46.6496 48.1595 46.6496 46.908V45.7024H47.8354C49.0816 45.7024 50.0955 44.6843 50.0955 43.4328V41.1075C50.0955 39.856 49.0816 38.838 47.8354 38.838ZM47.908 43.4329C47.908 43.4781 47.8754 43.515 47.8354 43.515H45.5558C44.9517 43.515 44.4621 44.0046 44.4621 44.6087V46.908C44.4621 46.9532 44.4295 46.99 44.3893 46.99H42.0841C42.0441 46.99 42.0115 46.9533 42.0115 46.908V44.6086C42.0115 44.0045 41.5218 43.5149 40.9178 43.5149H38.6382C38.5981 43.5149 38.5656 43.4781 38.5656 43.4328V41.1075C38.5656 41.0622 38.5981 41.0255 38.6382 41.0255H40.9178C41.5218 41.0255 42.0115 40.5358 42.0115 39.9317V37.6324C42.0115 37.5873 42.0441 37.5504 42.0841 37.5504H44.3893C44.4294 37.5504 44.4621 37.5872 44.4621 37.6324V39.9317C44.4621 40.5358 44.9517 41.0255 45.5558 41.0255H47.8354C47.8754 41.0255 47.908 41.0622 47.908 41.1075V43.4329Z" fill="#05294A"/>
<path d="M33.6286 14.0756L26.2591 21.4512C25.9873 21.7233 25.8784 22.1181 25.9721 22.491L26.5009 24.5934C26.5963 24.9726 26.8868 25.2721 27.2631 25.3788L29.3072 25.959L28.5169 27.9886C28.3902 28.3141 28.4265 28.6804 28.6146 28.9747C28.8028 29.269 29.1201 29.4557 29.4687 29.4771L34.0061 29.757C34.0287 29.7584 34.0511 29.7591 34.0735 29.7591C34.3628 29.7591 34.6414 29.6443 34.8472 29.4384L41.9129 22.3669C41.9408 22.3956 41.969 22.4242 41.9973 22.4526C43.5441 24.0007 45.6008 24.8533 47.7884 24.8533C49.976 24.8533 52.0327 24.0007 53.5793 22.4526C56.7719 19.2575 56.7719 14.0586 53.5795 10.8635C51.954 9.23672 49.7665 8.38895 47.5193 8.46541C47.5966 6.2172 46.7489 4.02719 45.1238 2.40067C43.5769 0.852578 41.5202 0 39.3326 0C37.145 0 35.0883 0.852578 33.5415 2.40067C30.3491 5.59584 30.3491 10.7947 33.5415 13.9898C33.5704 14.0186 33.5994 14.0472 33.6286 14.0756ZM35.0891 3.9468C36.2225 2.81225 37.7297 2.1875 39.3326 2.1875C40.9355 2.1875 42.4427 2.81225 43.5761 3.9468C45.0305 5.40236 45.6355 7.4737 45.1947 9.48784C45.1149 9.85206 45.2262 10.2317 45.4899 10.4953C45.7535 10.7588 46.1331 10.8697 46.4973 10.7902C48.5093 10.3491 50.5779 10.9546 52.0318 12.4098C54.3724 14.7524 54.3724 18.564 52.0318 20.9066C50.8982 22.0411 49.3912 22.6659 47.7883 22.6659C46.1853 22.6659 44.6782 22.0411 43.5446 20.9065C43.3004 20.662 43.0765 20.3962 42.8792 20.1165C42.6931 19.8527 42.4002 19.6845 42.0787 19.657C41.7571 19.6293 41.4398 19.7454 41.2117 19.9736L33.6484 27.5433L31.0988 27.386L31.7818 25.6318C31.8936 25.3448 31.8791 25.0238 31.742 24.748C31.6048 24.4721 31.3576 24.2669 31.0612 24.1828L28.4682 23.4469L28.2447 22.5586L36.021 14.7759C36.249 14.5479 36.3646 14.2308 36.337 13.9095C36.3096 13.5883 36.1417 13.2955 35.8784 13.1095C35.5988 12.9119 35.3332 12.6878 35.0891 12.4435C32.7483 10.1011 32.7483 6.28939 35.0891 3.9468Z" fill="#05294A"/>
<path d="M19.3349 20.8816C19.5485 21.0951 19.8284 21.202 20.1083 21.202C20.3882 21.202 20.6682 21.0951 20.8817 20.8816C21.3088 20.4545 21.3088 19.762 20.8817 19.3347L19.5425 17.9955C19.1154 17.5685 18.4228 17.5685 17.9956 17.9955C17.5685 18.4227 17.5685 19.1152 17.9956 19.5424L19.3349 20.8816Z" fill="#05294A"/>
<path d="M15.4794 27.8049H17.3732C17.9773 27.8049 18.467 27.3152 18.467 26.7111C18.467 26.107 17.9773 25.6174 17.3732 25.6174H15.4794C14.8753 25.6174 14.3856 26.107 14.3856 26.7111C14.3856 27.3152 14.8753 27.8049 15.4794 27.8049Z" fill="#05294A"/>
<path d="M26.7112 18.467C27.3153 18.467 27.8049 17.9773 27.8049 17.3733V15.4794C27.8049 14.8754 27.3153 14.3857 26.7112 14.3857C26.1071 14.3857 25.6174 14.8754 25.6174 15.4794V17.3733C25.6174 17.9773 26.1072 18.467 26.7112 18.467Z" fill="#05294A"/>
<path d="M29.5991 32.1192L26.5572 31.9316L27.2402 30.1776C27.3519 29.8905 27.3375 29.5696 27.2004 29.2937C27.0632 29.0179 26.816 28.8127 26.5196 28.7286L23.9265 27.9927L23.5519 26.5031C23.4559 26.1212 23.1619 25.8203 22.7823 25.7155C22.4026 25.6108 21.996 25.7182 21.7175 25.9967L14.0874 33.6333C14.0595 33.6044 14.0313 33.5759 14.0029 33.5475C12.4562 31.9995 10.3995 31.1469 8.21187 31.1469C6.02426 31.1469 3.96757 31.9995 2.4209 33.5475C-0.771647 36.7427 -0.771647 41.9415 2.4209 45.1367C4.04621 46.7634 6.23306 47.6132 8.48104 47.5348C8.40371 49.783 9.25148 51.973 10.8766 53.5995C12.4232 55.1475 14.4798 56 16.6674 56C18.855 56 20.9117 55.1475 22.4585 53.5994C25.6509 50.4042 25.6509 45.2054 22.4584 42.0102C22.4199 41.9716 22.381 41.9335 22.3417 41.8958C22.7676 41.4686 22.7673 40.777 22.3405 40.3502C21.9134 39.9231 21.2208 39.9231 20.7936 40.3502L19.9589 41.185C19.6207 41.5232 19.5415 42.0418 19.7632 42.4655L19.7835 42.5044C19.8639 42.658 19.9797 42.7904 20.1215 42.8905C20.4011 43.088 20.6667 43.3121 20.9109 43.5565C23.2515 45.8989 23.2515 49.7107 20.9109 52.0533C19.7775 53.1878 18.2704 53.8125 16.6674 53.8125C15.0645 53.8125 13.5574 53.1878 12.4239 52.0533C10.9695 50.5977 10.3645 48.5262 10.8054 46.5123C10.8851 46.1482 10.7739 45.7685 10.5102 45.5049C10.2465 45.2413 9.86693 45.1301 9.50271 45.21C7.49109 45.6511 5.42204 45.0455 3.96812 43.5904C1.62749 41.2478 1.62749 37.4362 3.96823 35.0936C5.10179 33.959 6.60887 33.3343 8.21176 33.3343C9.81476 33.3343 11.3218 33.959 12.4554 35.0936C12.6996 35.338 12.9235 35.6038 13.1208 35.8836C13.3069 36.1474 13.5998 36.3155 13.9214 36.3431C14.2428 36.3704 14.5602 36.2547 14.7884 36.0263L21.9009 28.9079L21.9591 29.139C22.0545 29.5182 22.345 29.8176 22.7212 29.9244L24.7653 30.5045L23.9751 32.5341C23.8483 32.8596 23.8847 33.226 24.0729 33.5202C24.2611 33.8144 24.5784 34.0011 24.927 34.0226L27.467 34.1792C27.4781 34.4329 27.5772 34.684 27.7655 34.8829C28.1806 35.3215 28.8729 35.3405 29.3117 34.9252L30.2837 34.005C30.6001 33.7055 30.7086 33.2469 30.5599 32.8375C30.4112 32.4282 30.0337 32.146 29.5991 32.1192Z" fill="#05294A"/>
<path d="M26.0598 37.2236C25.8834 36.7935 25.4347 36.5178 24.9716 36.5513C24.517 36.5841 24.1241 36.9038 23.9986 37.3415C23.8728 37.7798 24.0409 38.265 24.4123 38.5302C24.78 38.7927 25.2802 38.8009 25.6562 38.5504C26.0846 38.2649 26.258 37.6995 26.0598 37.2236Z" fill="#05294A"/>
</g>
<defs>
<clipPath id="clip0">
<rect width="56" height="56" fill="white"/>
</clipPath>
</defs>
</svg>
