<svg width="56" height="56" viewBox="0 0 56 56" fill="none" xmlns="http://www.w3.org/2000/svg">
<path d="M11.06 15.3551C10.7338 15.1176 10.4226 14.8549 10.1312 14.5642C6.21932 10.6617 7.34872 3.20791 7.34872 3.20791C7.34872 3.20791 14.8206 2.08124 18.7324 5.98374C21.7112 8.95535 21.7669 13.9863 21.6239 16.2172" fill="white"/>
<path d="M11.06 15.3551C10.7338 15.1176 10.4226 14.8549 10.1312 14.5642C6.21932 10.6617 7.34872 3.20791 7.34872 3.20791C7.34872 3.20791 14.8206 2.08124 18.7324 5.98374C21.7112 8.95535 21.7669 13.9863 21.6239 16.2172" fill="#007AFF" fill-opacity="0.4"/>
<path d="M17.1779 52.9376L17.2497 52.9357C17.3836 52.9322 19.4386 53.086 21.6663 52.3732C23.8938 53.086 25.9488 52.9322 26.0827 52.9357L26.1545 52.9376H26.2263C29.5664 52.9376 34.4153 52.2815 38.5471 43.9449C40.7903 39.4191 42.2396 34.0423 42.2396 30.2469C42.2396 21.5637 35.1584 14.4995 26.4544 14.4995L26.3909 14.4998C25.7302 14.5074 25.0747 14.9217 24.428 15.4476C22.8149 16.7596 20.5177 16.7596 18.9044 15.4476C18.2579 14.9217 17.6024 14.5074 16.9416 14.4998L16.8781 14.4995C8.17392 14.4995 1.09265 21.5637 1.09265 30.2469C1.09265 34.0423 2.54209 39.4191 4.78526 43.9449C8.91712 52.2815 13.7659 52.9376 17.106 52.9376H17.1779Z" fill="#FE565B"/>
<path d="M41.8908 52.9416C49.079 52.9416 54.9063 47.0677 54.9063 39.8219C54.9063 32.5761 49.079 26.7021 41.8908 26.7021C34.7025 26.7021 28.8752 32.5761 28.8752 39.8219C28.8752 47.0677 34.7025 52.9416 41.8908 52.9416Z" fill="#EEEFF1"/>
<path d="M47.1179 37.1639H44.5268V34.5504C44.5268 33.8123 43.9332 33.2139 43.201 33.2139H40.5807C39.8484 33.2139 39.2548 33.8122 39.2548 34.5504V37.1639H36.6637C35.9315 37.1639 35.3379 37.7623 35.3379 38.5004V41.1436C35.3379 41.8817 35.9315 42.4801 36.6637 42.4801H39.2548V45.0936C39.2548 45.8316 39.8484 46.43 40.5807 46.43H43.201C43.9332 46.43 44.5268 45.8318 44.5268 45.0936V42.4801H47.1179C47.8502 42.4801 48.4437 41.8818 48.4437 41.1436V38.5004C48.4437 37.7623 47.8502 37.1639 47.1179 37.1639Z" fill="#FE565B"/>
<path d="M0.880483 31.4901C1.32728 31.5811 1.79759 31.3707 2.03111 30.9801C2.26276 30.5926 2.22973 30.0928 1.95017 29.7385C1.65912 29.3697 1.14834 29.2292 0.709092 29.3945C0.28778 29.553 0.000779839 29.968 0.000123589 30.4182C-0.000751411 30.9348 0.376483 31.3878 0.880483 31.4901Z" fill="#05294A"/>
<path d="M42.6888 25.6308C40.6278 18.4095 34.0176 13.4058 26.4478 13.4058L26.3783 13.4062C25.3231 13.4183 24.4129 14.0501 23.7378 14.5992C23.4365 14.8443 23.1058 15.0288 22.7599 15.1527V15.137C22.7625 14.9429 22.7627 14.7426 22.7599 14.5367V11.1764C22.7599 8.93496 24.5834 7.11146 26.8248 7.11146C27.4289 7.11146 27.9186 6.62179 27.9186 6.01771C27.9186 5.41363 27.4289 4.92396 26.8248 4.92396C24.532 4.92396 22.5236 6.16449 21.4353 8.00965C20.9642 6.99694 20.3362 6.03871 19.5048 5.20932C15.2514 0.966332 7.51294 2.07704 7.18547 2.12636C6.71122 2.1979 6.33902 2.56988 6.26716 3.04402C6.21805 3.36777 5.12364 10.9572 9.24664 15.2246C8.41244 15.6491 7.60897 16.1458 6.84313 16.7125C3.97783 18.8326 1.88964 21.7339 0.804315 25.1026C0.619034 25.6775 0.935018 26.2938 1.51 26.4789C2.08455 26.664 2.70121 26.3483 2.88638 25.7732C4.84813 19.6842 10.471 15.5932 16.8717 15.5932L16.9291 15.5935C17.0843 15.5952 17.2683 15.6657 17.45 15.7629C17.4703 15.7751 17.4911 15.7865 17.5121 15.7971C17.8081 15.9656 18.0881 16.1933 18.2143 16.296C20.2145 17.9228 23.118 17.923 25.1182 16.2961C25.3303 16.1235 25.9761 15.5984 26.3973 15.5936L26.4543 15.5933C32.8455 15.5933 38.4545 19.6966 40.4179 25.6853C33.3275 26.4295 27.7813 32.4855 27.7813 39.8218C27.7813 43.9047 29.4991 47.5909 32.2448 50.1859C30.106 51.6308 28.0205 51.8438 26.2262 51.8438L26.111 51.8423C26.0888 51.8418 26.0372 51.8421 25.9586 51.8449C24.2074 51.9077 22.8389 51.6001 21.9994 51.3314C21.7825 51.2621 21.5497 51.2621 21.3328 51.3314C20.4935 51.6001 19.1253 51.9077 17.3735 51.8449C17.295 51.8421 17.2433 51.8416 17.2219 51.8423L17.1061 51.8438C14.7739 51.8438 9.92116 51.8438 5.76535 43.4591C4.4768 40.8592 3.42341 37.8911 2.79932 35.1013C2.66752 34.5118 2.08269 34.1406 1.49316 34.2727C0.903628 34.4046 0.532737 34.9893 0.664534 35.5788C1.32582 38.5347 2.44122 41.6782 3.80524 44.4304C8.02306 52.94 13.129 54.0313 17.1061 54.0313H17.1779C17.187 54.0313 17.1962 54.0312 17.2054 54.0309L17.2552 54.0296L17.296 54.0309C18.8067 54.0849 20.3098 53.907 21.6662 53.5162C22.8645 53.8615 24.1771 54.0403 25.5084 54.0403C25.6841 54.0403 25.8602 54.0373 26.0363 54.0309L26.0769 54.0296L26.1267 54.0309C26.1359 54.0312 26.1452 54.0313 26.1544 54.0313H26.2261C28.3849 54.0313 31.1885 53.7457 34.0138 51.6088C36.2648 53.1403 38.9759 54.0352 41.8906 54.0352C49.6704 54.0352 55.9999 47.6591 55.9999 39.8217C56 32.2543 50.0989 26.0491 42.6888 25.6308ZM18.7192 13.9708L13.5238 7.92958C13.1298 7.47152 12.4392 7.41957 11.9812 7.81354C11.5233 8.2074 11.4712 8.89799 11.8651 9.35594L15.4023 13.469C14.0519 13.5853 12.7331 13.8611 11.4658 14.2898C11.2668 14.1317 11.0783 13.9642 10.9035 13.7899C8.15749 11.0503 8.20353 6.15585 8.34638 4.20602C10.3013 4.06329 15.2115 4.01636 17.9599 6.75807C20.2648 9.05735 20.5992 12.8871 20.5702 15.1518C20.2253 15.0278 19.8952 14.8436 19.5946 14.5991C19.3357 14.3886 19.0423 14.166 18.7192 13.9708ZM17.2709 54.0293L17.278 54.0292C17.276 54.0292 17.2736 54.0292 17.2709 54.0293ZM26.055 54.0291L26.0612 54.0292C26.0589 54.0292 26.0568 54.0292 26.055 54.0291ZM41.8907 51.8478C35.317 51.8478 29.9689 46.453 29.9689 39.8218C29.9689 33.1907 35.317 27.7958 41.8907 27.7958C48.4644 27.7958 53.8125 33.1906 53.8125 39.8218C53.8125 46.4529 48.4644 51.8478 41.8907 51.8478Z" fill="#05294A"/>
<path d="M47.1178 36.0701H45.6205V34.5502C45.6205 33.2103 44.535 32.1201 43.2009 32.1201H40.5807C39.2465 32.1201 38.1611 33.2103 38.1611 34.5502V36.0701H36.6637C35.3296 36.0701 34.2443 37.1602 34.2443 38.5003V41.1436C34.2443 42.4835 35.3297 43.5738 36.6637 43.5738H38.1611V45.0935C38.1611 46.4335 39.2465 47.5237 40.5807 47.5237H43.2009C44.535 47.5237 45.6205 46.4336 45.6205 45.0935V43.5738H47.1178C48.452 43.5738 49.5374 42.4836 49.5374 41.1436V38.5003C49.5374 37.1602 48.452 36.0701 47.1178 36.0701ZM47.3499 41.1434C47.3499 41.2773 47.2458 41.3861 47.1178 41.3861H44.5267C43.9226 41.3861 43.433 41.8758 43.433 42.4799V45.0934C43.433 45.2273 43.3288 45.3361 43.2009 45.3361H40.5807C40.4527 45.3361 40.3486 45.2273 40.3486 45.0934V42.4799C40.3486 41.8758 39.8589 41.3861 39.2548 41.3861H36.6637C36.5358 41.3861 36.4318 41.2773 36.4318 41.1434V38.5002C36.4318 38.3663 36.5359 38.2575 36.6637 38.2575H39.2548C39.8589 38.2575 40.3486 37.7678 40.3486 37.1637V34.5501C40.3486 34.4163 40.4527 34.3075 40.5807 34.3075H43.2009C43.3288 34.3075 43.433 34.4163 43.433 34.5501V37.1637C43.433 37.7678 43.9226 38.2575 44.5267 38.2575H47.1178C47.2458 38.2575 47.3499 38.3663 47.3499 38.5002V41.1434Z" fill="#05294A"/>
</svg>
