<svg width="56" height="56" viewBox="0 0 56 56" fill="none" xmlns="http://www.w3.org/2000/svg">
<g clip-path="url(#clip0)">
<path d="M16.4067 8.9679C7.94934 8.9679 1.09375 15.8235 1.09375 24.2808C1.09375 31.9952 6.79791 38.377 14.2192 39.4382V46.1562H9.84375V50.5312H14.2192V54.9062H18.5942V50.5312H22.9692V46.1562H18.5942V39.4382C26.018 38.377 31.7192 31.9883 31.7192 24.2808C31.7192 15.7825 24.8243 8.9679 16.4067 8.9679ZM16.4067 35.2183C10.7743 35.2183 6.07758 30.963 5.52472 25.3733C4.87189 18.9279 9.94244 13.3429 16.4067 13.3429C22.4167 13.3429 27.3442 18.2293 27.3442 24.2808C27.3442 30.5417 22.2061 35.2183 16.4067 35.2183Z" fill="#FE565B"/>
<path d="M54.9063 1.09375L53.3597 11.9223L50.2656 8.82776L45.515 13.5779C50.0126 19.5764 49.5337 28.1218 44.0778 33.5764C39.1777 38.4778 31.7829 39.3626 25.9813 36.2313C27.178 35.2717 28.2269 34.1365 29.0878 32.8633L29.0891 32.8646C33.0484 34.4877 37.7746 33.6935 40.9849 30.4836C45.2493 26.2188 45.2493 19.2799 40.9849 15.0151C37.2833 11.3131 31.5663 10.8251 27.3323 13.5505C26.2672 12.4666 25.041 11.5395 23.6921 10.8098C27.8638 7.5896 35.4863 5.28418 42.4222 10.485L47.1723 5.7345L44.0778 2.64038L54.9063 1.09375Z" fill="white"/>
<path d="M54.9063 1.09375L53.3597 11.9223L50.2656 8.82776L45.515 13.5779C50.0126 19.5764 49.5337 28.1218 44.0778 33.5764C39.1777 38.4778 31.7829 39.3626 25.9813 36.2313C27.178 35.2717 28.2269 34.1365 29.0878 32.8633L29.0891 32.8646C33.0484 34.4877 37.7746 33.6935 40.9849 30.4836C45.2493 26.2188 45.2493 19.2799 40.9849 15.0151C37.2833 11.3131 31.5663 10.8251 27.3323 13.5505C26.2672 12.4666 25.041 11.5395 23.6921 10.8098C27.8638 7.5896 35.4863 5.28418 42.4222 10.485L47.1723 5.7345L44.0778 2.64038L54.9063 1.09375Z" fill="#007AFF" fill-opacity="0.4"/>
<path d="M20.5672 14.1653C21.9387 14.731 23.1717 15.5688 24.1962 16.61C21.3264 20.8406 21.7464 26.6508 25.454 30.4191C25.4532 30.4199 25.4532 30.4199 25.454 30.4199C24.6965 31.5564 23.5387 32.7065 22.3206 33.4769L22.3142 33.467C17.1351 28.1854 16.5532 20.0818 20.5672 14.1653Z" fill="#64E1DC"/>
<path d="M5.52472 25.3733C6.10321 25.3438 6.5625 24.8657 6.5625 24.2808C6.5625 23.6758 6.07117 23.1866 5.46875 23.1866C4.86505 23.1866 4.375 23.6767 4.375 24.2808C4.375 24.9213 4.92059 25.4088 5.52472 25.3733Z" fill="#05294A"/>
<path d="M28.4379 24.2808C28.4379 17.653 23.0444 12.2491 16.4067 12.2491C11.5895 12.2491 7.4563 14.9728 5.35083 19.5345C5.0979 20.0831 5.33716 20.733 5.88574 20.9859C6.43347 21.2393 7.08374 21 7.3371 20.4514C9.07557 16.6852 12.4658 14.4366 16.4067 14.4366C17.2736 14.4366 18.1148 14.5499 18.9163 14.7614C15.6419 20.6304 16.3101 27.9906 20.5899 33.1838C19.2944 33.7909 17.8636 34.1246 16.4067 34.1246C12.4482 34.1246 8.89399 31.7756 7.35077 28.1406C7.11493 27.5847 6.47321 27.3254 5.91651 27.5612C5.36066 27.7975 5.10132 28.4392 5.33716 28.9955C7.21405 33.4175 11.6027 36.3121 16.4067 36.3121C23.0978 36.3121 28.4379 30.9211 28.4379 24.2808ZM25.2896 28.5336C23.1756 25.6207 22.8209 21.7481 24.3706 18.5023C25.5523 20.1263 26.2504 22.1232 26.2504 24.2808C26.2504 25.7493 25.9082 27.2374 25.2896 28.5336ZM22.477 32.0285C18.5237 27.4399 17.9174 20.7804 20.9769 15.5641C21.6293 15.9077 22.2386 16.3221 22.7949 16.7976C20.3147 21.1555 20.8167 26.6512 24.0454 30.4908C23.5836 31.0629 23.0559 31.5778 22.477 32.0285Z" fill="#05294A"/>
<path d="M55.9889 1.24918C56.0376 0.908235 55.9231 0.564302 55.6796 0.321199C55.436 0.0776683 55.0917 -0.0368338 54.7516 0.0118723L43.9235 1.5585C43.5133 1.61704 43.1715 1.90244 43.0403 2.2955C42.9096 2.68857 43.0117 3.1218 43.3044 3.41446L45.6256 5.73569L42.3012 9.05967C36.2685 5.02005 29.0164 5.70407 23.5878 9.52964C21.3636 8.44614 18.8962 7.87491 16.4067 7.87491C7.36017 7.87491 0 15.2347 0 24.2816C0 32.116 5.5354 38.8157 13.1254 40.3593V45.0629H9.84375C9.24005 45.0629 8.75 45.5529 8.75 46.157V50.532C8.75 51.1357 9.24005 51.6258 9.84375 51.6258H13.1254V54.907C13.1254 55.5112 13.6151 56.0008 14.2192 56.0008H18.5942C19.1983 56.0008 19.6879 55.5112 19.6879 54.907V51.6258H22.9692C23.5733 51.6258 24.0629 51.1357 24.0629 50.532V46.157C24.0629 45.5529 23.5733 45.0629 22.9692 45.0629H19.6879V40.3593C22.0002 39.8889 24.189 38.9182 26.0988 37.5177C32.1759 40.4542 39.7386 39.4651 44.8514 34.3509C50.3928 28.8108 51.2148 20.16 46.9394 13.7017L50.2655 10.3756L52.5863 12.6964C52.8794 12.9895 53.3126 13.0912 53.7057 12.9609C54.0988 12.8297 54.3837 12.4879 54.4423 12.0777L55.9889 1.24918ZM18.4395 38.3564C17.9008 38.4333 17.5004 38.8947 17.5004 39.439V46.157C17.5004 46.7607 17.9901 47.2508 18.5942 47.2508H21.8754V49.4383H18.5942C17.9901 49.4383 17.5004 49.9279 17.5004 50.532V53.8133H15.3129V50.532C15.3129 49.9279 14.8229 49.4383 14.2192 49.4383H10.9379V47.2508H14.2192C14.8229 47.2508 15.3129 46.7607 15.3129 46.157V39.439C15.3129 38.8947 14.9126 38.4333 14.3738 38.3564C7.42639 37.363 2.1875 31.3124 2.1875 24.2816C2.1875 16.4408 8.56628 10.0624 16.4067 10.0624C24.1676 10.0624 30.6254 16.3335 30.6254 24.2816C30.6254 31.5072 25.269 37.3801 18.4395 38.3564ZM29.0638 13.8418C32.7599 12.1123 37.2691 12.8464 40.2111 15.7897C44.0495 19.6276 44.0495 25.8727 40.2111 29.7106C37.7066 32.2156 34.1024 33.1555 30.7382 32.266C32.0981 29.8337 32.8134 27.1014 32.8134 24.2816C32.8134 20.4321 31.4906 16.7762 29.0638 13.8418ZM52.5863 9.6027L51.0388 8.05521C50.6116 7.62839 49.919 7.62796 49.4918 8.05521L44.7416 12.8053C44.3567 13.1903 44.3135 13.7995 44.64 14.2349C48.8505 19.8502 48.2762 27.8333 43.3044 32.8043C39.2733 36.8362 33.1543 38.0274 27.9449 35.9429C28.5016 35.3921 29.0173 34.8025 29.489 34.1779C33.7935 35.5947 38.5256 34.4902 41.7582 31.2577C46.4493 26.5665 46.4493 18.9338 41.7582 14.2426C37.9929 10.4764 32.1776 9.64072 27.492 12.1892C26.9255 11.6697 26.326 11.1912 25.6959 10.7575C29.8393 8.21799 36.0544 7.0781 41.7659 11.3608C42.2008 11.6872 42.8105 11.6441 43.195 11.2591L47.9456 6.50901C48.3724 6.08176 48.3724 5.38919 47.9456 4.96195L46.3981 3.41446L53.6172 2.38352L52.5863 9.6027Z" fill="#05294A"/>
</g>
<defs>
<clipPath id="clip0">
<rect width="56" height="56" fill="white"/>
</clipPath>
</defs>
</svg>
