<svg width="56" height="56" viewBox="0 0 56 56" fill="none" xmlns="http://www.w3.org/2000/svg">
<path fill-rule="evenodd" clip-rule="evenodd" d="M23.2873 1.09375V14.1869C20.5984 14.7327 18.5745 17.1099 18.5745 19.9598C18.5745 23.2133 21.212 25.8508 24.4655 25.8508C25.7916 25.8508 27.0154 25.4124 28 24.6729C28.9846 25.4124 30.2083 25.8508 31.5346 25.8508C34.7881 25.8508 37.4255 23.2133 37.4255 19.9598C37.4255 17.1099 35.4018 14.7327 32.7128 14.1869V1.09375H23.2873Z" fill="white"/>
<path fill-rule="evenodd" clip-rule="evenodd" d="M23.2873 1.09375V14.1869C20.5984 14.7327 18.5745 17.1099 18.5745 19.9598C18.5745 23.2133 21.212 25.8508 24.4655 25.8508C25.7916 25.8508 27.0154 25.4124 28 24.6729C28.9846 25.4124 30.2083 25.8508 31.5346 25.8508C34.7881 25.8508 37.4255 23.2133 37.4255 19.9598C37.4255 17.1099 35.4018 14.7327 32.7128 14.1869V1.09375H23.2873Z" fill="#007AFF" fill-opacity="0.4"/>
<path fill-rule="evenodd" clip-rule="evenodd" d="M31.5346 30.1492C30.2084 30.1492 28.9846 30.5875 28 31.327C27.0154 30.5875 25.7917 30.1492 24.4655 30.1492C21.212 30.1492 18.5745 32.7866 18.5745 36.0401C18.5745 38.8901 20.5983 41.2672 23.2873 41.813V54.9062H32.7127V41.813C35.4015 41.2672 37.4254 38.8901 37.4254 36.0401C37.4254 32.7865 34.7881 30.1492 31.5346 30.1492Z" fill="#FE565B"/>
<path fill-rule="evenodd" clip-rule="evenodd" d="M31.5346 30.1492C34.788 30.1492 37.4255 32.7866 37.4255 36.0402C37.4255 38.8901 35.4016 41.2673 32.7128 41.8131V54.9062H49.875C51.0781 54.9062 52.0625 53.9219 52.0625 52.7189V3.28125C52.0625 2.07812 51.0781 1.09375 49.875 1.09375H32.7128V14.1869C35.4016 14.7327 37.4255 17.11 37.4255 19.9598C37.4255 23.2133 34.788 25.8508 31.5346 25.8508C30.2083 25.8508 28.9846 25.4124 28 24.6729C27.0154 25.4125 25.7916 25.8508 24.4654 25.8508C21.212 25.8508 18.5745 23.2134 18.5745 19.9598C18.5745 17.1099 20.5984 14.7327 23.2873 14.1869V1.09375H6.125C4.92188 1.09375 3.9375 2.07812 3.9375 3.28125V52.7188C3.9375 53.9219 4.92188 54.9062 6.125 54.9062H23.2873V41.8131C20.5984 41.2673 18.5745 38.89 18.5745 36.0402C18.5745 32.7867 21.212 30.1492 24.4654 30.1492C25.7917 30.1492 27.0154 30.5876 28 31.3271C28.9846 30.5876 30.2084 30.1492 31.5346 30.1492Z" fill="#EEEFF1"/>
<path d="M49.875 0H6.125C4.31572 0 2.84375 1.47197 2.84375 3.28125V52.7188C2.84375 54.528 4.31572 56 6.125 56H49.875C51.6843 56 53.1562 54.528 53.1562 52.7188V3.28125C53.1562 1.47197 51.6843 0 49.875 0ZM32.4951 15.2589C34.7181 15.7101 36.3316 17.6873 36.3316 19.96C36.3316 22.6052 34.1797 24.7571 31.5345 24.7571C30.4882 24.7571 29.4942 24.4263 28.6598 23.8007C28.6585 23.7998 28.6575 23.7987 28.6562 23.7978C27.4547 22.8967 26.7373 21.462 26.7373 19.9601C26.7373 19.356 26.2476 18.8663 25.6435 18.8663C25.0394 18.8663 24.5498 19.356 24.5498 19.9601C24.5498 21.6063 25.142 23.1966 26.181 24.4422C25.6392 24.6498 25.0609 24.7572 24.4654 24.7572C21.8202 24.7572 19.6683 22.6053 19.6683 19.9601C19.6683 17.6874 21.2817 15.7103 23.5048 15.259C24.0146 15.1555 24.381 14.7073 24.381 14.1871V2.1875H31.6189V14.1869C31.619 14.7071 31.9853 15.1553 32.4951 15.2589ZM50.9688 52.7188C50.9688 53.3218 50.4781 53.8125 49.875 53.8125H33.8065V42.6464C36.5842 41.6905 38.5192 39.0424 38.5192 36.0402C38.5192 32.1888 35.386 29.0555 31.5346 29.0555C30.275 29.0555 29.0673 29.3849 27.9995 30.0145C27.0868 29.4782 26.0637 29.1565 25.0004 29.0758C24.3982 29.0309 23.8727 29.4813 23.827 30.0836C23.7813 30.6859 24.2325 31.2113 24.8348 31.257C25.7444 31.326 26.6109 31.6523 27.3413 32.2003C27.3421 32.2009 27.3428 32.2016 27.3436 32.2022C28.5453 33.1034 29.2627 34.5381 29.2627 36.04C29.2627 36.6441 29.7524 37.1338 30.3565 37.1338C30.9606 37.1338 31.4502 36.6441 31.4502 36.04C31.4502 34.394 30.858 32.8035 29.819 31.558C30.3608 31.3504 30.9391 31.243 31.5346 31.243C34.1798 31.243 36.3317 33.3949 36.3317 36.0402C36.3317 38.3129 34.7183 40.2899 32.4952 40.7411C31.9854 40.8446 31.619 41.2928 31.619 41.813V53.8125H24.3811V41.8131C24.3811 41.2929 24.0147 40.8447 23.5049 40.7412C21.4156 40.3172 19.8438 38.5357 19.6827 36.4091C19.637 35.8068 19.1101 35.3556 18.5093 35.4011C17.907 35.4467 17.4557 35.9721 17.5013 36.5745C17.7131 39.3671 19.595 41.7512 22.1935 42.6464V53.8125H6.125C5.52191 53.8125 5.03125 53.3218 5.03125 52.7188V3.28125C5.03125 2.67816 5.52191 2.1875 6.125 2.1875H22.1936V13.3536C19.4159 14.3096 17.4809 16.9577 17.4809 19.96C17.4809 23.8113 20.6141 26.9446 24.4655 26.9446C25.7249 26.9446 26.9324 26.6153 28.0001 25.986C29.0678 26.6152 30.2754 26.9446 31.5346 26.9446C35.3859 26.9446 38.5192 23.8114 38.5192 19.96C38.5192 16.9577 36.5842 14.3095 33.8065 13.3536V2.1875H49.875C50.4781 2.1875 50.9688 2.67816 50.9688 3.28125V52.7188Z" fill="#05294A"/>
<path d="M47.6875 49.4374H40.6767C40.0726 49.4374 39.5829 49.927 39.5829 50.5311C39.5829 51.1352 40.0726 51.6249 40.6767 51.6249H47.6875C48.2916 51.6249 48.7813 51.1352 48.7813 50.5311C48.7813 49.927 48.2916 49.4374 47.6875 49.4374Z" fill="#05294A"/>
<path d="M47.6875 45.0621H40.6767C40.0726 45.0621 39.5829 45.5518 39.5829 46.1559C39.5829 46.76 40.0726 47.2496 40.6767 47.2496H47.6875C48.2916 47.2496 48.7813 46.76 48.7813 46.1559C48.7813 45.5518 48.2916 45.0621 47.6875 45.0621Z" fill="#05294A"/>
<path d="M15.3235 8.75018H8.31262C7.70854 8.75018 7.21887 9.23985 7.21887 9.84393C7.21887 10.448 7.70854 10.9377 8.31262 10.9377H15.3235C15.9275 10.9377 16.4172 10.448 16.4172 9.84393C16.4172 9.23985 15.9275 8.75018 15.3235 8.75018Z" fill="#05294A"/>
<path d="M15.3235 4.375H8.31262C7.70854 4.375 7.21887 4.86467 7.21887 5.46875C7.21887 6.07283 7.70854 6.5625 8.31262 6.5625H15.3235C15.9275 6.5625 16.4172 6.07283 16.4172 5.46875C16.4172 4.86467 15.9275 4.375 15.3235 4.375Z" fill="#05294A"/>
<path d="M20.3007 30.7808H20.3C19.6959 30.7808 19.2067 31.2705 19.2067 31.8746C19.2067 32.4787 19.6967 32.9683 20.3007 32.9683C20.9048 32.9683 21.3945 32.4787 21.3945 31.8746C21.3945 31.2705 20.9048 30.7808 20.3007 30.7808Z" fill="#05294A"/>
</svg>
