<svg width="56" height="56" viewBox="0 0 56 56" fill="none" xmlns="http://www.w3.org/2000/svg">
<g clip-path="url(#clip0)">
<path d="M36.1295 51.92H49.4016C52.7556 51.92 55.3299 48.9459 54.8492 45.6265L52.0932 26.5997C50.9442 18.6672 44.1449 12.7818 36.1295 12.7818C33.0896 12.7818 30.6252 15.2462 30.6252 18.2862V46.4157C30.6252 49.4556 33.0896 51.92 36.1295 51.92Z" fill="white"/>
<path d="M36.1295 51.92H49.4016C52.7556 51.92 55.3299 48.9459 54.8492 45.6265L52.0932 26.5997C50.9442 18.6672 44.1449 12.7818 36.1295 12.7818C33.0896 12.7818 30.6252 15.2462 30.6252 18.2862V46.4157C30.6252 49.4556 33.0896 51.92 36.1295 51.92Z" fill="#007AFF" fill-opacity="0.4"/>
<path d="M25.3749 30.134V46.4156C25.3749 49.4555 22.9105 51.9199 19.8706 51.9199H6.59838C3.2444 51.9199 0.670069 48.9458 1.15079 45.6264L3.90679 26.5997C5.05581 18.6672 11.8551 12.7818 19.8705 12.7818C22.5101 12.7818 24.7158 14.6399 25.251 17.1195" fill="#FE565B"/>
<path d="M37.1743 26.9564C33.6127 26.1038 31.0351 23.0975 30.7345 19.4593V6.81448C30.7345 5.30418 29.5102 4.08002 28 4.08002C26.4899 4.08002 25.2656 5.30418 25.2656 6.81448V19.4594C24.9649 23.0975 22.3874 26.1039 18.8258 26.9564C17.3571 27.3081 16.4514 28.7837 16.8031 30.2524C17.1034 31.5072 18.2241 32.3509 19.4602 32.3509C19.6709 32.3509 19.8851 32.3263 20.0991 32.2753C23.0277 31.5741 25.5942 29.9853 27.521 27.6802C27.6867 27.4819 27.8465 27.2799 28 27.0744C28.1537 27.2799 28.3134 27.4819 28.4792 27.6802C30.406 29.9852 32.9726 31.5741 35.9012 32.2753C37.3698 32.6268 38.8456 31.7211 39.1971 30.2525C39.5487 28.7837 38.643 27.3081 37.1743 26.9564Z" fill="#EEEFF1"/>
<path d="M55.9318 45.4697L53.1758 26.4428C52.5824 22.3461 50.5319 18.5979 47.4021 15.889C44.2724 13.1799 40.269 11.688 36.1296 11.688C34.5143 11.688 32.9985 12.2899 31.8283 13.2964V6.81439C31.8283 4.7035 30.1109 2.98615 28 2.98615C25.8891 2.98615 24.1718 4.7035 24.1718 6.81439V13.2939C23.0026 12.2886 21.488 11.688 19.8705 11.688C15.7311 11.688 11.7277 13.18 8.59795 15.889C5.46819 18.5982 3.41768 22.3461 2.8243 26.4428L0.0682901 45.4697C-0.206359 47.3662 0.355409 49.2849 1.60954 50.7339C2.86367 52.1827 4.68198 53.0138 6.59829 53.0138H19.8704C23.5086 53.0138 26.4685 50.0538 26.4685 46.4156V30.2758C27.0099 29.8228 27.5214 29.3291 27.9998 28.7968C28.4782 29.3291 28.9898 29.8227 29.5312 30.2758V32.1286C29.5312 32.7326 30.0209 33.2224 30.625 33.2224C31.2291 33.2224 31.7188 32.7326 31.7188 32.1286V31.7942C32.4471 32.2079 33.212 32.5604 34.0079 32.8483C34.1726 37.4657 36.5964 39.6887 39.9723 42.2867C40.1711 42.4396 40.4057 42.5138 40.6386 42.5138C40.9665 42.5138 41.2907 42.3669 41.5062 42.087C41.8746 41.6083 41.7852 40.9215 41.3065 40.5531C38.1742 38.1424 36.5329 36.5378 36.2359 33.4327C36.3389 33.441 36.4419 33.4453 36.5446 33.4453C37.2428 33.4453 37.9297 33.2528 38.54 32.8783C39.0322 32.5762 39.4412 32.1761 39.7471 31.7059C41.0566 32.7955 42.5721 33.2927 44.6351 33.3605C44.6473 33.361 44.6596 33.3612 44.6717 33.3612C45.2592 33.3612 45.7448 32.8948 45.7643 32.3034C45.7842 31.6996 45.3108 31.1941 44.7072 31.1743C42.9998 31.1179 41.6641 30.766 40.3456 29.2195C40.181 27.6503 39.0485 26.2801 37.4288 25.8924C34.3521 25.1559 32.1063 22.5548 31.8282 19.4124V17.3048C32.2795 15.3164 34.0851 13.8753 36.1295 13.8753C43.5495 13.8753 49.947 19.4129 51.0106 26.7563L53.7665 45.7832C53.9502 47.0509 53.5747 48.3335 52.7363 49.302C51.8979 50.2705 50.6825 50.8261 49.4015 50.8261H36.1296C33.6976 50.8261 31.719 48.8474 31.719 46.4155V42.0178C31.719 41.4138 31.2293 40.924 30.6252 40.924C30.0211 40.924 29.5314 41.4138 29.5314 42.0178V46.4155C29.5314 50.0538 32.4913 53.0136 36.1296 53.0136H49.4017C51.318 53.0136 53.1364 52.1826 54.3904 50.7338C55.6447 49.2849 56.2064 47.3662 55.9318 45.4697ZM24.2812 46.4155C24.2812 48.8474 22.3026 50.8261 19.8706 50.8261H6.5984C5.31747 50.8261 4.10195 50.2707 3.26356 49.302C2.42518 48.3336 2.04968 47.0509 2.23333 45.7832L4.98922 26.7563C6.05293 19.4129 12.4505 13.8753 19.8705 13.8753C21.9186 13.8753 23.72 15.3147 24.1718 17.3045V19.4125C23.8935 22.5549 21.6479 25.1559 18.5712 25.8924C16.9516 26.2801 15.8191 27.6503 15.6545 29.2195C14.3359 30.7659 13.0003 31.1179 11.2928 31.1743C10.689 31.1942 10.2158 31.6997 10.2356 32.3034C10.255 32.8949 10.7407 33.3612 11.3281 33.3612C11.3403 33.3612 11.3525 33.361 11.3648 33.3605C13.4276 33.2927 14.943 32.7956 16.2525 31.7062C16.9418 32.7695 18.132 33.4444 19.4602 33.4444C19.5615 33.4444 19.6629 33.4403 19.7641 33.4322C19.4673 36.5375 17.826 38.1423 14.6935 40.5531C14.2149 40.9215 14.1254 41.6083 14.4938 42.087C14.7092 42.3669 15.0334 42.5138 15.3614 42.5138C15.5941 42.5138 15.8288 42.4396 16.0277 42.2867C19.4034 39.6887 21.8274 37.4657 21.992 32.8483C22.7878 32.5604 23.5527 32.2079 24.2811 31.7942V46.4155H24.2812ZM36.9196 28.0201C37.7995 28.2308 38.3438 29.1179 38.1333 29.9978C38.0313 30.4239 37.7695 30.7848 37.396 31.014C37.0224 31.2434 36.5821 31.3136 36.1559 31.2114C33.4576 30.5655 31.0933 29.1017 29.3187 26.9788C29.1657 26.7956 29.0168 26.6074 28.8762 26.4194C28.6697 26.1433 28.345 25.9806 28.0001 25.9806C27.6553 25.9806 27.3306 26.1432 27.1241 26.4194C26.9839 26.607 26.8349 26.7953 26.6818 26.9786C24.907 29.1017 22.5427 30.5655 19.8446 31.2114C19.7177 31.2417 19.5884 31.2571 19.4602 31.2571C18.6995 31.2571 18.0443 30.7393 17.8668 29.9977C17.6562 29.1179 18.2007 28.2308 19.0806 28.0201C23.0928 27.0597 26.0165 23.6555 26.3558 19.5494C26.3583 19.5196 26.3595 19.4894 26.3595 19.4594V6.81439C26.3595 5.90972 27.0955 5.17371 28.0001 5.17371C28.9048 5.17371 29.6408 5.90972 29.6408 6.81439V19.4592C29.6408 19.4892 29.642 19.5194 29.6445 19.5492C29.9837 23.6554 32.9074 27.0596 36.9196 28.0201Z" fill="#05294A"/>
<path d="M29.6156 37.5115C29.7919 37.9342 30.2205 38.2067 30.6786 38.1849C31.1302 38.1635 31.5259 37.8563 31.6656 37.4278C31.807 36.9937 31.6517 36.5039 31.2908 36.2259C30.924 35.9434 30.403 35.9271 30.0181 36.1837C29.5894 36.4692 29.4179 37.0366 29.6156 37.5115Z" fill="#05294A"/>
</g>
<defs>
<clipPath id="clip0">
<rect width="56" height="56" fill="white"/>
</clipPath>
</defs>
</svg>
