<svg width="56" height="56" viewBox="0 0 56 56" fill="none" xmlns="http://www.w3.org/2000/svg">
<g clip-path="url(#clip0)">
<path d="M40.7091 19.3455C38.4599 19.3455 36.6363 21.1691 36.6363 23.4182C36.6363 30.7166 30.6983 35.6364 23.4 35.6364C16.1017 35.6364 10.1636 29.6984 10.1636 22.4001C10.1636 18.7081 11.6451 15.2827 14.3359 12.7541C15.9754 11.2128 16.0551 8.63553 14.5148 6.99703C12.9718 5.35648 10.3943 5.27681 8.75778 6.81808C4.4743 10.844 2.01819 16.5236 2.01819 22.4001C2.01819 34.1896 11.6105 43.7819 23.4 43.7819C28.3985 43.7819 32.9915 42.0446 36.6363 39.1598V50.9091C36.6363 53.1583 38.4599 54.9819 40.7091 54.9819C42.9582 54.9819 44.7818 53.1583 44.7818 50.9091V23.4182C44.7818 21.1691 42.9582 19.3455 40.7091 19.3455Z" fill="white"/>
<path d="M40.7091 19.3455C38.4599 19.3455 36.6363 21.1691 36.6363 23.4182C36.6363 30.7166 30.6983 35.6364 23.4 35.6364C16.1017 35.6364 10.1636 29.6984 10.1636 22.4001C10.1636 18.7081 11.6451 15.2827 14.3359 12.7541C15.9754 11.2128 16.0551 8.63553 14.5148 6.99703C12.9718 5.35648 10.3943 5.27681 8.75778 6.81808C4.4743 10.844 2.01819 16.5236 2.01819 22.4001C2.01819 34.1896 11.6105 43.7819 23.4 43.7819C28.3985 43.7819 32.9915 42.0446 36.6363 39.1598V50.9091C36.6363 53.1583 38.4599 54.9819 40.7091 54.9819C42.9582 54.9819 44.7818 53.1583 44.7818 50.9091V23.4182C44.7818 21.1691 42.9582 19.3455 40.7091 19.3455Z" fill="#007AFF" fill-opacity="0.4"/>
<path d="M40.7091 56C37.9022 56 35.6182 53.7159 35.6182 50.9091V41.1508C31.9759 43.544 27.7909 44.8 23.4 44.8C11.0487 44.8 1 34.7513 1 22.4C1 16.2431 3.5732 10.2933 8.06058 6.07627C9.04999 5.14464 10.3535 4.68035 11.7029 4.69613C13.0621 4.73889 14.3239 5.30755 15.2566 6.299C17.1797 8.34529 17.0791 11.5729 15.0328 13.4958C12.55 15.8294 11.1818 18.9924 11.1818 22.3997C11.1818 29.1373 16.6624 34.6179 23.4 34.6179C30.4794 34.6179 35.6182 29.9078 35.6182 23.4179C35.6182 20.6111 37.9022 18.327 40.7091 18.327C43.5159 18.327 45.8 20.6111 45.8 23.4179V50.9088C45.8 53.7159 43.5159 56 40.7091 56ZM36.6363 38.1421C36.7875 38.1421 36.9387 38.1759 37.0798 38.2434C37.4308 38.4134 37.6545 38.7693 37.6545 39.1603V50.9091C37.6545 52.5934 39.0247 53.9636 40.7091 53.9636C42.3934 53.9636 43.7636 52.5934 43.7636 50.9091V23.4182C43.7636 21.7339 42.3934 20.3636 40.7091 20.3636C39.0247 20.3636 37.6545 21.7339 37.6545 23.4182C37.6545 30.9642 31.5266 36.6545 23.4 36.6545C15.5399 36.6545 9.14545 30.2601 9.14545 22.4C9.14545 18.4237 10.7414 14.7349 13.6387 12.0123C14.8656 10.8579 14.9264 8.92082 13.7728 7.69391C13.2131 7.09929 12.4553 6.75718 11.64 6.73249C10.8018 6.70271 10.0481 7.00104 9.45548 7.55874C5.37589 11.3937 3.03611 16.8028 3.03611 22.4C3.03611 33.6287 12.171 42.7636 23.3997 42.7636C28.0065 42.7636 32.3656 41.2414 36.0048 38.3618C36.1878 38.2167 36.4116 38.1421 36.6363 38.1421Z" fill="#05294A"/>
<path d="M40.7089 54.9818C42.9583 54.9818 44.7817 53.1584 44.7817 50.9091C44.7817 48.6598 42.9583 46.8364 40.7089 46.8364C38.4596 46.8364 36.6362 48.6598 36.6362 50.9091C36.6362 53.1584 38.4596 54.9818 40.7089 54.9818Z" fill="#EEEFF1"/>
<path d="M40.709 56C37.9021 56 35.618 53.7159 35.618 50.9091C35.618 48.1022 37.9021 45.8182 40.709 45.8182C43.5158 45.8182 45.7999 48.1022 45.7999 50.9091C45.7999 53.7159 43.5158 56 40.709 56ZM40.709 47.8545C39.0246 47.8545 37.6544 49.2248 37.6544 50.9091C37.6544 52.5934 39.0246 53.9636 40.709 53.9636C42.3933 53.9636 43.7635 52.5934 43.7635 50.9091C43.7635 49.2248 42.3933 47.8545 40.709 47.8545Z" fill="#05294A"/>
<path d="M36.6362 41.7455C36.0734 41.7455 35.618 41.2902 35.618 40.7274V34.6183C35.618 34.0555 36.0734 33.6001 36.6362 33.6001C37.199 33.6001 37.6544 34.0555 37.6544 34.6183V40.7274C37.6544 41.2902 37.199 41.7455 36.6362 41.7455Z" fill="#05294A"/>
<path d="M51.909 1.01813C48.8545 1.01813 45.7999 8.14539 23.3999 9.16357C15.9186 9.16357 9.88689 15.3704 10.1735 22.9156C10.4324 29.7293 16.0706 35.3677 22.8845 35.6266C30.4297 35.9132 36.6365 29.8815 36.6365 22.4002C36.6365 21.0404 36.4301 19.7292 36.0493 18.4944L36.0508 18.4954C42.2429 18.1325 48.5457 14.4958 52.9277 8.14539C54.7352 5.52587 54.964 3.05449 53.9937 1.81358C53.5108 1.19682 52.6726 1.01813 51.909 1.01813Z" fill="#FE565B"/>
<path d="M23.4058 36.6545C23.219 36.6545 23.0329 36.6504 22.845 36.6436C15.4492 36.3631 9.4366 30.3505 9.15635 22.9549C9.00718 19.0382 10.4191 15.3305 13.1306 12.5145C15.843 9.69665 19.4901 8.14545 23.3999 8.14545C39.2752 7.42254 45.2162 3.58349 48.408 1.52142C49.7751 0.6384 50.7625 0 51.909 0C53.1896 0 54.1879 0.410581 54.7955 1.18618C56.1408 2.90742 55.7371 5.8665 53.7654 8.72403C49.5784 14.7914 43.6462 18.6284 37.3363 19.4009C37.5481 20.3842 37.6545 21.3887 37.6545 22.3997C37.6545 26.3093 36.1033 29.9567 33.2854 32.6691C30.6038 35.2515 27.1137 36.6545 23.4058 36.6545ZM51.909 2.03636C51.363 2.03636 50.5876 2.53756 49.5127 3.23145C46.1598 5.39916 39.9176 9.43192 23.4457 10.1808C20.0481 10.1818 16.922 11.5121 14.5973 13.9264C12.2735 16.3405 11.0634 19.5195 11.1907 22.8773C11.4274 29.1095 16.6901 34.3725 22.9227 34.6092C26.2834 34.7355 29.4594 33.5274 31.8735 31.2027C34.2876 28.8779 35.6181 25.7518 35.6181 22.4C35.6181 21.1751 35.4351 19.9619 35.0752 18.7946C34.9558 18.4049 35.0792 17.9813 35.3903 17.7179C35.5743 17.5618 35.8039 17.4791 36.0356 17.4763C42.0622 17.1065 48.0608 13.4056 52.0887 7.56687C53.6618 5.28792 53.8336 3.26352 53.1904 2.44109C52.9152 2.08905 52.2699 2.03636 51.909 2.03636Z" fill="#05294A"/>
<path d="M28.491 18.3273C28.491 18.3273 31.725 18.7491 36.0505 18.4956L28.491 18.3273Z" fill="#FFDED5"/>
<path d="M33.2357 19.5949C30.383 19.5949 28.4629 19.3503 28.3596 19.3363C27.8019 19.2638 27.4091 18.7537 27.4817 18.196C27.5542 17.6383 28.0613 17.2384 28.622 17.318C28.6528 17.3221 31.8206 17.7228 35.9908 17.4792C36.5516 17.4524 37.034 17.875 37.0668 18.4357C37.0996 18.9975 36.671 19.4789 36.1102 19.5117C35.0811 19.572 34.1138 19.5949 33.2357 19.5949Z" fill="#05294A"/>
<path d="M7.10807 14.2545C6.95483 14.2545 6.79981 14.2197 6.6537 14.1471L4.61734 13.1289C4.11411 12.8774 3.91047 12.2658 4.16196 11.7628C4.41345 11.2598 5.02512 11.0569 5.52811 11.3074L7.56447 12.3256C8.0677 12.5771 8.27134 13.1888 8.01985 13.6917C7.8409 14.0486 7.48199 14.2545 7.10807 14.2545Z" fill="#05294A"/>
<path d="M9.1455 37.6726C8.8851 37.6726 8.62444 37.5731 8.42564 37.3743C8.02804 36.9767 8.02804 36.3322 8.42564 35.9346L9.44382 34.9164C9.84142 34.5188 10.4859 34.5188 10.8835 34.9164C11.2811 35.314 11.2811 35.9585 10.8835 36.3561L9.86535 37.3743C9.66655 37.5731 9.4059 37.6726 9.1455 37.6726Z" fill="#05294A"/>
<path d="M23.4 43.7818C22.8372 43.7818 22.3818 43.3264 22.3818 42.7636V40.7273C22.3818 40.1645 22.8372 39.7091 23.4 39.7091C23.9628 39.7091 24.4182 40.1645 24.4182 40.7273V42.7636C24.4182 43.3264 23.9628 43.7818 23.4 43.7818Z" fill="#05294A"/>
<path d="M14.2363 23.4182C13.6735 23.4182 13.2181 22.9628 13.2181 22.4C13.2181 19.1625 14.7803 16.0881 17.3962 14.1759C17.8516 13.8427 18.487 13.9433 18.8192 14.3977C19.1503 14.851 19.0518 15.4884 18.5974 15.8206C16.5043 17.3509 15.2545 19.8098 15.2545 22.4C15.2545 22.9628 14.7991 23.4182 14.2363 23.4182Z" fill="#05294A"/>
</g>
<defs>
<clipPath id="clip0">
<rect width="56" height="56" fill="white"/>
</clipPath>
</defs>
</svg>
