<svg width="56" height="56" viewBox="0 0 56 56" fill="none" xmlns="http://www.w3.org/2000/svg">
<g clip-path="url(#clip0)">
<path d="M28.29 6.94299V25.442C28.29 29.8006 24.7436 33.3469 20.3851 33.3469H17.917C16.8755 33.3469 16.031 32.5025 16.031 31.461C16.031 30.4194 16.8755 29.575 17.917 29.575H20.3851C22.6638 29.575 24.518 27.7208 24.518 25.442V6.94299" fill="white"/>
<path d="M28.29 6.94299V25.442C28.29 29.8006 24.7436 33.3469 20.3851 33.3469H17.917C16.8755 33.3469 16.031 32.5025 16.031 31.461C16.031 30.4194 16.8755 29.575 17.917 29.575H20.3851C22.6638 29.575 24.518 27.7208 24.518 25.442V6.94299" fill="#007AFF" fill-opacity="0.4"/>
<path d="M20.385 34.29H17.9169C16.357 34.29 15.088 33.0209 15.088 31.461C15.088 29.901 16.357 28.632 17.9169 28.632H20.385C22.1439 28.632 23.5749 27.201 23.5749 25.442V6.943C23.5749 6.42223 23.9972 6 24.5179 6C25.0387 6 25.4609 6.42223 25.4609 6.943V25.442C25.4609 28.2411 23.1841 30.518 20.385 30.518H17.9169C17.3971 30.518 16.9739 30.9411 16.9739 31.461C16.9739 31.9808 17.3971 32.404 17.9169 32.404H20.385C24.2237 32.404 27.3469 29.2808 27.3469 25.442V6.943C27.3469 6.42223 27.7687 6 28.2899 6C28.8112 6 29.2329 6.42223 29.2329 6.943V25.442C29.2329 30.3209 25.2641 34.29 20.385 34.29Z" fill="#05294A"/>
<path d="M28.2899 6.94299V25.442C28.2899 29.8006 31.8363 33.3469 36.1948 33.3469H38.6629C39.7044 33.3469 40.5489 32.5025 40.5489 31.461C40.5489 30.4194 39.7044 29.575 38.6629 29.575H36.1948C33.9161 29.575 32.0619 27.7208 32.0619 25.442V6.94299" fill="#FE565B"/>
<path d="M38.6629 34.29H36.1948C31.316 34.29 27.3469 30.3209 27.3469 25.442V6.943C27.3469 6.42223 27.7687 6 28.2899 6C28.8112 6 29.2329 6.42223 29.2329 6.943V25.442C29.2329 29.2808 32.3557 32.404 36.1948 32.404H38.6629C39.1832 32.404 39.6059 31.9808 39.6059 31.461C39.6059 30.9411 39.1832 30.518 38.6629 30.518H36.1948C33.3963 30.518 31.1189 28.2411 31.1189 25.442V6.943C31.1189 6.42223 31.5407 6 32.0619 6C32.5832 6 33.0049 6.42223 33.0049 6.943V25.442C33.0049 27.201 34.4359 28.632 36.1948 28.632H38.6629C40.2229 28.632 41.4919 29.901 41.4919 31.461C41.4919 33.0209 40.2231 34.29 38.6629 34.29Z" fill="#05294A"/>
<path d="M20.7025 32.4619C20.7025 30.4833 19.8121 28.7293 18.4311 27.522C19.8121 26.3147 20.7025 24.5605 20.7025 22.5821C20.7025 18.9442 17.7538 15.9957 14.1162 15.9957C14.0032 15.9957 13.4596 15.9957 13.2929 15.9957C6.47245 15.9957 0.943176 23.3676 0.943176 32.4619C0.943176 41.5557 6.47221 48.9281 13.2929 48.9281H14.1162C17.7538 48.9281 20.7025 45.9791 20.7025 42.3417C20.7025 40.3631 19.8121 38.6091 18.4311 37.4018C19.8121 36.1945 20.7025 34.4403 20.7025 32.4619Z" fill="white"/>
<path d="M20.7025 32.4619C20.7025 30.4833 19.8121 28.7293 18.4311 27.522C19.8121 26.3147 20.7025 24.5605 20.7025 22.5821C20.7025 18.9442 17.7538 15.9957 14.1162 15.9957C14.0032 15.9957 13.4596 15.9957 13.2929 15.9957C6.47245 15.9957 0.943176 23.3676 0.943176 32.4619C0.943176 41.5557 6.47221 48.9281 13.2929 48.9281H14.1162C17.7538 48.9281 20.7025 45.9791 20.7025 42.3417C20.7025 40.3631 19.8121 38.6091 18.4311 37.4018C19.8121 36.1945 20.7025 34.4403 20.7025 32.4619Z" fill="#007AFF" fill-opacity="0.4"/>
<path d="M14.116 49.8711H13.2927C5.96329 49.8711 0 42.0614 0 32.4619C0 22.8624 5.96329 15.0527 13.2927 15.0527H14.116C18.2678 15.0527 21.6454 18.4301 21.6454 22.5821C21.6454 24.4 20.9695 26.1532 19.7643 27.5222C20.9692 28.8912 21.6454 30.644 21.6454 32.4619C21.6454 34.2798 20.9695 36.033 19.7643 37.4016C20.9692 38.771 21.6454 40.5238 21.6454 42.3417C21.6454 46.4937 18.268 49.8711 14.116 49.8711ZM13.2927 16.9387C7.00294 16.9387 1.886 23.9025 1.886 32.4619C1.886 41.0213 7.00294 47.9851 13.2927 47.9851H14.116C17.2276 47.9851 19.7594 45.4536 19.7594 42.3417C19.7594 40.736 19.0488 39.194 17.8102 38.1117C17.6053 37.9325 17.4879 37.6739 17.4879 37.4016C17.4879 37.1293 17.6053 36.8707 17.8106 36.6915C19.0488 35.6094 19.7594 34.0678 19.7594 32.4619C19.7594 30.8562 19.0488 29.3146 17.8102 28.2323C17.6053 28.0532 17.4879 27.7945 17.4879 27.5222C17.4879 27.25 17.6053 26.9913 17.8102 26.8122C19.0488 25.7296 19.7594 24.1876 19.7594 22.5821C19.7594 19.4704 17.2279 16.9387 14.116 16.9387H13.2927Z" fill="#05294A"/>
<path d="M35.2974 32.4619C35.2974 30.4833 36.1878 28.7293 37.5688 27.522C36.1878 26.3147 35.2974 24.5605 35.2974 22.5821C35.2974 18.9442 38.2461 15.9957 41.8837 15.9957H42.707C49.5274 15.9957 55.0567 23.3676 55.0567 32.4619C55.0567 41.5557 49.5277 48.9281 42.707 48.9281C42.5403 48.9281 41.9964 48.9281 41.8837 48.9281C38.2461 48.9281 35.2974 45.9791 35.2974 42.3417C35.2974 40.3631 36.1878 38.6091 37.5688 37.4018C36.1878 36.1945 35.2974 34.4403 35.2974 32.4619Z" fill="#FE565B"/>
<path d="M42.7068 49.8711H41.8836C37.7322 49.8711 34.3542 46.4937 34.3542 42.3417C34.3542 40.5238 35.0301 38.771 36.2355 37.4016C35.0301 36.0326 34.3542 34.2798 34.3542 32.4619C34.3542 30.6445 35.0301 28.8915 36.2355 27.5222C35.0301 26.1528 34.3542 24.4 34.3542 22.5821C34.3542 18.4303 37.732 15.0527 41.8836 15.0527H42.7068C50.0363 15.0527 56 22.8624 56 32.4619C56 42.0614 50.0363 49.8711 42.7068 49.8711ZM41.8836 16.9387C38.7719 16.9387 36.2402 19.4702 36.2402 22.5821C36.2402 24.1878 36.9512 25.7294 38.1898 26.8122C38.3942 26.9913 38.5121 27.25 38.5121 27.5222C38.5121 27.7945 38.3942 28.0532 38.1898 28.2323C36.9512 29.3154 36.2402 30.8569 36.2402 32.4619C36.2402 34.0676 36.9512 35.6092 38.1898 36.6915C38.3942 36.8707 38.5121 37.1293 38.5121 37.4016C38.5121 37.6739 38.3942 37.9325 38.1898 38.1117C36.9512 39.1947 36.2402 40.7363 36.2402 42.3417C36.2402 45.4534 38.7717 47.9851 41.8836 47.9851H42.7068C48.9966 47.9851 54.114 41.0213 54.114 32.4619C54.114 23.9025 48.9964 16.9387 42.7068 16.9387H41.8836Z" fill="#05294A"/>
<path d="M51.3639 28.8421C50.9384 28.8421 50.5527 28.5521 50.4485 28.1202C49.746 25.2087 48.2761 22.7491 46.4151 21.3709C45.9961 21.0612 45.9087 20.4704 46.218 20.0517C46.5292 19.6342 47.1186 19.5458 47.5368 19.8551C49.7811 21.5164 51.4653 24.2942 52.2812 27.6782C52.4038 28.1841 52.0924 28.694 51.586 28.8159C51.5113 28.8336 51.4377 28.8421 51.3639 28.8421Z" fill="#05294A"/>
</g>
<defs>
<clipPath id="clip0">
<rect width="56" height="56" fill="white"/>
</clipPath>
</defs>
</svg>
