<svg width="80" height="80" viewBox="0 0 80 80" fill="none" xmlns="http://www.w3.org/2000/svg">
<g clip-path="url(#clip0)">
<path d="M59.6143 20.6821C61.7165 23.0243 62.1292 26.4477 60.6429 29.228L59.3537 31.6406L56.0414 37.2591L44.0427 36.1889L48.7963 16.3966L59.5698 20.6365L59.6143 20.6821Z" fill="#007AFF"/>
<path d="M59.6143 20.6821C61.7165 23.0243 62.1292 26.4477 60.6429 29.228L59.3537 31.6406L56.0414 37.2591L44.0427 36.1889L48.7963 16.3966L59.5698 20.6365L59.6143 20.6821Z" fill="white" fill-opacity="0.6"/>
<path d="M32.2783 5.37554C31.4095 5.04541 30.4663 4.86548 29.4811 4.86548C25.0922 4.86548 21.5332 8.45469 21.5332 12.881C21.5332 13.0265 21.5379 13.1704 21.5456 13.3144C19.3783 13.898 17.7834 15.8913 17.7834 18.2601C17.7834 19.9092 18.5576 21.3752 19.7584 22.3124C18.7655 23.3419 18.1527 24.747 18.1527 26.2959C18.1527 28.5677 19.4667 30.5297 21.3719 31.4513L31.3085 37.2596L44.3947 10.3945L32.2783 5.37554Z" fill="#007AFF"/>
<path d="M32.2783 5.37554C31.4095 5.04541 30.4663 4.86548 29.4811 4.86548C25.0922 4.86548 21.5332 8.45469 21.5332 12.881C21.5332 13.0265 21.5379 13.1704 21.5456 13.3144C19.3783 13.898 17.7834 15.8913 17.7834 18.2601C17.7834 19.9092 18.5576 21.3752 19.7584 22.3124C18.7655 23.3419 18.1527 24.747 18.1527 26.2959C18.1527 28.5677 19.4667 30.5297 21.3719 31.4513L31.3085 37.2596L44.3947 10.3945L32.2783 5.37554Z" fill="white" fill-opacity="0.6"/>
<path d="M44.2589 58.6856L54.92 64.8003C58.3219 66.7515 60.4231 70.3945 60.4231 74.3415V77.2444C60.4231 78.1182 59.7208 78.8265 58.8544 78.8265H20.9897C20.1232 78.8265 19.4209 78.1182 19.4209 77.2444V74.3415C19.4209 70.3947 21.5221 66.7515 24.9241 64.8003L35.5851 58.6856L37.5278 57.5374H42.5815L44.2589 58.6856Z" fill="white"/>
<path opacity="0.4" d="M43.8367 58.1866L54.4971 64.5054C57.8989 66.5218 60 70.2865 60 74.3653V77.365C60 78.2681 59.2977 79 58.4313 79H20.5687C19.7023 79 19 78.2681 19 77.365V74.3653C19 70.2866 21.1011 66.5218 24.5029 64.5054L35.1633 58.1866L37.1059 57H42.1594L43.8367 58.1866Z" fill="#007AFF"/>
<path d="M44.3949 57.5797C44.3949 60.0709 42.3925 62.0903 39.9223 62.0903C37.4521 62.0903 35.4497 60.0709 35.4497 57.5797V47.3982H44.3949V57.5797Z" fill="#EEEFF1"/>
<path d="M28.7987 37.9616V39.376H23.2291C22.1369 39.376 21.1471 38.9285 20.4319 38.2073C19.7167 37.486 19.2729 36.4878 19.2729 35.3863C19.2729 33.8013 20.1883 32.4323 21.5132 31.7877C22.0329 31.5358 22.6147 31.395 23.2291 31.395H28.7987V37.9616Z" fill="#EEEFF1"/>
<path d="M56.9259 31.395C59.1103 31.395 60.882 33.1818 60.882 35.3863C60.882 36.4878 60.4383 37.486 59.7231 38.2073C59.0079 38.9286 58.0181 39.3761 56.9259 39.3761H51.2012V37.0886V31.395H56.9259Z" fill="#EEEFF1"/>
<path d="M38.2253 11.7148L30.246 14.2564L28.5627 15.6473C25.9626 17.7971 24.4546 21.0108 24.4546 24.4013V31.3951V37.9618C24.4546 44.7209 28.3099 50.8792 34.3635 53.7831L37.4322 55.2554C39.1062 56.0596 41.0501 56.0596 42.7241 55.2554L45.0093 54.1586C51.5408 51.0247 55.7001 44.3814 55.7001 37.0887V31.3951V24.1072L56.0414 18.9546L38.2253 11.7148Z" fill="#EEEFF1"/>
<path d="M55.6999 24.107C54.8823 24.4184 53.9964 24.5889 53.0703 24.5889C50.1691 24.5889 47.6574 22.9148 46.4286 20.474C45.3163 21.5129 43.8285 22.1497 42.1917 22.1497C39.1509 22.1497 36.6206 19.9545 36.0683 17.0491C35.865 17.0694 35.6587 17.0803 35.4493 17.0803C33.2742 17.0803 31.3613 15.957 30.2458 14.2562C29.5942 13.2627 29.2141 12.072 29.2141 10.7922C29.2141 8.48595 30.4444 6.47074 32.2782 5.37551C33.2075 4.82008 34.2919 4.50246 35.4493 4.50246C35.7394 4.50246 36.0248 4.52437 36.3041 4.56348C36.8766 2.60303 38.6731 1.17297 40.8016 1.17297C42.5594 1.17297 44.0891 2.14772 44.8927 3.59029C45.8236 2.99731 46.9266 2.65466 48.1088 2.65466C51.4444 2.65466 54.1485 5.38177 54.1485 8.74568C54.1485 9.05078 54.1252 9.34962 54.0833 9.64376C57.7152 10.1413 60.5155 13.2799 60.5155 17.0803C60.5155 18.3837 60.1866 19.6088 59.6079 20.6758C58.7593 22.242 57.3723 23.4702 55.6999 24.107Z" fill="#007AFF"/>
<path d="M55.6999 24.107C54.8823 24.4184 53.9964 24.5889 53.0703 24.5889C50.1691 24.5889 47.6574 22.9148 46.4286 20.474C45.3163 21.5129 43.8285 22.1497 42.1917 22.1497C39.1509 22.1497 36.6206 19.9545 36.0683 17.0491C35.865 17.0694 35.6587 17.0803 35.4493 17.0803C33.2742 17.0803 31.3613 15.957 30.2458 14.2562C29.5942 13.2627 29.2141 12.072 29.2141 10.7922C29.2141 8.48595 30.4444 6.47074 32.2782 5.37551C33.2075 4.82008 34.2919 4.50246 35.4493 4.50246C35.7394 4.50246 36.0248 4.52437 36.3041 4.56348C36.8766 2.60303 38.6731 1.17297 40.8016 1.17297C42.5594 1.17297 44.0891 2.14772 44.8927 3.59029C45.8236 2.99731 46.9266 2.65466 48.1088 2.65466C51.4444 2.65466 54.1485 5.38177 54.1485 8.74568C54.1485 9.05078 54.1252 9.34962 54.0833 9.64376C57.7152 10.1413 60.5155 13.2799 60.5155 17.0803C60.5155 18.3837 60.1866 19.6088 59.6079 20.6758C58.7593 22.242 57.3723 23.4702 55.6999 24.107Z" fill="white" fill-opacity="0.6"/>
<path d="M77.3798 2.14614L68.9525 6.59119C68.7477 6.69915 68.7275 6.98547 68.9137 7.12316L70.5427 8.32791C70.6963 8.44056 70.7149 8.66586 70.5815 8.80198L65.6449 13.8604C65.4029 14.1076 65.6806 14.5097 65.9955 14.3673L76.4722 9.63435C76.6894 9.53578 76.722 9.24007 76.5327 9.09613L74.8494 7.81158C74.7207 7.71301 74.6865 7.52995 74.7734 7.39227L77.7878 2.59361C77.96 2.32137 77.6637 1.9975 77.3798 2.14614Z" fill="#FE565B"/>
<path d="M2.62014 2.14614L11.0474 6.59119C11.2522 6.69915 11.2724 6.98547 11.0862 7.12316L9.45723 8.32791C9.30364 8.44056 9.28502 8.66586 9.41845 8.80198L14.3551 13.8604C14.5971 14.1076 14.3194 14.5097 14.0044 14.3673L3.52772 9.63435C3.31052 9.53578 3.27794 9.24007 3.46721 9.09613L5.1505 7.81158C5.27927 7.71301 5.3134 7.52995 5.22652 7.39227L2.21211 2.59361C2.03991 2.32137 2.33623 1.9975 2.62014 2.14614Z" fill="#FE565B"/>
<path d="M55.4954 63.7804L54.8173 63.3915C54.2584 63.0715 53.5484 63.268 53.2305 63.8314C52.9127 64.3949 53.1081 65.1113 53.6667 65.4317L54.3449 65.8207C57.3765 67.5594 59.2599 70.8245 59.2599 74.3418V78.8266C59.2599 79.4748 59.7807 80.0001 60.4235 80.0001C61.0662 80.0001 61.587 79.4748 61.587 78.8266V74.3418C61.5869 69.9822 59.2526 65.9354 55.4954 63.7804Z" fill="#05294A"/>
<path d="M60.9769 20.5108C61.4277 19.4579 61.6788 18.2984 61.6788 17.0805C61.6788 13.1327 59.0085 9.70511 55.3125 8.69907C55.2874 4.71463 52.0656 1.48075 48.1088 1.48075C47.1218 1.48075 46.1528 1.68399 45.2562 2.07451C44.1552 0.773855 42.531 0 40.8021 0C38.5493 0 36.501 1.33039 35.5349 3.3298C34.3262 3.31478 33.1842 3.59547 32.1719 4.10162C31.3036 3.83079 30.4014 3.69169 29.4816 3.69169C28.2744 3.69169 27.0995 3.92732 25.9897 4.39217C25.3962 4.64079 25.1148 5.32749 25.3612 5.92595C25.547 6.3775 25.98 6.64974 26.4363 6.64974C26.5849 6.64974 26.7362 6.6208 26.882 6.55978C27.7075 6.214 28.5822 6.03876 29.4816 6.03876C29.5688 6.03876 29.6553 6.04252 29.7421 6.0458C28.6857 7.33692 28.0504 8.99102 28.0504 10.7917C28.0504 11.9283 28.3039 13.0061 28.7565 13.9712L27.8259 14.7403C24.9438 17.1224 23.291 20.6438 23.291 24.4018V30.2223H23.2297C22.7667 30.2223 22.3185 30.2857 21.8917 30.4024C21.8858 30.3994 21.8806 30.3958 21.8747 30.393C20.3202 29.6415 19.3159 28.0336 19.3159 26.2964C19.3159 25.1079 19.7694 23.9839 20.5926 23.131C20.8239 22.8915 20.9429 22.5637 20.9195 22.23C20.8962 21.8964 20.7328 21.5886 20.4703 21.3841C19.5021 20.6292 18.9468 19.4905 18.9468 18.2599C18.9468 16.4758 20.139 14.9081 21.846 14.4476C22.3772 14.3043 22.7363 13.8055 22.7072 13.2515C22.7002 13.12 22.6969 12.9991 22.6969 12.8813C22.6969 11.6313 23.0342 10.4086 23.6723 9.34509C24.0051 8.7906 23.829 8.06916 23.2792 7.73355C22.7297 7.39825 22.0142 7.57521 21.6812 8.13002C20.8909 9.44711 20.4438 10.9447 20.3783 12.4845C18.1266 13.4683 16.6199 15.7274 16.6199 18.2598C16.6199 19.8155 17.1757 21.2788 18.1745 22.4176C17.404 23.5533 16.9888 24.8953 16.9888 26.2962C16.9888 28.4307 17.9884 30.436 19.6209 31.7265C18.6881 32.6623 18.1094 33.9572 18.1094 35.3858C18.1094 38.2331 20.4064 40.5496 23.2297 40.5496H23.4726C23.6253 41.6508 23.8718 42.7376 24.2179 43.7995C24.379 44.2934 24.8342 44.6067 25.3232 44.6067C25.4436 44.6067 25.5661 44.5877 25.6868 44.5477C26.2973 44.3452 26.6295 43.682 26.4287 43.0663C25.8907 41.4164 25.6179 39.6988 25.6179 37.9608V24.4016C25.6179 21.3497 26.9602 18.4899 29.3008 16.5554L30.0762 15.9146C31.3687 17.2925 33.174 18.1765 35.1813 18.2491C36.1811 21.2416 38.9867 23.3235 42.1922 23.3235C43.5916 23.3235 44.9436 22.9279 46.1106 22.1915C47.7154 24.4226 50.2765 25.7624 53.0701 25.7624C53.5703 25.7624 54.0598 25.7167 54.5368 25.6338V37.0881C54.5368 43.8913 50.6009 50.1761 44.5094 53.0994L42.2234 54.1966C40.8594 54.8513 39.2951 54.8513 37.9314 54.1966L34.8635 52.7243C32.3467 51.5166 30.1686 49.6599 28.5641 47.3551C28.195 46.8248 27.4696 46.6967 26.9432 47.0689C26.4172 47.4413 26.2902 48.1732 26.6594 48.7036C28.494 51.3392 30.9852 53.4622 33.8636 54.8436L34.2862 55.0464V57.5799C34.2862 57.7445 34.2947 57.9073 34.3084 58.0684L24.3492 63.7806C20.5918 65.9356 18.2575 69.9826 18.2575 74.3419V78.8267C18.2575 79.4749 18.7784 80.0002 19.4211 80.0002C20.0639 80.0002 20.5847 79.4749 20.5847 78.8267V74.3419C20.5847 70.8247 22.4681 67.5595 25.4997 65.8207L35.0118 60.3649C35.9795 62.0937 37.8173 63.264 39.9223 63.264C42.0273 63.264 43.8651 62.0935 44.8329 60.3648L49.3439 62.952C49.5256 63.0562 49.7231 63.1055 49.9181 63.1055C50.3229 63.1055 50.7163 62.8923 50.9305 62.5121C51.2483 61.9486 51.053 61.2322 50.4943 60.9118L45.5363 58.0681C45.5499 57.9069 45.5585 57.7444 45.5585 57.5796V55.1938C48.9399 53.5595 51.7849 51.0078 53.7878 47.8097C55.1827 45.5825 56.1207 43.118 56.5658 40.5496H56.9252C59.7485 40.5496 62.0455 38.2331 62.0455 35.3858C62.0455 33.9891 61.4918 32.7208 60.5954 31.7903L61.6671 29.7853C63.2564 26.8121 62.9629 23.1856 60.9769 20.5108ZM23.2295 38.2029C21.6893 38.2029 20.4364 36.9393 20.4364 35.386C20.4364 33.8326 21.6893 32.569 23.2295 32.569H23.2908C23.2908 32.569 23.2945 38.1222 23.2956 38.2029H23.2295ZM39.9223 60.9169C38.0977 60.9169 36.6133 59.4199 36.6133 57.5798V56.163L36.9316 56.3157C37.9312 56.7954 39.0043 57.0355 40.0775 57.0355C41.1507 57.0355 42.2238 56.7956 43.2234 56.3157L43.2313 56.312V57.5798C43.2313 59.4198 41.7468 60.9169 39.9223 60.9169ZM47.467 19.9423C47.3019 19.6141 46.9934 19.3832 46.6342 19.3185C46.5661 19.3062 46.4975 19.3002 46.4296 19.3002C46.1387 19.3002 45.8556 19.4102 45.6385 19.613C44.6979 20.4923 43.4741 20.9765 42.1923 20.9765C39.7625 20.9765 37.6679 19.2323 37.212 16.8289C37.0989 16.2327 36.5529 15.8221 35.9547 15.8816C35.785 15.8985 35.6151 15.9071 35.4496 15.9071C32.6528 15.9071 30.3774 13.6123 30.3774 10.7917C30.3774 7.97121 32.6528 5.6764 35.4496 5.6764C35.6748 5.6764 35.9093 5.69298 36.1459 5.72569C36.7146 5.8036 37.257 5.45141 37.4199 4.89519C37.8589 3.39473 39.2496 2.34691 40.802 2.34691C42.0746 2.34691 43.2537 3.04363 43.8786 4.1653C44.0348 4.44552 44.2981 4.64892 44.6071 4.72793C44.9159 4.80648 45.2438 4.75453 45.5135 4.58289C46.2906 4.08879 47.1879 3.82766 48.1088 3.82766C50.7979 3.82766 52.9856 6.03391 52.9856 8.74585C52.9856 8.98633 52.9677 9.23056 52.9322 9.47151C52.8866 9.78162 52.9662 10.0974 53.1528 10.3482C53.3396 10.599 53.6181 10.7639 53.9262 10.8063C57.0192 11.2309 59.3516 13.9283 59.3516 17.0808C59.3516 20.5738 56.5338 23.4156 53.0703 23.4156C50.6924 23.4153 48.5454 22.0846 47.467 19.9423ZM59.6168 22.7089C60.594 24.5404 60.6264 26.7864 59.6186 28.6719L58.6318 30.5182C58.0976 30.3271 57.5234 30.2221 56.9252 30.2221H56.8639V24.8712C57.9225 24.3448 58.858 23.6054 59.6168 22.7089ZM56.9252 38.2029H56.8304C56.8508 37.8322 56.8641 32.569 56.8641 32.569H56.9254C58.4656 32.569 59.7186 33.8326 59.7186 35.386C59.7186 36.9393 58.4655 38.2029 56.9252 38.2029Z" fill="#05294A"/>
<path d="M76.7623 18.2859C76.7572 18.2859 76.7521 18.2859 76.7466 18.286L71.4229 18.3563C71.0574 18.361 70.715 18.539 70.4992 18.8366C70.2834 19.1342 70.2186 19.5171 70.3247 19.8699L70.5723 20.6938L65.9083 20.7182C65.2657 20.7215 64.7475 21.2497 64.7507 21.8978C64.754 22.5438 65.2744 23.0651 65.9142 23.0651H65.9204L72.1443 23.0324C72.5116 23.0304 72.8566 22.8538 73.0746 22.5557C73.2925 22.2576 73.3583 21.8732 73.2519 21.5185L73.0006 20.6824L76.7773 20.6325C77.4199 20.624 77.9339 20.0919 77.9254 19.4437C77.917 18.8011 77.3978 18.2859 76.7623 18.2859Z" fill="#05294A"/>
<path d="M14.247 20.7184L9.58294 20.694L9.83054 19.8701C9.93666 19.5171 9.87197 19.1344 9.65601 18.8368C9.44005 18.5392 9.09781 18.3612 8.7323 18.3565L3.40861 18.2862C3.40333 18.2861 3.39821 18.2861 3.39294 18.2861C2.75748 18.2861 2.23822 18.8015 2.22984 19.444C2.22131 20.0923 2.73545 20.6244 3.37789 20.6328L7.15466 20.6827L6.90333 21.5189C6.79675 21.8736 6.86253 22.258 7.08066 22.556C7.29879 22.8541 7.64367 23.0307 8.01089 23.0328L14.2349 23.0655H14.2411C14.8809 23.0655 15.4012 22.5441 15.4045 21.8981C15.4077 21.2499 14.8894 20.7217 14.247 20.7184Z" fill="#05294A"/>
<path d="M34.5976 46.4747L35.5077 45.7152L36.8931 46.6953C37.5953 47.1922 38.5604 47.1248 39.1878 46.5349L39.9221 45.8448L40.6564 46.5349C41.003 46.8608 41.4526 47.0271 41.9039 47.0271C42.2696 47.0271 42.6368 46.9179 42.9511 46.6954L44.3365 45.7154L45.2466 46.4748C45.7418 46.8882 46.4753 46.8183 46.8849 46.3191C47.2947 45.8199 47.2254 45.0801 46.7305 44.6668L45.5261 43.6617C44.8942 43.1341 43.9836 43.0978 43.3123 43.5729L41.9464 44.5392L41.1674 43.807C40.469 43.151 39.3749 43.1511 38.6765 43.8072L37.8975 44.5392L36.5319 43.5731C35.8602 43.0978 34.9501 43.1342 34.3178 43.6617L33.1135 44.6668C32.6186 45.0801 32.5493 45.8197 32.9592 46.3191C33.3691 46.8184 34.1026 46.888 34.5976 46.4747Z" fill="#05294A"/>
<path d="M78.6103 1.41687C78.159 0.922614 77.4311 0.795098 76.8413 1.1063L68.4137 5.55104C67.9592 5.79089 67.6649 6.24197 67.6265 6.75767C67.5878 7.27352 67.8117 7.76386 68.2255 8.0699L69.0609 8.6873L64.8159 13.0371C64.3105 13.5551 64.2447 14.3335 64.656 14.9302C64.9422 15.3453 65.3903 15.5728 65.8578 15.5727C66.0623 15.5727 66.2707 15.5292 66.4707 15.4389L76.9488 10.705C77.4221 10.4911 77.7527 10.0354 77.8114 9.51544C77.8702 8.99568 77.6496 8.47639 77.2356 8.16034L76.1766 7.35237L78.772 3.22087C79.1281 2.65291 79.0617 1.91113 78.6103 1.41687ZM74.1472 8.74706L74.6839 9.15637L69.6475 11.4316L71.4098 9.62591C71.7107 9.31783 71.8639 8.89383 71.8294 8.46262C71.7951 8.03141 71.5772 7.63744 71.231 7.38132L70.7037 6.99157L75.1069 4.66923L73.791 6.76424C73.3836 7.41292 73.5402 8.28394 74.1472 8.74706Z" fill="#05294A"/>
<path d="M10.939 8.68716L11.7746 8.06961C12.1882 7.76373 12.412 7.27338 12.3734 6.75753C12.3349 6.24183 12.0405 5.79076 11.5859 5.55075L3.15861 1.10616C2.56845 0.795117 1.84068 0.922476 1.38953 1.41689C0.938221 1.91115 0.87182 2.65293 1.22834 3.2212L3.82355 7.35224L2.76424 8.16051C2.35063 8.47641 2.13002 8.99554 2.18882 9.51531C2.24746 10.0351 2.57807 10.4908 3.05156 10.705L13.5294 15.4386C13.7293 15.529 13.9377 15.5725 14.1423 15.5725C14.6099 15.5725 15.0581 15.345 15.3442 14.9301C15.7553 14.3335 15.6897 13.555 15.1843 13.0369L10.939 8.68716ZM5.31585 9.15638L5.85233 8.74708C6.45956 8.28396 6.6161 7.41294 6.20869 6.76394L4.89294 4.66924L9.29617 6.99159L8.76869 7.38149C8.42272 7.63746 8.20459 8.03143 8.17046 8.46264C8.13602 8.89384 8.28915 9.31785 8.5895 9.6253L10.3524 11.4316L5.31585 9.15638Z" fill="#05294A"/>
</g>
<defs>
<clipPath id="clip0">
<rect width="80" height="80" fill="white"/>
</clipPath>
</defs>
</svg>
