<svg width="80" height="80" viewBox="0 0 80 80" fill="none" xmlns="http://www.w3.org/2000/svg">
<path d="M43.1114 54.1111C42.0852 54.2263 41.0473 54.2868 40 54.2868C18.7716 54.2868 1.5625 29.4246 1.5625 29.4246C1.5625 29.4246 18.7714 4.56238 39.9998 4.56238C61.2283 4.56238 78.4373 29.4246 78.4373 29.4246C78.4373 29.4246 74.3159 35.3788 67.6191 41.4596" fill="#F7F9FA"/>
<path opacity="0.4" d="M39.9999 47.0832C49.7525 47.0832 57.6585 39.1772 57.6585 29.4246C57.6585 19.672 49.7525 11.766 39.9999 11.766C30.2473 11.766 22.3413 19.672 22.3413 29.4246C22.3413 39.1772 30.2473 47.0832 39.9999 47.0832Z" fill="#007AFF"/>
<g opacity="0.4">
<path d="M39.9999 38.2377C44.8673 38.2377 48.813 34.2919 48.813 29.4246C48.813 24.5572 44.8673 20.6115 39.9999 20.6115C35.1325 20.6115 31.1868 24.5572 31.1868 29.4246C31.1868 34.2919 35.1325 38.2377 39.9999 38.2377Z" fill="#007AFF"/>
</g>
<g opacity="0.4">
<path d="M49.6495 21.077C51.336 19.3905 51.3359 16.6562 49.6495 14.9698C47.9631 13.2834 45.2288 13.2834 43.5423 14.9698C41.8559 16.6562 41.8559 19.3905 43.5423 21.077C45.2288 22.7634 47.9631 22.7634 49.6495 21.077Z" fill="#007AFF"/>
</g>
<path d="M60.7743 76.0967C70.5293 76.0967 78.4373 68.1254 78.4373 58.2924C78.4373 48.4593 70.5293 40.488 60.7743 40.488C51.0193 40.488 43.1113 48.4593 43.1113 58.2924C43.1113 68.1254 51.0193 76.0967 60.7743 76.0967Z" fill="#F7F9FA"/>
<path d="M67.8679 54.6852H64.3517V51.1385C64.3517 50.1369 63.5461 49.3249 62.5525 49.3249H58.9965C58.0028 49.3249 57.1973 50.1369 57.1973 51.1385V54.6852H53.6811C52.6875 54.6852 51.8818 55.4972 51.8818 56.4988V60.0858C51.8818 61.0874 52.6873 61.8994 53.6811 61.8994H57.1973V65.4461C57.1973 66.4477 58.0028 67.2597 58.9965 67.2597H62.5525C63.5461 67.2597 64.3517 66.4477 64.3517 65.4461V61.8994H67.8679C68.8617 61.8994 69.6671 61.0874 69.6671 60.0858V56.4988C69.6671 55.4972 68.8615 54.6852 67.8679 54.6852Z" fill="#FE565B"/>
<path d="M57.3529 27.892C56.7208 28.0203 56.2246 28.5339 56.1169 29.1695C56.0097 29.8025 56.321 30.4584 56.8779 30.7769C57.4522 31.1053 58.1891 31.0369 58.6879 30.5992C59.1722 30.1742 59.346 29.4775 59.12 28.8744C58.856 28.1692 58.0916 27.7429 57.3529 27.892Z" fill="#05294A"/>
<path d="M70.0501 41.3321C75.9806 35.6834 79.5618 30.5454 79.7221 30.3139C80.0924 29.7789 80.0924 29.0704 79.7221 28.5353C79.5421 28.2753 75.2337 22.0953 68.2204 15.8284C64.0807 12.1294 59.8575 9.17702 55.6679 7.05343C50.3612 4.36375 45.0897 3 39.9998 3C34.91 3 29.6385 4.3639 24.3319 7.05343C20.1424 9.17686 15.9191 12.1292 11.7794 15.8284C4.76601 22.0953 0.457733 28.2753 0.277734 28.5353C-0.0925779 29.0703 -0.0925779 29.7787 0.277734 30.3139C0.457733 30.5738 4.76616 36.7538 11.7794 43.0207C15.9191 46.7199 20.1424 49.6722 24.3319 51.7957C29.6386 54.4854 34.91 55.8491 39.9998 55.8491C40.5645 55.8491 41.1353 55.8321 41.7075 55.7985C41.6028 56.6151 41.5487 57.4474 41.5487 58.2921C41.5487 68.971 50.1733 77.6589 60.7743 77.6589C71.3753 77.6591 79.9998 68.9711 79.9998 58.2922C79.9998 50.9991 75.9773 44.6348 70.0501 41.3321ZM39.9998 52.7241C29.548 52.7241 20.0446 46.2049 13.9127 40.736C8.67772 36.0671 4.93413 31.3407 3.49648 29.424C4.9271 27.5153 8.64272 22.822 13.8616 18.1586C20.005 12.6689 29.5269 6.12499 39.9998 6.12499C50.4517 6.12499 59.9551 12.6442 66.087 18.1131C71.322 22.782 75.0656 27.5084 76.5032 29.4251C75.1484 31.2331 71.7434 35.5393 66.9529 39.9512C65.0129 39.2862 62.9346 38.9254 60.7743 38.9254C59.2764 38.9254 57.8181 39.099 56.4178 39.427C56.8633 38.696 57.2632 37.9298 57.6131 37.1312C57.9595 36.3407 57.5993 35.4193 56.809 35.0731C56.0195 34.7271 55.0972 35.0867 54.7509 35.8773C52.1842 41.7355 46.3942 45.5209 39.9998 45.5209C31.1244 45.5209 23.9038 38.3002 23.9038 29.4248C23.9038 20.5495 31.1244 13.3287 39.9998 13.3287C40.937 13.3287 41.8614 13.4101 42.7645 13.5675C41.5141 14.6469 40.7214 16.2428 40.7214 18.0204C40.7214 18.3825 40.7544 18.7368 40.8173 19.0809C40.5477 19.0598 40.2752 19.049 40 19.049C34.2789 19.049 29.6244 23.7036 29.6244 29.4246C29.6244 35.1457 34.2789 39.8002 40 39.8002C45.7211 39.8002 50.3756 35.1457 50.3756 29.4246C50.3756 27.2531 49.705 25.2353 48.5601 23.5673C50.5045 22.8793 51.9826 21.1962 52.3792 19.1331C53.3267 20.2714 54.1261 21.5515 54.7414 22.9501C55.0889 23.74 56.0112 24.0984 56.8007 23.7512C57.5907 23.4037 57.9493 22.4817 57.6018 21.6918C54.5317 14.7128 47.6225 10.2036 39.9998 10.2036C29.4014 10.2036 20.7788 18.8261 20.7788 29.4246C20.7788 40.0232 29.4014 48.6455 39.9998 48.6455C41.5066 48.6455 42.9851 48.4694 44.4117 48.1332C43.5597 49.5207 42.8767 51.024 42.3917 52.6138C41.5908 52.6871 40.7886 52.7241 39.9998 52.7241ZM47.2506 29.4245C47.2506 33.4224 43.9981 36.6751 40 36.6751C36.0019 36.6751 32.7494 33.4224 32.7494 29.4245C32.7494 25.4265 36.0019 22.1739 40 22.1739C43.9981 22.1739 47.2506 25.4265 47.2506 29.4245ZM46.603 20.777C45.083 20.777 43.8462 19.5403 43.8462 18.0203C43.8462 16.5003 45.0828 15.2636 46.603 15.2636C48.1231 15.2636 49.3597 16.5003 49.3597 18.0203C49.3597 19.5403 48.1231 20.777 46.603 20.777ZM60.7743 74.5341C51.8965 74.5341 44.6737 67.248 44.6737 58.2922C44.6737 49.3365 51.8965 42.0502 60.7743 42.0502C69.6521 42.0502 76.8748 49.3363 76.8748 58.2922C76.8748 67.2482 69.6523 74.5341 60.7743 74.5341Z" fill="#05294A"/>
<path d="M67.8679 53.1226H65.9141V51.1384C65.9141 49.2769 64.406 47.7623 62.5522 47.7623H58.9964C57.1428 47.7623 55.6346 49.2769 55.6346 51.1384V53.1226H53.6808C51.8272 53.1226 50.3191 54.6372 50.3191 56.4987V60.0858C50.3191 61.9475 51.8271 63.4619 53.6808 63.4619H55.6346V65.4461C55.6346 67.3078 57.1427 68.8222 58.9964 68.8222H62.5522C64.4058 68.8222 65.9141 67.3076 65.9141 65.4461V63.4619H67.8679C69.7216 63.4619 71.2297 61.9473 71.2297 60.0858V56.4987C71.2296 54.6372 69.7216 53.1226 67.8679 53.1226ZM68.1046 60.0858C68.1046 60.2242 67.9983 60.3369 67.8677 60.3369H64.3514C63.4886 60.3369 62.7889 61.0364 62.7889 61.8994V65.4461C62.7889 65.5845 62.6827 65.6972 62.5521 65.6972H58.9963C58.8657 65.6972 58.7594 65.5845 58.7594 65.4461V61.8994C58.7594 61.0364 58.0597 60.3369 57.1969 60.3369H53.6807C53.5502 60.3369 53.4439 60.2242 53.4439 60.0858V56.4987C53.4439 56.3603 53.5502 56.2476 53.6807 56.2476H57.1969C58.0597 56.2476 58.7594 55.5481 58.7594 54.6851V51.1384C58.7594 51 58.8657 50.8873 58.9963 50.8873H62.5521C62.6827 50.8873 62.7889 51 62.7889 51.1384V54.6851C62.7889 55.5481 63.4886 56.2476 64.3514 56.2476H67.8677C67.9983 56.2476 68.1046 56.3603 68.1046 56.4987V60.0858Z" fill="#05294A"/>
</svg>
