<svg width="56" height="56" viewBox="0 0 56 56" fill="none" xmlns="http://www.w3.org/2000/svg">
<g clip-path="url(#clip0)">
<path d="M23.0273 36.5006C23.0273 36.5472 23.0294 36.5928 23.0334 36.6375C23.0294 36.7202 23.0273 36.8034 23.0273 36.887C23.0273 39.7477 25.3464 42.0668 28.2071 42.0668C30.4728 42.0668 32.3987 40.6121 33.1019 38.5857C33.6727 38.8023 34.2918 38.9209 34.9385 38.9209C37.7992 38.9209 40.1183 36.6018 40.1183 33.741C40.1183 33.1875 40.0314 32.6543 39.8707 32.1543C39.9055 32.0703 40.147 31.8496 40.5422 31.5278C46.4321 26.734 46.4336 17.7672 40.5469 12.9711C40.8657 12.299 41.0441 11.5474 41.0441 10.7541C41.0441 7.89336 38.7251 5.57418 35.8644 5.57418C35.178 5.57418 34.523 5.70772 33.9236 5.9501C33.7313 5.93938 33.5349 5.93391 33.3345 5.93391H33.3171C33.297 5.93391 33.2234 5.92713 33.1041 5.91575C32.4028 3.88608 30.4752 2.42822 28.2071 2.42822C25.3464 2.42822 23.0273 4.7473 23.0273 7.60811C23.0273 7.69178 23.0294 7.77491 23.0334 7.8576C23.0294 7.90233 23.0273 7.94794 23.0273 7.99453" fill="white"/>
<path d="M23.0273 36.5006C23.0273 36.5472 23.0294 36.5928 23.0334 36.6375C23.0294 36.7202 23.0273 36.8034 23.0273 36.887C23.0273 39.7477 25.3464 42.0668 28.2071 42.0668C30.4728 42.0668 32.3987 40.6121 33.1019 38.5857C33.6727 38.8023 34.2918 38.9209 34.9385 38.9209C37.7992 38.9209 40.1183 36.6018 40.1183 33.741C40.1183 33.1875 40.0314 32.6543 39.8707 32.1543C39.9055 32.0703 40.147 31.8496 40.5422 31.5278C46.4321 26.734 46.4336 17.7672 40.5469 12.9711C40.8657 12.299 41.0441 11.5474 41.0441 10.7541C41.0441 7.89336 38.7251 5.57418 35.8644 5.57418C35.178 5.57418 34.523 5.70772 33.9236 5.9501C33.7313 5.93938 33.5349 5.93391 33.3345 5.93391H33.3171C33.297 5.93391 33.2234 5.92713 33.1041 5.91575C32.4028 3.88608 30.4752 2.42822 28.2071 2.42822C25.3464 2.42822 23.0273 4.7473 23.0273 7.60811C23.0273 7.69178 23.0294 7.77491 23.0334 7.8576C23.0294 7.90233 23.0273 7.94794 23.0273 7.99453" fill="#007AFF" fill-opacity="0.4"/>
<path d="M23.0272 7.99461C23.0272 7.94802 23.0252 7.90241 23.0212 7.85767C23.0252 7.77498 23.0272 7.69186 23.0272 7.60819C23.0272 4.74748 20.7082 2.42841 17.8473 2.42841C15.5816 2.42841 13.6558 3.88309 12.9526 5.90948C12.3818 5.69292 11.7627 5.57447 11.116 5.57447C8.25526 5.57447 5.93618 7.89355 5.93618 10.7544C5.93618 11.3078 6.02303 11.841 6.18381 12.3411C6.14892 12.4251 5.90742 12.6458 5.51225 12.9676C-0.377596 17.7614 -0.379127 26.7281 5.50744 31.5242C5.18861 32.1963 5.01022 32.948 5.01022 33.7413C5.01022 36.602 7.32929 38.9212 10.19 38.9212C10.8763 38.9212 11.5314 38.7876 12.1307 38.5452C12.323 38.556 12.5195 38.5614 12.7198 38.5614H12.7372C12.7574 38.5613 12.831 38.5682 12.9503 38.5796C13.6516 40.6094 15.5791 42.0671 17.8472 42.0671C20.7079 42.0671 23.0271 39.748 23.0271 36.8872C23.0271 36.8035 23.025 36.7204 23.0211 36.6377C23.025 36.593 23.0271 36.5474 23.0271 36.5008" fill="#FE565B"/>
<path d="M41.8908 53.5717C49.079 53.5717 54.9063 47.6978 54.9063 40.4519C54.9063 33.2061 49.079 27.3322 41.8908 27.3322C34.7025 27.3322 28.8752 33.2061 28.8752 40.4519C28.8752 47.6978 34.7025 53.5717 41.8908 53.5717Z" fill="#EEEFF1"/>
<path d="M47.1179 37.7938H44.5268V35.1803C44.5268 34.4423 43.9332 33.8439 43.2009 33.8439H40.5807C39.8485 33.8439 39.2549 34.4422 39.2549 35.1803V37.7938H36.6638C35.9315 37.7938 35.338 38.3922 35.338 39.1303V41.7736C35.338 42.5116 35.9315 43.11 36.6638 43.11H39.2549V45.7235C39.2549 46.4616 39.8485 47.06 40.5807 47.06H43.2009C43.9331 47.06 44.5268 46.4617 44.5268 45.7235V43.11H47.1179C47.8501 43.11 48.4437 42.5116 48.4437 41.7736V39.1303C48.4436 38.3922 47.85 37.7938 47.1179 37.7938Z" fill="#FE565B"/>
<path d="M11.3993 18.453C9.69078 18.453 8.20536 19.428 7.52275 20.9974C6.8444 22.5568 7.14146 24.2963 8.29756 25.5368C8.35586 25.5993 8.41547 25.661 8.47628 25.722C8.68989 25.9356 8.96978 26.0423 9.24967 26.0423C9.52956 26.0423 9.80956 25.9356 10.0231 25.722C10.4502 25.2948 10.4502 24.6023 10.0231 24.1751C9.9804 24.1325 9.93873 24.0894 9.89783 24.0455C9.33618 23.4428 9.19815 22.6295 9.52847 21.8699C9.86337 21.1 10.5627 20.6404 11.3991 20.6404C12.0032 20.6404 12.4929 20.1507 12.4929 19.5466C12.4931 18.9427 12.0034 18.453 11.3993 18.453Z" fill="#05294A"/>
<path d="M34.6553 20.6405C35.4917 20.6405 36.1911 21.1001 36.526 21.87C36.8564 22.6296 36.7184 23.4429 36.1561 24.0461C36.1154 24.0897 36.0736 24.1329 36.031 24.1755C35.6042 24.6028 35.6045 25.2954 36.0318 25.7223C36.2454 25.9356 36.5251 26.0422 36.8048 26.0422C37.0849 26.0422 37.365 25.9352 37.5786 25.7214C37.6394 25.6605 37.6991 25.5988 37.7568 25.5369C38.9131 24.2961 39.2101 22.5567 38.5318 20.9974C37.8492 19.4278 36.3638 18.4529 34.6552 18.4529C34.0511 18.4529 33.5615 18.9426 33.5615 19.5466C33.5616 20.1508 34.0512 20.6405 34.6553 20.6405Z" fill="#05294A"/>
<path d="M15.9356 16.0253C16.007 16.0253 16.0781 16.0241 16.1492 16.0215C17.5951 15.9707 18.8234 15.1007 19.3548 13.7511C19.8894 12.3935 19.5816 10.9101 18.5515 9.88002C18.1244 9.45291 17.4318 9.45291 17.0046 9.88002C16.5775 10.3071 16.5775 10.9997 17.0046 11.4269C17.4154 11.8376 17.533 12.407 17.3193 12.9497C17.1089 13.4843 16.6426 13.8153 16.0724 13.8354C16.027 13.837 15.9813 13.8378 15.9355 13.8378C15.3314 13.8378 14.8417 14.3274 14.8417 14.9315C14.8418 15.5356 15.3315 16.0253 15.9356 16.0253Z" fill="#05294A"/>
<path d="M29.9057 16.3326C29.9761 16.335 30.047 16.3363 30.118 16.3363H30.119C30.7226 16.3363 31.2122 15.8473 31.2127 15.2436C31.2133 14.6395 30.724 14.1494 30.1199 14.1488C30.0738 14.1488 30.0277 14.148 29.9822 14.1464C29.4118 14.1263 28.9456 13.7952 28.7351 13.2607C28.5214 12.7179 28.6391 12.1486 29.0498 11.7379C29.4769 11.3108 29.4769 10.6182 29.0498 10.191C28.6227 9.76389 27.9301 9.76389 27.5029 10.191C26.4728 11.2211 26.165 12.7044 26.6997 14.0621C27.2312 15.4117 28.4595 16.2816 29.9057 16.3326Z" fill="#05294A"/>
<path d="M17.0046 28.4793C16.5775 28.9064 16.5775 29.599 17.0046 30.0262C17.4154 30.4369 17.533 31.0062 17.3193 31.549C17.1089 32.0835 16.6426 32.4145 16.0714 32.4346C16.0264 32.4363 15.981 32.437 15.9355 32.437C15.3314 32.437 14.8417 32.9267 14.8417 33.5308C14.8417 34.1348 15.3314 34.6245 15.9355 34.6245C16.0072 34.6245 16.0787 34.6233 16.1491 34.6207C17.5949 34.5698 18.8233 33.7 19.3547 32.3504C19.8893 30.9926 19.5815 29.5094 18.5514 28.4792C18.1243 28.0522 17.4317 28.0522 17.0046 28.4793Z" fill="#05294A"/>
<path d="M45.2922 26.656C47.0526 21.7407 45.6978 16.204 41.8463 12.651C42.0401 12.0413 42.1379 11.4063 42.1379 10.7541C42.1379 7.29488 39.3236 4.48055 35.8644 4.48055C35.1653 4.48055 34.4818 4.59419 33.828 4.81874C32.78 2.70616 30.6111 1.33459 28.207 1.33459C26.0583 1.33459 24.1583 2.42047 23.0273 4.07236C21.8961 2.42047 19.9962 1.33459 17.8474 1.33459C15.5282 1.33459 13.4265 2.6122 12.3405 4.59999C11.9395 4.52047 11.5302 4.48055 11.116 4.48055C7.6568 4.48055 4.84247 7.29488 4.84247 10.7541C4.84247 11.1746 4.88403 11.5916 4.96639 12C4.92352 12.0357 4.8755 12.0752 4.8218 12.119C1.75853 14.6124 0.000984752 18.3029 3.76596e-07 22.2443C-0.000874623 25.9168 1.52305 29.372 4.20809 31.8445C4.01439 32.4541 3.91661 33.089 3.91661 33.741C3.91661 37.2002 6.73094 40.0145 10.1903 40.0145C10.8894 40.0145 11.5729 39.9009 12.2266 39.6763C13.2746 41.7889 15.4434 43.1605 17.8475 43.1605C19.9963 43.1605 21.8962 42.0746 23.0274 40.4227C24.1288 42.0311 25.9591 43.1029 28.0382 43.1582C29.2962 49.7056 35.0293 54.6652 41.8908 54.6652C49.6707 54.6652 56.0001 48.2891 56.0001 40.4517C56 33.7956 51.4344 28.1933 45.2922 26.656ZM24.121 36.887C24.121 36.821 24.121 28.1189 24.121 28.1189C24.121 27.5148 23.6313 27.0251 23.0273 27.0251C22.4232 27.0251 21.9335 27.5148 21.9335 28.1189V36.887C21.9335 39.1402 20.1005 40.9731 17.8474 40.9731C16.1052 40.9731 14.5527 39.8675 13.9843 38.2221C13.8444 37.8171 13.4808 37.5312 13.0543 37.4905C12.8688 37.4728 12.8109 37.4683 12.7374 37.4674H12.72C12.5417 37.4674 12.3641 37.4625 12.1918 37.453C12.0308 37.4439 11.8701 37.4707 11.7208 37.5309C11.2348 37.7275 10.7198 37.8271 10.19 37.8271C7.93691 37.8271 6.10389 35.9941 6.10389 33.7411C6.10389 33.129 6.23569 32.5408 6.49567 31.9927C6.71147 31.5377 6.58875 30.9943 6.19828 30.6761C3.64864 28.5986 2.18673 25.5256 2.1875 22.2449C2.18827 18.9642 3.65181 15.8919 6.20277 13.8156C6.85836 13.2818 7.07142 13.0551 7.19381 12.7608C7.29356 12.521 7.30461 12.2535 7.22509 12.0062C7.09559 11.6033 7.02997 11.1821 7.02997 10.7542C7.02997 8.50106 8.86298 6.66816 11.116 6.66816C11.6154 6.66816 12.1029 6.75697 12.5648 6.93219C12.8411 7.03697 13.1481 7.02538 13.4157 6.90036C13.6835 6.77524 13.8891 6.54719 13.986 6.26806C14.556 4.62569 16.1077 3.5222 17.8474 3.5222C20.1005 3.5222 21.9335 5.35522 21.9335 7.60823V18.2301C21.9335 18.8342 22.4232 19.3238 23.0273 19.3238C23.6313 19.3238 24.121 18.8342 24.121 18.2301C24.121 18.2301 24.121 7.67441 24.121 7.60823C24.121 5.35511 25.954 3.5222 28.207 3.5222C29.9492 3.5222 31.5016 4.62777 32.0703 6.2732C32.2102 6.67822 32.5736 6.96413 33.0001 7.00481C33.1826 7.02231 33.2457 7.02789 33.3138 7.02789H33.3344C33.5129 7.02789 33.6906 7.0327 33.8623 7.04244C34.0235 7.05119 34.1841 7.02472 34.3336 6.96434C34.8195 6.7678 35.3346 6.66816 35.8644 6.66816C38.1175 6.66816 39.9504 8.50117 39.9504 10.7542C39.9504 11.3664 39.8186 11.9546 39.5586 12.5024C39.3428 12.9575 39.4656 13.501 39.856 13.8192C43.5517 16.8301 44.8475 21.9009 43.0921 26.2896C42.6961 26.2558 42.2953 26.2385 41.8907 26.2385C36.9276 26.2385 32.5548 28.8334 30.039 32.7473C30.0199 32.7469 30.001 32.7464 29.9822 32.7458C29.4118 32.7257 28.9455 32.3946 28.7351 31.8601C28.5214 31.3172 28.6391 30.7479 29.0498 30.3372C29.4769 29.9101 29.4769 29.2176 29.0498 28.7903C28.6227 28.3632 27.9301 28.3632 27.5029 28.7903C26.4728 29.8204 26.165 31.3038 26.6996 32.6615C27.1099 33.7035 27.9357 34.4596 28.9565 34.7735C28.2008 36.5135 27.7814 38.4344 27.7814 40.4519C27.7814 40.6193 27.7843 40.7859 27.79 40.952C25.7322 40.7425 24.121 38.9994 24.121 36.887ZM41.8907 52.4779C35.3171 52.4779 29.969 47.0831 29.969 40.4519C29.969 33.8207 35.3171 28.4259 41.8907 28.4259C48.4644 28.4259 53.8125 33.8207 53.8125 40.4519C53.8125 47.0831 48.4644 52.4779 41.8907 52.4779Z" fill="#05294A"/>
<path d="M47.1179 36.7002H45.6205V35.1803C45.6205 33.8403 44.5351 32.7502 43.2009 32.7502H40.5806C39.2465 32.7502 38.161 33.8403 38.161 35.1803V36.7002H36.6637C35.3295 36.7002 34.2442 37.7903 34.2442 39.1302V41.7735C34.2442 43.1136 35.3296 44.2037 36.6637 44.2037H38.161V45.7235C38.161 47.0634 39.2465 48.1536 40.5806 48.1536H43.2009C44.5351 48.1536 45.6205 47.0634 45.6205 45.7235V44.2037H47.1179C48.452 44.2037 49.5375 43.1136 49.5375 41.7735V39.1302C49.5375 37.7904 48.452 36.7002 47.1179 36.7002ZM47.35 41.7736C47.35 41.9075 47.2458 42.0163 47.1179 42.0163H44.5268C43.9227 42.0163 43.433 42.506 43.433 43.1101V45.7236C43.433 45.8574 43.3289 45.9662 43.2009 45.9662H40.5806C40.4527 45.9662 40.3485 45.8574 40.3485 45.7236V43.1101C40.3485 42.506 39.8589 42.0163 39.2548 42.0163H36.6637C36.5357 42.0163 36.4317 41.9075 36.4317 41.7736V39.1304C36.4317 38.9966 36.5358 38.8878 36.6637 38.8878H39.2548C39.8589 38.8878 40.3485 38.3981 40.3485 37.794V35.1804C40.3485 35.0466 40.4527 34.9378 40.5806 34.9378H43.2009C43.3289 34.9378 43.433 35.0466 43.433 35.1804V37.794C43.433 38.3981 43.9227 38.8878 44.5268 38.8878H47.1179C47.2458 38.8878 47.35 38.9966 47.35 39.1304V41.7736Z" fill="#05294A"/>
<path d="M24.0373 22.7763C23.8609 22.353 23.4277 22.0777 22.9686 22.1025C22.5136 22.1271 22.1136 22.4413 21.9811 22.8769C21.8502 23.3072 22.0038 23.7884 22.3615 24.0621C22.7292 24.3434 23.2491 24.3612 23.6348 24.1041C24.063 23.8185 24.2352 23.2512 24.0373 22.7763Z" fill="#05294A"/>
</g>
<defs>
<clipPath id="clip0">
<rect width="56" height="56" fill="white"/>
</clipPath>
</defs>
</svg>
