<svg width="53" height="80" viewBox="0 0 53 80" fill="none" xmlns="http://www.w3.org/2000/svg">
<path d="M51.2564 26.5502C51.2564 12.8512 40.1729 1.74673 26.4998 1.74673C12.8266 1.74673 1.74316 12.8512 1.74316 26.5502C1.74316 38.8201 10.6355 49.0072 22.3156 50.9993V64.629H15.3419V72.3146H22.3156V78.2535H30.684V72.3146H37.6577V64.629H30.684V50.9993C42.3641 49.007 51.2564 38.8201 51.2564 26.5502ZM9.06554 26.5502C9.06554 16.9031 16.8708 9.08298 26.4998 9.08298C36.1287 9.08298 43.934 16.9031 43.934 26.5502C43.934 36.1974 36.1287 44.0175 26.4998 44.0175C16.8708 44.0175 9.06554 36.1974 9.06554 26.5502Z" fill="#FE565B"/>
<path d="M14.147 15.9706C14.5979 15.9706 15.0482 15.7965 15.3891 15.4501C15.395 15.444 15.4023 15.4365 15.4072 15.4316C16.0775 14.739 16.0605 13.6332 15.3692 12.9616C14.6818 12.294 13.5862 12.3069 12.9148 12.9885C12.9085 12.9948 12.9007 13.0028 12.8956 13.008C12.2253 13.7006 12.2424 14.8065 12.9336 15.4781C13.2722 15.8068 13.7098 15.9706 14.147 15.9706Z" fill="#05294A"/>
<path d="M26.5002 7.25256C37.0747 7.25256 45.6778 15.872 45.6778 26.4665C45.6778 37.0611 37.0747 45.6805 26.5002 45.6805C15.9256 45.6805 7.32251 37.0611 7.32251 26.4665C7.32251 23.7665 7.87099 21.1547 8.95244 18.7039C9.34174 17.8216 10.3714 17.4227 11.252 17.8127C12.0293 18.157 12.4308 19.0012 12.2465 19.8014C11.324 21.8035 10.8094 24.033 10.8094 26.3829C10.8094 26.3968 10.8094 26.4107 10.8094 26.4245C10.8094 26.4385 10.8094 26.4525 10.8094 26.4665C10.8094 34.7696 17.2679 41.5888 25.4158 42.1488C25.5413 42.1574 25.7156 42.1488 25.8742 42.1488C26.2586 42.1488 26.1303 42.1488 26.5002 42.1488C27.325 42.1488 27.5462 42.1034 27.8077 42.1034C28.5051 42.1034 28.872 42.0072 28.9424 41.9961C30.2339 41.793 31.4736 41.4316 32.6412 40.9322C32.8045 40.8624 32.8412 40.8363 32.9508 40.7897C34.1056 40.2985 34.6597 39.9584 35.6531 39.2176C35.6559 39.2405 35.8644 39.0479 35.8672 39.0707C39.7029 36.2019 42.191 31.6199 42.191 26.4664C42.191 26.4525 42.191 26.4386 42.1909 26.4248C42.191 26.4108 42.191 26.3968 42.191 26.3829C42.191 17.7007 35.166 10.6623 26.5002 10.6623C23.9275 10.6623 21.4994 11.2827 19.3569 12.3822C18.6077 12.5055 17.8376 12.1249 17.4978 11.4028C17.0872 10.5301 17.4605 9.48942 18.3315 9.07807C20.8965 7.86671 23.6448 7.25256 26.5002 7.25256Z" fill="#05294A"/>
<path fill-rule="evenodd" clip-rule="evenodd" d="M32.4276 52.35C44.1964 49.6558 52.9805 39.1116 53 26.5086C52.9973 24.8001 52.8308 23.1295 52.519 21.5102C52.5258 21.5107 52.5326 21.5112 52.5394 21.5116C52.3118 20.3038 52.0026 19.1249 51.6177 17.9809C51.6062 17.9808 51.5948 17.9807 51.5833 17.9806C51.1358 16.6693 50.5877 15.4047 49.9497 14.1944C49.9677 14.1933 49.9857 14.1921 50.0036 14.191C49.4011 13.0354 48.7161 11.9297 47.9566 10.8818C47.9331 10.8849 47.9096 10.888 47.886 10.8912C43.0601 4.2931 35.2717 0 26.5 0C11.9017 0 0.022592 11.8877 0 26.5084C0.0155797 36.6171 5.66978 45.4013 13.9801 49.8727H13.8366C15.9478 51.0251 18.2138 51.8898 20.5724 52.4311V62.8821H15.3421C14.3792 62.8821 13.5987 63.6641 13.5987 64.6288V72.3144C13.5987 73.2791 14.3792 74.0611 15.3421 74.0611H20.5724V78.2533C20.5724 79.218 21.3529 80 22.3158 80H30.6842C31.6471 80 32.4276 79.218 32.4276 78.2533V74.0611H37.6579C38.6208 74.0611 39.4013 73.2791 39.4013 72.3144V64.6288C39.4013 63.6641 38.6208 62.8821 37.6579 62.8821H32.4276V52.35ZM35.9145 70.5677V66.3755H30.6842C29.7213 66.3755 28.9408 65.5935 28.9408 64.6288V50.9991C28.9408 50.1476 29.5538 49.4201 30.3917 49.2772C41.4715 47.3876 49.5132 37.8295 49.5132 26.5502C49.5132 13.8367 39.1895 3.49345 26.5 3.49345C13.8105 3.49345 3.48681 13.8367 3.48681 26.5502C3.48681 37.8293 11.5285 47.3874 22.6083 49.2772C23.4462 49.4201 24.0592 50.1476 24.0592 50.9991V64.6288C24.0592 65.5935 23.2787 66.3755 22.3158 66.3755H17.0855V70.5677H22.3158C23.2787 70.5677 24.0592 71.3497 24.0592 72.3144V76.5065H28.9408V72.3144C28.9408 71.3497 29.7213 70.5677 30.6842 70.5677H35.9145Z" fill="#05294A"/>
</svg>
