<svg width="56" height="56" viewBox="0 0 56 56" fill="none" xmlns="http://www.w3.org/2000/svg">
<g clip-path="url(#clip0)">
<path d="M26.8726 38.2771L11.9866 53.163C14.0604 54.2753 16.4303 54.9063 18.9468 54.9063C23.9468 54.9063 28.3659 52.4183 31.0334 48.6129" fill="white"/>
<path d="M26.8726 38.2771L11.9866 53.163C14.0604 54.2753 16.4303 54.9063 18.9468 54.9063C23.9468 54.9063 28.3659 52.4183 31.0334 48.6129" fill="#007AFF" fill-opacity="0.4"/>
<path d="M33.4827 13.3252C32.9555 10.2616 31.4833 7.52063 29.3767 5.41406C26.708 2.74531 23.0198 1.09375 18.9467 1.09375C10.8005 1.09375 4.19641 7.69781 4.19641 15.8441V40.1559C4.19641 40.9314 4.25657 41.6927 4.37141 42.4364" fill="white"/>
<path d="M33.4827 13.3252C32.9555 10.2616 31.4833 7.52063 29.3767 5.41406C26.708 2.74531 23.0198 1.09375 18.9467 1.09375C10.8005 1.09375 4.19641 7.69781 4.19641 15.8441V40.1559C4.19641 40.9314 4.25657 41.6927 4.37141 42.4364" fill="#007AFF" fill-opacity="0.4"/>
<path d="M28.5785 18.2292L33.4826 13.3251C33.6237 14.1433 33.697 14.9854 33.697 15.844V21.514L6.75243 48.4575C5.54603 46.6889 4.71368 44.6436 4.37134 42.4364L21.6157 25.192" fill="white"/>
<path d="M28.5785 18.2292L33.4826 13.3251C33.6237 14.1433 33.697 14.9854 33.697 15.844V21.514L6.75243 48.4575C5.54603 46.6889 4.71368 44.6436 4.37134 42.4364L21.6157 25.192" fill="#007AFF" fill-opacity="0.4"/>
<path d="M26.8721 38.2767L11.986 53.1628C9.88494 52.0373 8.089 50.4164 6.75244 48.4575L33.697 21.514V27.844" fill="#EEEFF1"/>
<path d="M18.6044 5.90951C18.7247 5.90404 18.845 5.90186 18.9664 5.90186C24.3444 5.90186 28.7041 10.2604 28.7041 15.6384C28.7041 21.0164 24.3444 25.3761 18.9664 25.3761C13.5885 25.3761 9.22986 21.0164 9.22986 15.6384C9.22986 14.1137 9.57986 12.67 10.2066 11.3848" fill="#EEEFF1"/>
<path d="M18.9668 25.3762C20.5401 25.3762 21.8154 24.1009 21.8154 22.5276C21.8154 20.9544 20.5401 19.6791 18.9668 19.6791C17.3936 19.6791 16.1183 20.9544 16.1183 22.5276C16.1183 24.1009 17.3936 25.3762 18.9668 25.3762Z" fill="#FE565B"/>
<path d="M18.6833 6.83705C18.6833 9.85142 16.2398 12.2949 13.2255 12.2949C12.1088 12.2949 11.0719 11.9591 10.2067 11.3849C11.7347 8.24033 14.9066 6.04408 18.6045 5.90955C18.6559 6.21033 18.6833 6.52095 18.6833 6.83705Z" fill="white"/>
<path d="M18.6833 6.83705C18.6833 9.85142 16.2398 12.2949 13.2255 12.2949C12.1088 12.2949 11.0719 11.9591 10.2067 11.3849C11.7347 8.24033 14.9066 6.04408 18.6045 5.90955C18.6559 6.21033 18.6833 6.52095 18.6833 6.83705Z" fill="#007AFF" fill-opacity="0.8"/>
<path d="M39.4394 51.7644C46.2679 51.7644 51.8035 46.1845 51.8035 39.3014C51.8035 32.4182 46.2679 26.8383 39.4394 26.8383C32.611 26.8383 27.0754 32.4182 27.0754 39.3014C27.0754 46.1845 32.611 51.7644 39.4394 51.7644Z" fill="#EEEFF1"/>
<path d="M44.405 36.7763H41.9436V34.2936C41.9436 33.5924 41.3797 33.0241 40.6842 33.0241H38.195C37.4994 33.0241 36.9356 33.5925 36.9356 34.2936V36.7763H34.4742C33.7787 36.7763 33.2147 37.3447 33.2147 38.0458V40.5568C33.2147 41.2579 33.7786 41.8263 34.4742 41.8263H36.9356V44.309C36.9356 45.0101 37.4994 45.5785 38.195 45.5785H40.6842C41.3797 45.5785 41.9436 45.0101 41.9436 44.309V41.8263H44.405C45.1006 41.8263 45.6644 41.2579 45.6644 40.5568V38.0458C45.6644 37.3447 45.1006 36.7763 44.405 36.7763Z" fill="#FE565B"/>
<path d="M15.951 13.5444C15.347 13.5444 14.8572 14.0341 14.8572 14.6382V16.0345C14.8572 16.6385 15.347 17.1282 15.951 17.1282C16.5551 17.1282 17.0447 16.6385 17.0447 16.0345V14.6382C17.0447 14.034 16.555 13.5444 15.951 13.5444Z" fill="#05294A"/>
<path d="M21.9426 13.5444C21.3387 13.5444 20.8489 14.0341 20.8489 14.6382V16.0345C20.8489 16.6385 21.3387 17.1282 21.9426 17.1282C22.5466 17.1282 23.0364 16.6385 23.0364 16.0345V14.6382C23.0364 14.034 22.5467 13.5444 21.9426 13.5444Z" fill="#05294A"/>
<path d="M39.4394 25.7445C37.8064 25.7445 36.2402 26.0391 34.7908 26.5782V15.8441C34.7908 14.9368 34.7136 14.0283 34.5612 13.1437C34.561 13.1424 34.5608 13.141 34.5606 13.1397C34.0046 9.90894 32.4796 6.97003 30.1501 4.64067C27.1576 1.64806 23.1789 0 18.9467 0C10.2104 0 3.10266 7.10763 3.10266 15.8441V40.1559C3.10266 40.9732 3.16588 41.7966 3.29057 42.6034C3.29057 42.6036 3.29068 42.6039 3.29068 42.6041C3.65271 44.9383 4.51272 47.1139 5.84688 49.0707C5.84765 49.0718 5.8483 49.0728 5.84907 49.0739C7.28571 51.1795 9.2293 52.9269 11.4697 54.127C13.7544 55.3523 16.3399 56 18.9467 56C23.7554 56 28.296 53.8074 31.2934 50.086C33.5563 51.8246 36.3802 52.8582 39.4393 52.8582C46.8601 52.8582 52.8973 46.7766 52.8973 39.3013C52.8974 31.826 46.8601 25.7445 39.4394 25.7445ZM11.7221 36.6375C12.1492 36.2103 12.1492 35.5178 11.7221 35.0907C11.2948 34.6636 10.6025 34.6636 10.1752 35.0907L5.29016 39.9709V15.8441C5.29016 8.31381 11.4165 2.1875 18.9467 2.1875C22.5945 2.1875 26.0238 3.60806 28.6032 6.18745C30.4787 8.06269 31.7491 10.3953 32.2988 12.9621L29.7964 15.4645C29.7032 9.5725 24.8808 4.80802 18.9664 4.80802C18.8196 4.80802 18.6851 4.81086 18.5549 4.81677C18.5545 4.81677 18.5541 4.81677 18.5537 4.81687C14.5521 4.96639 10.979 7.29717 9.22526 10.902C9.22471 10.9032 9.22405 10.9043 9.22351 10.9053C8.50196 12.3848 8.13621 13.9773 8.13621 15.6383C8.13621 21.5543 12.9032 26.3778 18.7974 26.4683L17.1677 28.098C16.7406 28.5251 16.7406 29.2177 17.1677 29.6448C17.3813 29.8584 17.6612 29.9651 17.9411 29.9651C18.221 29.9651 18.5009 29.8583 18.7145 29.6448L22.4719 25.8875C25.6407 24.8008 28.1508 22.2832 29.2273 19.1098C29.2708 19.0776 29.3125 19.0419 29.352 19.0025L32.603 15.7515C32.6032 15.7824 32.6033 15.8131 32.6033 15.844V21.0609L6.95835 46.7049C6.28832 45.4845 5.8156 44.18 5.54686 42.8078L11.7221 36.6375ZM17.212 22.5276C17.212 21.5601 17.9992 20.7728 18.9668 20.7728C19.9344 20.7728 20.7215 21.56 20.7215 22.5276C20.7215 23.4858 19.9496 24.267 18.9951 24.2822C18.9856 24.2822 18.9759 24.2823 18.9664 24.2823C18.9572 24.2823 18.948 24.2822 18.9387 24.2822C17.9841 24.2671 17.212 23.4859 17.212 22.5276ZM22.8171 23.3763C22.8773 23.1028 22.909 22.8189 22.909 22.5276C22.909 20.3539 21.1406 18.5853 18.9668 18.5853C16.793 18.5853 15.0245 20.3538 15.0245 22.5276C15.0245 22.8189 15.0564 23.103 15.1165 23.3764C12.2777 21.9579 10.3236 19.0221 10.3236 15.6384C10.3236 14.6961 10.4708 13.7821 10.7622 12.9093C11.5398 13.225 12.3737 13.3886 13.2252 13.3886C16.7722 13.3886 19.6698 10.5553 19.7739 7.03314C24.163 7.44166 27.6103 11.1451 27.6103 15.6385C27.6104 19.0221 25.6561 21.9578 22.8171 23.3763ZM17.5812 7.10686C17.4414 9.38798 15.5411 11.2011 13.2253 11.2011C12.7053 11.2011 12.1953 11.1095 11.7151 10.9325C13.0434 8.88223 15.1719 7.49405 17.5812 7.10686ZM8.18849 48.5685L32.6033 24.1546V27.6272C29.1294 29.6995 26.6551 33.2999 26.0996 37.5026C26.0993 37.5028 26.0991 37.5032 26.0988 37.5034L11.8045 51.7975C10.4223 50.9473 9.19233 49.8488 8.18849 48.5685ZM18.9467 53.8125C17.2031 53.8125 15.4711 53.4767 13.8633 52.8333L26.0477 40.6489C26.3498 43.7188 27.6728 46.4909 29.6689 48.6149C27.0858 51.8832 23.134 53.8125 18.9467 53.8125ZM39.4394 50.6707C33.225 50.6707 28.1691 45.5704 28.1691 39.3013C28.1691 33.0322 33.225 27.932 39.4394 27.932C45.6539 27.932 50.7099 33.0322 50.7099 39.3013C50.7099 45.5704 45.6539 50.6707 39.4394 50.6707Z" fill="#05294A"/>
<path d="M44.405 35.6826H43.0372V34.2937C43.0372 32.9905 41.9817 31.9304 40.684 31.9304H38.195C36.8975 31.9304 35.8418 32.9906 35.8418 34.2937V35.6826H34.4742C33.1765 35.6826 32.1208 36.7428 32.1208 38.0459V40.5568C32.1208 41.8599 33.1764 42.9201 34.4742 42.9201H35.8418V44.309C35.8418 45.6121 36.8974 46.6723 38.195 46.6723H40.6841C41.9817 46.6723 43.0373 45.6121 43.0373 44.309V42.9201H44.4051C45.7026 42.9201 46.7583 41.8599 46.7583 40.5568V38.0459C46.7582 36.7428 45.7026 35.6826 44.405 35.6826ZM44.5707 40.5568C44.5707 40.6537 44.4963 40.7326 44.405 40.7326H41.9435C41.3395 40.7326 40.8497 41.2223 40.8497 41.8263V44.309C40.8497 44.406 40.7754 44.4848 40.684 44.4848H38.195C38.1037 44.4848 38.0293 44.406 38.0293 44.309V41.8263C38.0293 41.2223 37.5395 40.7326 36.9355 40.7326H34.4742C34.3827 40.7326 34.3083 40.6537 34.3083 40.5568V38.0459C34.3083 37.949 34.3827 37.8701 34.4742 37.8701H36.9355C37.5395 37.8701 38.0293 37.3805 38.0293 36.7764V34.2937C38.0293 34.1968 38.1037 34.1179 38.195 34.1179H40.6841C40.7755 34.1179 40.8498 34.1968 40.8498 34.2937V36.7764C40.8498 37.3805 41.3396 37.8701 41.9436 37.8701H44.4051C44.4964 37.8701 44.5708 37.949 44.5708 38.0459V40.5568H44.5707Z" fill="#05294A"/>
<path d="M13.8523 33.2632C14.2381 33.5205 14.757 33.5031 15.1251 33.2212C15.4725 32.9551 15.6288 32.4924 15.5149 32.0703C15.3929 31.6182 14.9857 31.2869 14.5174 31.2615C14.0527 31.2363 13.6134 31.5202 13.4423 31.9519C13.2542 32.4257 13.4306 32.9796 13.8523 33.2632Z" fill="#05294A"/>
</g>
<defs>
<clipPath id="clip0">
<rect width="56" height="56" fill="white"/>
</clipPath>
</defs>
</svg>
