<svg width="80" height="80" viewBox="0 0 80 80" fill="none" xmlns="http://www.w3.org/2000/svg">
<g clip-path="url(#clip0)">
<path d="M52.2166 10.7114H64.333C66.5944 10.7114 68.4277 12.5333 68.4277 14.7806V74.3684C68.4277 76.6158 66.5944 78.4376 64.333 78.4376H14.0944C11.833 78.4376 11.572 76.6158 11.572 74.3684V14.7806C11.572 12.5333 13.4053 10.7114 15.6667 10.7114H27.4886" fill="white"/>
<path opacity="0.4" d="M52.2166 10.7114H64.333C66.5944 10.7114 68.4277 12.5333 68.4277 14.7806V74.3684C68.4277 76.6158 66.5944 78.4376 64.333 78.4376H14.0944C11.833 78.4376 11.572 76.6158 11.572 74.3684V14.7806C11.572 12.5333 13.4053 10.7114 15.6667 10.7114H27.4886" fill="#007AFF"/>
<path d="M44.813 8.13828C44.9719 7.65031 45.0578 7.12969 45.0578 6.58906C45.0578 3.81297 42.7933 1.5625 39.9998 1.5625C37.2064 1.5625 34.9419 3.81297 34.9419 6.58906C34.9419 7.12969 35.0277 7.65031 35.1867 8.13828H28.2029V17.5864H51.7968V8.13828H44.813Z" fill="#EEEFF1"/>
<path d="M61.5098 38.5122V17.5864H18.49V71.5625H61.5098V59.5512V57.4506V52.6392" fill="#EEEFF1"/>
<path d="M25.1291 32.3139C25.154 31.8 25.2339 31.2969 25.3622 30.8094C25.3725 30.77 25.3832 30.7306 25.3942 30.6916C25.6815 29.6673 26.1816 28.7145 26.8292 27.8784C28.4027 25.8467 30.8473 24.5044 33.2258 24.5044C35.9722 24.5044 38.2907 26.1476 39.3626 27.0564C39.7271 27.3653 40.2634 27.3597 40.6225 27.0447C41.6608 26.1336 43.917 24.5044 46.7744 24.5044C50.6324 24.5044 54.6648 28.0367 54.8709 32.3141C54.9354 33.6523 54.7481 34.813 54.4008 35.8656C54.1211 36.7134 53.7379 37.4916 53.2968 38.2347C51.8305 40.705 44.81 46.0275 41.7446 48.6061C40.73 49.4595 39.2439 49.4592 38.2298 48.6055C35.1727 46.0319 28.1781 40.7248 26.703 38.2348C26.0412 37.1176 25.5112 35.9289 25.2655 34.5437C25.1436 33.8541 25.0905 33.1169 25.1291 32.3139Z" fill="#FE565B"/>
<path d="M64.3333 9.14891H53.3693V8.13828C53.3693 7.27547 52.6654 6.57578 51.797 6.57578H46.6303C46.6231 2.94859 43.6516 0 40.0001 0C36.3485 0 33.3771 2.94859 33.3699 6.57578H28.2031C27.3348 6.57578 26.6309 7.27547 26.6309 8.13828V9.14891H15.6669C12.5422 9.14891 10 11.6753 10 14.7806V74.3683C10 75.9086 10 80 14.0946 80H64.3333C67.458 80 70 77.4736 70 74.3683V14.7806C70.0002 11.6753 67.458 9.14891 64.3333 9.14891ZM29.7754 9.70078H35.1869C35.6899 9.70078 36.1625 9.46172 36.4584 9.0575C36.7543 8.65328 36.8376 8.13281 36.6828 7.65719C36.571 7.31406 36.5144 6.95469 36.5144 6.58906C36.5144 4.67891 38.078 3.125 40.0001 3.125C41.9222 3.125 43.4858 4.67891 43.4858 6.58906C43.4858 6.95469 43.4292 7.31406 43.3174 7.65719C43.1625 8.13281 43.2458 8.65328 43.5417 9.0575C43.8376 9.46172 44.3103 9.70078 44.8132 9.70078H50.2248V16.0241H29.7754V9.70078ZM66.8556 74.3683C66.8556 75.7505 65.7241 76.875 64.3334 76.875H14.0946C13.5473 76.875 13.483 76.7391 13.4087 76.5816C13.1745 76.0863 13.1445 75.1386 13.1445 74.3683V14.7806C13.1445 13.3984 14.2761 12.2739 15.6669 12.2739H26.6309V16.0241H18.4903C17.622 16.0241 16.9181 16.7238 16.9181 17.5866V71.5625C16.9181 72.4253 17.622 73.125 18.4903 73.125H61.51C62.3783 73.125 63.0822 72.4253 63.0822 71.5625V52.6392C63.0822 51.7764 62.3783 51.0767 61.51 51.0767C60.6416 51.0767 59.9377 51.7764 59.9377 52.6392V70H20.0624V19.1491H59.9376V38.5123C59.9376 39.3753 60.6415 40.0748 61.5098 40.0748C62.3782 40.0748 63.0821 39.3753 63.0821 38.5123V17.5866C63.0821 16.7238 62.3782 16.0241 61.5098 16.0241H53.3693V12.2739H64.3333C65.7241 12.2739 66.8555 13.3984 66.8555 14.7806V74.3683H66.8556Z" fill="#05294A"/>
<path d="M62.9611 45.0063C62.7002 44.3833 62.0472 43.9869 61.3696 44.0477C60.7188 44.1059 60.1616 44.5742 59.9912 45.2C59.8229 45.8181 60.0688 46.5031 60.5946 46.8741C61.1321 47.2533 61.8603 47.2591 62.4038 46.8886C63.0091 46.4761 63.2383 45.6778 62.9611 45.0063Z" fill="#05294A"/>
<path d="M53.2693 25.6672C51.4171 23.9351 49.0497 22.9419 46.7742 22.9419C43.7459 22.9419 41.3362 24.4417 39.9794 25.5384C38.5862 24.4433 36.1434 22.9419 33.2256 22.9419C30.4147 22.9419 27.4864 24.4684 25.583 26.9256C24.7873 27.953 24.2142 29.0789 23.8793 30.2728C23.8659 30.3203 23.853 30.3676 23.8409 30.4142C23.6831 31.0145 23.588 31.6284 23.5586 32.2394C23.5584 32.2394 23.5584 32.2395 23.5584 32.2395C23.5156 33.1287 23.5675 33.9711 23.7172 34.8148C23.9692 36.2356 24.4873 37.574 25.3481 39.0275C26.5501 41.0564 30.3405 44.2117 34.8016 47.8237C35.7085 48.5581 36.5652 49.2519 37.2136 49.7976C38.0172 50.4742 39.0022 50.8125 39.9877 50.8125C40.9722 50.8125 41.957 50.4745 42.7604 49.7989C43.4147 49.2486 44.2806 48.548 45.1974 47.8065C49.6634 44.1939 53.4574 41.0398 54.651 39.0287C55.1979 38.1076 55.6048 37.2322 55.895 36.3525C56.3321 35.0272 56.5109 33.6817 56.4415 32.2395C56.3239 29.804 55.1974 27.4701 53.2693 25.6672ZM26.6993 32.3887C26.7185 31.994 26.7803 31.5958 26.8834 31.2034C26.8916 31.1723 26.9001 31.1414 26.9086 31.1111C27.1343 30.3062 27.5268 29.5394 28.0749 28.8314C29.3758 27.1519 31.3975 26.0667 33.2256 26.0667C35.5241 26.0667 37.5694 27.5901 38.342 28.245C39.2953 29.053 40.7229 29.0405 41.6629 28.2156C42.5777 27.413 44.4579 26.0666 46.7742 26.0666C49.6513 26.0666 53.1288 28.8281 53.3003 32.3884C53.3415 33.2422 53.2649 34.0455 53.067 34.828H50.07L48.7309 31.8869C48.4779 31.3309 47.9224 30.9723 47.3088 30.9684C46.6967 30.9614 46.1349 31.3159 45.8745 31.8683L43.8338 36.1992L42.7814 34.148C42.506 33.6108 41.9401 33.277 41.3381 33.2958C40.732 33.312 40.1891 33.6734 39.9434 34.2242L38.5521 37.3426L36.1468 30.717C35.9538 30.1855 35.487 29.7987 34.9258 29.7059C34.365 29.6122 33.7971 29.8287 33.4413 30.2695L29.5201 35.1283H27.0158C26.9317 34.8434 26.8647 34.559 26.8139 34.2722C26.7054 33.6598 26.668 33.0437 26.6993 32.3887ZM43.2122 45.3825C42.2835 46.1339 41.4063 46.8434 40.7289 47.4133C40.2993 47.7744 39.6758 47.7744 39.2459 47.413C38.5746 46.8476 37.7067 46.145 36.7877 45.4008C34.1365 43.2542 30.3161 40.1608 28.6667 38.2534H30.2745C30.7515 38.2534 31.2026 38.0383 31.501 37.6686L34.1402 34.3983L36.9231 42.0642C37.141 42.6645 37.7045 43.0728 38.3461 43.0956C38.365 43.0962 38.3835 43.0965 38.4022 43.0965C39.022 43.0965 39.5866 42.7337 39.8393 42.1675L41.4796 38.4909L42.4929 40.4661C42.7657 40.998 43.3261 41.3312 43.9199 41.3187C44.5204 41.3086 45.0628 40.9595 45.3175 40.4191L47.2739 36.2676L47.6232 37.035C47.8778 37.5942 48.4381 37.9534 49.0557 37.9534H51.5804C50.1027 39.8089 46.008 43.1211 43.2122 45.3825Z" fill="#05294A"/>
<path d="M53.8654 55.0366H26.1348C25.2664 55.0366 24.5625 55.7362 24.5625 56.5991C24.5625 57.4619 25.2664 58.1616 26.1348 58.1616H53.8654C54.7338 58.1616 55.4377 57.4619 55.4377 56.5991C55.4377 55.7362 54.7336 55.0366 53.8654 55.0366Z" fill="#05294A"/>
<path d="M53.8654 61.2866H26.1348C25.2664 61.2866 24.5625 61.9862 24.5625 62.8491C24.5625 63.7119 25.2664 64.4116 26.1348 64.4116H53.8654C54.7338 64.4116 55.4377 63.7119 55.4377 62.8491C55.4377 61.9862 54.7336 61.2866 53.8654 61.2866Z" fill="#05294A"/>
</g>
<defs>
<clipPath id="clip0">
<rect width="80" height="80" fill="white"/>
</clipPath>
</defs>
</svg>
