<svg width="80" height="80" viewBox="0 0 80 80" fill="none" xmlns="http://www.w3.org/2000/svg">
<path d="M40 51.898C40 54.6658 39.145 56.8458 36.3914 56.8076C34.3888 56.7797 32.6753 55.7024 31.9266 53.9591C31.8372 53.7507 31.6361 53.6174 31.4102 53.618C31.405 53.618 31.4003 53.618 31.3956 53.618C27.9688 53.618 25.9431 51.7288 25.9431 48.2849C25.9431 47.8783 25.9822 47.4809 26.0563 47.0961C26.1011 46.863 25.9967 46.6277 25.7913 46.5095C23.2292 45.0345 22.2427 43.1798 22.2427 39.9997C22.2427 36.8193 23.2292 34.9643 25.7913 33.4896C25.9967 33.3715 26.101 33.1362 26.0563 32.9028C25.9822 32.5181 25.9431 32.121 25.9431 31.7143C25.9431 28.2704 27.9689 26.3812 31.3956 26.3812H31.4102C31.6361 26.3818 31.837 26.2485 31.9266 26.0398C32.6753 24.2968 34.3888 23.2196 36.3914 23.1918C39.1453 23.1538 40 25.3338 40 28.1016" fill="#FE565B"/>
<path d="M40 28.1016C40 25.3338 40.855 23.1537 43.6086 23.192C45.6113 23.2198 47.3247 24.2972 48.0734 26.0403C48.1628 26.2488 48.3639 26.3821 48.5898 26.3814H48.6044C52.0313 26.3814 54.0569 28.2705 54.0569 31.7146C54.0569 32.1212 54.0178 32.5187 53.9438 32.9034C53.8989 33.1365 54.0033 33.3718 54.2088 33.49C56.7708 34.965 57.7574 36.8197 57.7574 39.9999C57.7574 43.1803 56.7708 45.0353 54.2088 46.51C54.0033 46.6281 53.8991 46.8634 53.9438 47.0969C54.0178 47.4816 54.0569 47.8786 54.0569 48.2853C54.0569 51.7293 52.0311 53.6185 48.6044 53.6185H48.5898C48.3639 53.6179 48.163 53.7512 48.0734 53.9599C47.3247 55.7029 45.6113 56.7801 43.6086 56.8079C40.8547 56.8461 40 54.666 40 51.8982" fill="#FE565B"/>
<path d="M65.01 40.0019H78.4375C78.4375 18.7733 61.2284 1.56403 40 1.56403V14.9917C53.8127 14.9917 65.01 26.1891 65.01 40.0019Z" fill="white"/>
<path opacity="0.4" d="M65.01 40.0019H78.4375C78.4375 18.7733 61.2284 1.56403 40 1.56403V14.9917C53.8127 14.9917 65.01 26.1891 65.01 40.0019Z" fill="#007AFF"/>
<path d="M78.4375 40H65.01C65.01 53.8127 53.8127 65.01 40 65.01V78.4375C61.2284 78.4375 78.4375 61.2285 78.4375 40Z" fill="#EEEFF1"/>
<path d="M40 14.9917V1.56403C18.7716 1.56403 1.5625 18.7733 1.5625 40.0019H14.99C14.99 26.1891 26.1873 14.9917 40 14.9917Z" fill="#EEEFF1"/>
<path d="M14.99 40H1.5625C1.5625 61.2285 18.7716 78.4375 40 78.4375V65.01C26.1873 65.01 14.99 53.8127 14.99 40Z" fill="white"/>
<g opacity="0.4">
<path d="M15.4275 40H2C2 61.2285 19.2091 78.4375 40.4375 78.4375V65.01C26.6248 65.01 15.4275 53.8127 15.4275 40Z" fill="#007AFF"/>
</g>
<path d="M59.32 39.9999C59.32 36.4904 58.194 34.2087 55.5803 32.4988C55.6064 32.2382 55.6195 31.9762 55.6195 31.7148C55.6195 27.6671 53.1848 25.0784 49.2201 24.8376C48.1215 22.876 46.0357 21.6634 43.6304 21.63C42.1928 21.612 41.0104 22.0467 40.1171 22.9278C40.0775 22.967 40.0386 23.007 40.0003 23.0478C39.962 23.007 39.9231 22.967 39.8834 22.9278C38.99 22.0467 37.8089 21.6086 36.3698 21.63C33.965 21.6636 31.8796 22.8759 30.7803 24.8376C26.8156 25.0784 24.3809 27.667 24.3809 31.7148C24.3809 31.9763 24.394 32.2384 24.4201 32.4988C21.8068 34.2079 20.6804 36.4899 20.6804 39.9999C20.6804 43.5094 21.8065 45.7913 24.4201 47.501C24.394 47.7613 24.3809 48.0235 24.3809 48.2851C24.3809 52.3327 26.8154 54.9215 30.7803 55.1622C31.879 57.1238 33.9648 58.3364 36.37 58.3699C36.4015 58.3704 36.4328 58.3705 36.4642 58.3705C37.8595 58.3705 39.0095 57.934 39.8834 57.0721C39.9231 57.033 39.962 56.9929 40.0003 56.9521C40.0386 56.9929 40.0775 57.0329 40.1171 57.0721C40.991 57.934 42.1409 58.3707 43.5365 58.3705C43.5676 58.3705 43.5992 58.3704 43.6307 58.3699C46.0359 58.3363 48.1215 57.1236 49.2203 55.1622C53.1851 54.9215 55.6196 52.3329 55.6196 48.2851C55.6196 48.0237 55.6065 47.7616 55.5804 47.5012C58.1939 45.7919 59.32 43.5102 59.32 39.9999ZM36.4132 55.2451C35.0998 55.2268 34.0185 54.6057 33.4714 53.5701C33.7487 53.1113 34.2025 52.7794 34.7418 52.6618C35.585 52.478 36.1196 51.6457 35.936 50.8026C35.7523 49.9594 34.9195 49.4251 34.0768 49.6085C32.6525 49.9188 31.4603 50.8054 30.7514 52.028C28.5693 51.8338 27.506 50.6041 27.506 48.2848C27.506 47.9848 27.5346 47.6843 27.5912 47.391C27.762 46.5026 27.3518 45.6038 26.5714 45.1552C24.5293 43.9799 23.8056 42.6307 23.8056 39.9996C23.8056 37.3684 24.5293 36.0192 26.5704 34.8445C27.3515 34.3954 27.7618 33.4968 27.591 32.6076C27.5348 32.3148 27.506 32.0145 27.506 31.7146C27.506 29.1774 28.7785 27.944 31.4064 27.944H31.4121C31.439 27.944 31.4659 27.9435 31.4928 27.9424C32.0693 28.2087 32.3892 28.8653 32.2192 29.5048C31.9975 30.3388 32.4937 31.1946 33.3276 31.4163C33.4621 31.4523 33.5971 31.4693 33.7301 31.4693C34.421 31.4693 35.0531 31.0073 35.2392 30.3079C35.6864 28.6265 35.1093 26.9079 33.8945 25.8218C34.4935 25.155 35.382 24.7687 36.4135 24.7543C37.1831 24.7425 37.5107 24.9764 37.6893 25.1525C38.172 25.6285 38.4379 26.6759 38.4379 28.1015V51.8976C38.4379 53.3232 38.172 54.3705 37.6892 54.8466C37.5104 55.0229 37.1871 55.2608 36.4132 55.2451ZM53.4303 45.1549C52.6493 45.6038 52.2389 46.5023 52.4093 47.3918C52.4657 47.6852 52.4945 47.9857 52.4945 48.2849C52.4945 50.8221 51.222 52.0555 48.5942 52.0555H48.5884C48.5614 52.0555 48.5345 52.056 48.5078 52.0571C47.9312 51.7908 47.6114 51.1343 47.7814 50.4947C48.0031 49.6607 47.5068 48.8049 46.6729 48.5832C45.8398 48.3613 44.9831 48.8577 44.7614 49.6916C44.3142 51.373 44.8912 53.0916 46.1061 54.1777C45.5071 54.8446 44.6187 55.2308 43.587 55.2452C42.8176 55.2621 42.4896 55.0232 42.3112 54.8471C41.8284 54.371 41.5626 53.3237 41.5626 51.898V28.1018C41.5626 26.6762 41.8285 25.6289 42.3114 25.1528C42.4898 24.9767 42.817 24.7426 43.587 24.7546C44.9004 24.7729 45.9815 25.3939 46.529 26.4299C46.2815 26.8395 45.8926 27.1484 45.4221 27.2945C44.5981 27.5503 44.1371 28.4257 44.3929 29.2499C44.6009 29.9199 45.2182 30.3498 45.8848 30.3498C46.0382 30.3498 46.1942 30.327 46.3484 30.2792C47.5931 29.8929 48.6156 29.0657 49.2495 27.9717C51.4314 28.1659 52.4945 29.3957 52.4945 31.7149C52.4945 32.0143 52.4657 32.3149 52.4092 32.6092C52.2387 33.4976 52.6492 34.3962 53.4292 34.8443C55.4711 36.0198 56.1948 37.369 56.1948 40.0001C56.195 42.6312 55.4712 43.9804 53.4303 45.1549Z" fill="#05294A"/>
<path d="M32.2988 37.0164C30.6099 37.0164 29.1418 37.9798 28.4671 39.5309C27.7962 41.0735 28.0902 42.7945 29.2351 44.0227C29.289 44.0804 29.3441 44.1376 29.4006 44.194C29.7056 44.4985 30.1049 44.6507 30.5045 44.6507C30.9048 44.6507 31.3051 44.4979 31.6102 44.1921C32.2199 43.5815 32.219 42.5921 31.6084 41.9824C31.5784 41.9524 31.549 41.922 31.5206 41.8917C31.1068 41.4476 31.2513 40.9645 31.3327 40.7775C31.4159 40.5862 31.6765 40.1415 32.2988 40.1415C33.1618 40.1415 33.8613 39.4419 33.8613 38.5791C33.8613 37.7161 33.1618 37.0164 32.2988 37.0164Z" fill="#05294A"/>
<path d="M47.7012 37.0164C46.8384 37.0164 46.1387 37.7159 46.1387 38.5789C46.1387 39.4417 46.8384 40.1414 47.7012 40.1414C48.3232 40.1414 48.5838 40.5861 48.6671 40.7771C48.7487 40.9643 48.893 41.4474 48.4807 41.8899C48.4513 41.9213 48.4213 41.9524 48.3907 41.9832C47.7805 42.5934 47.7805 43.5827 48.3907 44.193C48.6958 44.498 49.0957 44.6507 49.4955 44.6507C49.8955 44.6507 50.2952 44.498 50.6004 44.193C50.656 44.1374 50.7105 44.0808 50.7654 44.0222C51.9097 42.7945 52.2038 41.0734 51.5327 39.5308C50.858 37.9798 49.3901 37.0164 47.7012 37.0164Z" fill="#05294A"/>
<path d="M66.3124 14.1246C66.8613 14.4904 67.6076 14.4677 68.1307 14.0642C68.6258 13.682 68.8505 13.0227 68.6876 12.4179C68.5132 11.7708 67.9318 11.2971 67.2626 11.2608C66.5994 11.2248 65.9701 11.6304 65.7266 12.2484C65.4595 12.9265 65.7096 13.7182 66.3124 14.1246Z" fill="#05294A"/>
<path d="M72.9977 17.3848C72.5089 16.6733 71.5361 16.4927 70.8252 16.9811C70.1138 17.4695 69.933 18.4423 70.4214 19.1536C74.3489 24.8736 76.5541 31.5111 76.8427 38.4375H66.527C65.7463 25.0259 54.9741 14.2537 41.5625 13.4731V3.1575C48.44 3.44406 55.0363 5.62172 60.7295 9.49875L60.8673 9.59297C61.5792 10.0797 62.5517 9.89766 63.0391 9.18547C63.5263 8.47328 63.3438 7.50094 62.6316 7.01375L62.4884 6.91578C55.8447 2.39141 48.0684 0 40 0C29.3156 0 19.2706 4.16078 11.7156 11.7156C4.16063 19.2706 0 29.3156 0 40C0 50.6844 4.16063 60.7294 11.7156 68.2844C19.2706 75.8392 29.3156 80 40 80C50.6844 80 60.7294 75.8392 68.2844 68.2844C75.8392 60.7294 80 50.6844 80 40C80 31.8769 77.5786 24.0567 72.9977 17.3848ZM12.8564 15.0661L16.5252 18.7348C16.8303 19.0398 17.2302 19.1925 17.63 19.1925C18.0298 19.1925 18.4298 19.0398 18.7348 18.7348C19.345 18.1247 19.345 17.1353 18.7348 16.525L15.0661 12.8562C21.2773 7.14625 29.4466 3.53453 38.4375 3.15766V13.4731C25.0258 14.2537 14.2537 25.0259 13.473 38.4375H3.15766C3.53453 29.4466 7.14625 21.2773 12.8564 15.0661ZM38.4375 76.8423C29.4466 76.4655 21.2773 72.8538 15.0661 67.1436L18.7348 63.4748C19.345 62.8647 19.3452 61.8753 18.7348 61.265C18.1247 60.6552 17.1353 60.655 16.5252 61.265L12.8564 64.9337C7.14625 58.7227 3.53453 50.5534 3.15766 41.5625H13.473C14.2537 54.9741 25.0258 65.7463 38.4375 66.5269V76.8423ZM16.5525 40C16.5525 27.0711 27.0709 16.5525 40 16.5525C52.9289 16.5525 63.4475 27.0709 63.4475 40C63.4475 52.9291 52.9289 63.4475 40 63.4475C27.0709 63.4475 16.5525 52.9289 16.5525 40ZM67.1436 64.9339L63.4748 61.2652C62.8645 60.6552 61.8755 60.6552 61.265 61.2652C60.6548 61.8753 60.6548 62.8647 61.265 63.475L64.9337 67.1438C58.7225 72.8539 50.5533 76.4656 41.5623 76.8425V66.5272C54.9739 65.7466 65.7461 54.9744 66.5267 41.5628H76.842C76.4655 50.5534 72.8538 58.7227 67.1436 64.9339Z" fill="#05294A"/>
</svg>
