<svg width="120" height="40" viewBox="0 0 120 40" fill="none" xmlns="http://www.w3.org/2000/svg">
<g clip-path="url(#clip0)">
<path d="M110.444 7.92969e-06H9.56145C9.19372 7.92969e-06 8.8304 7.92975e-06 8.46364 0.00200793C8.15663 0.00400793 7.85207 0.00981793 7.54211 0.0147079C6.86874 0.0226097 6.19695 0.0816842 5.53259 0.191418C4.86915 0.303541 4.2265 0.514924 3.62637 0.818418C3.02697 1.12448 2.47929 1.52218 2.00318 1.99708C1.52457 2.47064 1.12561 3.01802 0.82165 3.61817C0.516847 4.21712 0.305496 4.85895 0.194896 5.52149C0.083244 6.18319 0.0231632 6.85253 0.0151925 7.52349C0.00588648 7.83009 0.00490373 8.13771 0 8.44435V31.5586C0.00490373 31.8691 0.00588648 32.1699 0.0151925 32.4805C0.0231657 33.1514 0.0832464 33.8207 0.194896 34.4824C0.30519 35.1453 0.516554 35.7875 0.82165 36.3867C1.12548 36.9849 1.52449 37.5301 2.00318 38.001C2.47748 38.478 3.02552 38.876 3.62637 39.1797C4.2265 39.484 4.86908 39.6967 5.53259 39.8105C6.19707 39.9194 6.86879 39.9785 7.54211 39.9873C7.85207 39.9941 8.15663 39.998 8.46364 39.998C8.83039 40 9.19374 40 9.56145 40H110.444C110.804 40 111.171 40 111.531 39.998C111.837 39.998 112.15 39.9941 112.455 39.9873C113.128 39.9789 113.798 39.9198 114.461 39.8105C115.127 39.6959 115.772 39.4833 116.375 39.1797C116.975 38.8758 117.522 38.4779 117.996 38.001C118.474 37.5282 118.874 36.9835 119.181 36.3867C119.484 35.7871 119.693 35.145 119.802 34.4824C119.914 33.8206 119.976 33.1515 119.988 32.4805C119.992 32.1699 119.992 31.8691 119.992 31.5586C120 31.1953 120 30.834 120 30.4648V9.53614C120 9.16993 120 8.80665 119.992 8.44435C119.992 8.13771 119.992 7.83009 119.988 7.52345C119.976 6.85243 119.914 6.18324 119.802 5.52145C119.693 4.85929 119.484 4.21751 119.181 3.61813C118.562 2.4152 117.581 1.43603 116.375 0.818328C115.772 0.515575 115.127 0.304248 114.461 0.191328C113.798 0.0811107 113.128 0.0220157 112.455 0.0145679C112.15 0.00968793 111.837 0.00382793 111.531 0.00187793C111.171 -0.00012207 110.804 -0.00012207 110.444 -0.00012207V7.92969e-06Z" fill="#A6A6A6"/>
<path d="M8.46856 39.125C8.16303 39.125 7.86487 39.1211 7.56174 39.1143C6.93376 39.1061 6.30725 39.0516 5.68735 38.9512C5.10932 38.8519 4.54937 38.6673 4.02596 38.4033C3.50735 38.1415 3.03433 37.7983 2.62504 37.3867C2.20981 36.98 1.86412 36.5082 1.60166 35.9902C1.33631 35.4688 1.15267 34.9099 1.05714 34.333C0.953972 33.7131 0.898156 33.0863 0.890169 32.458C0.883812 32.2471 0.875488 31.5449 0.875488 31.5449V8.44434C0.875488 8.44434 0.884353 7.75293 0.89022 7.5498C0.897867 6.92248 0.953358 6.29665 1.05621 5.67773C1.15192 5.09925 1.3357 4.53875 1.6012 4.01563C1.8627 3.49794 2.20647 3.02586 2.61919 2.61768C3.03145 2.20562 3.50597 1.8606 4.02547 1.59521C4.54767 1.33209 5.10657 1.14873 5.68343 1.05127C6.30537 0.949836 6.93405 0.894996 7.5642 0.88721L8.46906 0.875H111.526L112.442 0.8877C113.066 0.895099 113.689 0.94945 114.305 1.05029C114.888 1.14898 115.453 1.33362 115.981 1.59814C117.022 2.13299 117.869 2.97916 118.403 4.01807C118.664 4.53758 118.845 5.09351 118.939 5.66699C119.044 6.29099 119.102 6.92174 119.114 7.5542C119.117 7.8374 119.117 8.1416 119.117 8.44434C119.125 8.81934 119.125 9.17627 119.125 9.53613V30.4648C119.125 30.8281 119.125 31.1826 119.117 31.54C119.117 31.8652 119.117 32.1631 119.113 32.4697C119.101 33.0909 119.044 33.7104 118.941 34.3232C118.848 34.9043 118.665 35.4675 118.4 35.9932C118.136 36.5056 117.792 36.9733 117.381 37.3789C116.972 37.7927 116.498 38.1379 115.978 38.4014C115.451 38.6674 114.887 38.8527 114.305 38.9512C113.686 39.0522 113.059 39.1067 112.431 39.1143C112.137 39.1211 111.83 39.125 111.531 39.125L110.444 39.127L8.46856 39.125Z" fill="black"/>
<path d="M24.8384 20.3007C24.8492 19.466 25.0715 18.6477 25.4847 17.9217C25.8978 17.1957 26.4885 16.5858 27.2015 16.1486C26.7485 15.5035 26.1509 14.9725 25.4561 14.598C24.7614 14.2234 23.9886 14.0156 23.1992 13.991C21.5152 13.8147 19.8827 14.9958 19.0246 14.9958C18.1499 14.9958 16.8287 14.0085 15.406 14.0376C14.4857 14.0673 13.5889 14.3341 12.8028 14.8122C12.0167 15.2903 11.3682 15.9632 10.9205 16.7655C8.98105 20.1139 10.4277 25.035 12.2855 27.7416C13.215 29.0669 14.3013 30.5474 15.7228 30.4949C17.1137 30.4374 17.6332 29.6104 19.3122 29.6104C20.9756 29.6104 21.463 30.4949 22.9133 30.4615C24.4058 30.4374 25.3462 29.1303 26.2431 27.7924C26.911 26.848 27.4249 25.8043 27.7658 24.6999C26.8987 24.3341 26.1587 23.722 25.6381 22.9397C25.1175 22.1574 24.8394 21.2396 24.8384 20.3007Z" fill="white"/>
<path d="M22.0992 12.211C22.913 11.2367 23.3139 9.98457 23.2168 8.72034C21.9735 8.85056 20.825 9.44312 20.0002 10.3799C19.597 10.8376 19.2881 11.37 19.0913 11.9468C18.8945 12.5236 18.8136 13.1334 18.8533 13.7413C19.4752 13.7477 20.0904 13.6133 20.6527 13.3482C21.2149 13.0831 21.7095 12.6943 22.0992 12.211Z" fill="white"/>
<path d="M42.421 27.1397H37.6743L36.5344 30.4961H34.5239L39.0199 18.0781H41.1088L45.6047 30.4961H43.56L42.421 27.1397ZM38.166 25.5908H41.9285L40.0737 20.1436H40.0218L38.166 25.5908Z" fill="white"/>
<path d="M55.3145 25.9698C55.3145 28.7833 53.8044 30.5909 51.5256 30.5909C50.9483 30.621 50.3742 30.4884 49.869 30.2083C49.3638 29.9281 48.9479 29.5118 48.6689 29.0069H48.6258V33.4913H46.7622V21.4425H48.5661V22.9483H48.6004C48.8922 22.4459 49.3151 22.0317 49.8241 21.7498C50.3332 21.468 50.9093 21.329 51.4913 21.3477C53.7956 21.3477 55.3145 23.1641 55.3145 25.9698ZM53.399 25.9698C53.399 24.1368 52.449 22.9317 50.9997 22.9317C49.5758 22.9317 48.618 24.1622 48.618 25.9698C48.618 27.794 49.5758 29.0157 50.9997 29.0157C52.4491 29.0157 53.399 27.8194 53.399 25.9698Z" fill="white"/>
<path d="M65.3074 25.9698C65.3074 28.7833 63.7973 30.5909 61.5185 30.5909C60.9412 30.621 60.3671 30.4884 59.8619 30.2083C59.3567 29.9281 58.9408 29.5118 58.6619 29.0069H58.6187V33.4913H56.7551V21.4425H58.559V22.9483H58.5933C58.885 22.4459 59.308 22.0317 59.817 21.7498C60.3261 21.468 60.9022 21.329 61.4842 21.3477C63.7885 21.3477 65.3074 23.1641 65.3074 25.9698ZM63.3919 25.9698C63.3919 24.1368 62.442 22.9317 60.9926 22.9317C59.5687 22.9317 58.6109 24.1622 58.6109 25.9698C58.6109 27.794 59.5687 29.0157 60.9926 29.0157C62.442 29.0157 63.3919 27.8194 63.3919 25.9698H63.3919Z" fill="white"/>
<path d="M71.9119 27.0362C72.05 28.2676 73.2496 29.0762 74.889 29.0762C76.4598 29.0762 77.5899 28.2676 77.5899 27.1572C77.5899 26.1934 76.9083 25.6162 75.2944 25.2207L73.6805 24.833C71.3938 24.2822 70.3322 23.2158 70.3322 21.4854C70.3322 19.3428 72.2047 17.8711 74.8635 17.8711C77.4949 17.8711 79.2988 19.3428 79.3595 21.4854H77.4782C77.3656 20.2461 76.3383 19.4981 74.837 19.4981C73.3358 19.4981 72.3085 20.2549 72.3085 21.3565C72.3085 22.2344 72.9646 22.751 74.5697 23.1465L75.9417 23.4824C78.4967 24.0849 79.5583 25.1084 79.5583 26.9248C79.5583 29.248 77.7025 30.7031 74.7508 30.7031C71.9892 30.7031 70.1246 29.2822 70.0042 27.0361L71.9119 27.0362Z" fill="white"/>
<path d="M83.5802 19.2998V21.4424H85.3067V22.9141H83.5802V27.9053C83.5802 28.6807 83.9259 29.042 84.6849 29.042C84.8898 29.0384 85.0945 29.0241 85.2979 28.999V30.4619C84.9567 30.5255 84.6099 30.5543 84.2628 30.5478C82.4246 30.5478 81.7078 29.8593 81.7078 28.1035V22.9141H80.3877V21.4424H81.7078V19.2998H83.5802Z" fill="white"/>
<path d="M86.3066 25.9697C86.3066 23.1211 87.9891 21.3311 90.6126 21.3311C93.245 21.3311 94.9196 23.1211 94.9196 25.9697C94.9196 28.8262 93.2538 30.6084 90.6126 30.6084C87.9724 30.6084 86.3066 28.8262 86.3066 25.9697ZM93.0207 25.9697C93.0207 24.0156 92.1227 22.8623 90.6126 22.8623C89.1025 22.8623 88.2055 24.0244 88.2055 25.9697C88.2055 27.9316 89.1025 29.0762 90.6126 29.0762C92.1227 29.0762 93.0207 27.9316 93.0207 25.9697H93.0207Z" fill="white"/>
<path d="M96.4561 21.4424H98.2335V22.9834H98.2766C98.3969 22.5021 98.6796 22.0768 99.0773 21.7789C99.475 21.481 99.9634 21.3287 100.46 21.3476C100.675 21.3469 100.889 21.3702 101.099 21.417V23.1553C100.828 23.0726 100.545 23.0347 100.262 23.043C99.9909 23.032 99.721 23.0796 99.4704 23.1825C99.2199 23.2854 98.9946 23.4411 98.8102 23.639C98.6257 23.8369 98.4863 24.0723 98.4016 24.3289C98.317 24.5856 98.289 24.8575 98.3197 25.126V30.4961H96.4561L96.4561 21.4424Z" fill="white"/>
<path d="M109.691 27.8369C109.441 29.4805 107.836 30.6084 105.782 30.6084C103.141 30.6084 101.501 28.8437 101.501 26.0127C101.501 23.1729 103.15 21.3311 105.704 21.3311C108.216 21.3311 109.795 23.0518 109.795 25.7969V26.4336H103.383V26.5459C103.353 26.8791 103.395 27.2148 103.505 27.5306C103.616 27.8464 103.793 28.1352 104.024 28.3778C104.255 28.6203 104.535 28.8111 104.845 28.9374C105.156 29.0637 105.49 29.1226 105.825 29.1103C106.265 29.1515 106.707 29.0498 107.085 28.8203C107.463 28.5909 107.756 28.246 107.922 27.8369L109.691 27.8369ZM103.392 25.1348H107.931C107.947 24.8352 107.902 24.5354 107.797 24.2541C107.692 23.9729 107.53 23.7164 107.321 23.5006C107.111 23.2849 106.86 23.1145 106.582 23.0003C106.303 22.8861 106.004 22.8305 105.704 22.8369C105.4 22.8351 105.099 22.8933 104.819 23.008C104.538 23.1227 104.282 23.2918 104.067 23.5054C103.853 23.7191 103.682 23.973 103.566 24.2527C103.45 24.5323 103.391 24.8321 103.392 25.1348V25.1348Z" fill="white"/>
<path d="M37.9323 8.73101C38.323 8.70305 38.7151 8.76191 39.0802 8.90335C39.4453 9.04478 39.7745 9.26526 40.0438 9.54889C40.3131 9.83251 40.516 10.1722 40.6377 10.5435C40.7595 10.9148 40.7971 11.3083 40.7478 11.6959C40.7478 13.6021 39.7147 14.6979 37.9323 14.6979H35.771V8.73101H37.9323ZM36.7003 13.854H37.8285C38.1077 13.8707 38.3871 13.825 38.6463 13.7204C38.9056 13.6158 39.1382 13.4548 39.3272 13.2493C39.5163 13.0437 39.6569 12.7987 39.739 12.5321C39.8211 12.2655 39.8426 11.9839 39.8018 11.708C39.8396 11.4332 39.816 11.1534 39.7326 10.8887C39.6493 10.6241 39.5083 10.3811 39.3197 10.1771C39.1311 9.97322 38.8996 9.81341 38.6418 9.70917C38.384 9.60494 38.1063 9.55885 37.8285 9.57422H36.7003V13.854Z" fill="white"/>
<path d="M41.7977 12.4444C41.7693 12.1485 41.8032 11.8499 41.8973 11.5679C41.9914 11.2858 42.1436 11.0264 42.3441 10.8065C42.5446 10.5865 42.789 10.4107 43.0616 10.2904C43.3343 10.1702 43.6291 10.108 43.9272 10.108C44.2253 10.108 44.5201 10.1702 44.7927 10.2904C45.0653 10.4107 45.3097 10.5865 45.5102 10.8065C45.7107 11.0264 45.8629 11.2858 45.957 11.5679C46.0511 11.8499 46.0851 12.1485 46.0567 12.4444C46.0856 12.7406 46.0521 13.0396 45.9582 13.3221C45.8643 13.6047 45.7122 13.8645 45.5117 14.0849C45.3111 14.3053 45.0666 14.4814 44.7937 14.602C44.5208 14.7225 44.2256 14.7848 43.9272 14.7848C43.6287 14.7848 43.3336 14.7225 43.0607 14.602C42.7878 14.4814 42.5432 14.3053 42.3426 14.0849C42.1421 13.8645 41.99 13.6047 41.8961 13.3221C41.8023 13.0396 41.7687 12.7406 41.7977 12.4444ZM45.14 12.4444C45.14 11.4683 44.7003 10.8975 43.9286 10.8975C43.154 10.8975 42.7182 11.4683 42.7182 12.4444C42.7182 13.4283 43.154 13.9947 43.9286 13.9947C44.7003 13.9947 45.14 13.4244 45.14 12.4444H45.14Z" fill="white"/>
<path d="M51.7179 14.6978H50.7934L49.8602 11.3813H49.7897L48.8603 14.6978H47.9446L46.7 10.1948H47.6039L48.4128 13.6308H48.4794L49.4077 10.1948H50.2627L51.191 13.6308H51.2616L52.0665 10.1948H52.9577L51.7179 14.6978Z" fill="white"/>
<path d="M54.0046 10.1949H54.8625V10.9102H54.9291C55.0421 10.6533 55.2326 10.4379 55.4742 10.2941C55.7157 10.1503 55.9962 10.0852 56.2766 10.1079C56.4963 10.0915 56.717 10.1245 56.9221 10.2046C57.1273 10.2847 57.3118 10.4098 57.4619 10.5707C57.612 10.7315 57.7239 10.924 57.7893 11.1338C57.8546 11.3436 57.8718 11.5654 57.8396 11.7827V14.6977H56.9484V12.0059C56.9484 11.2823 56.6331 10.9224 55.974 10.9224C55.8248 10.9155 55.6759 10.9408 55.5375 10.9966C55.399 11.0525 55.2743 11.1375 55.1719 11.2459C55.0695 11.3543 54.9918 11.4834 54.9442 11.6246C54.8965 11.7657 54.88 11.9154 54.8958 12.0635V14.6978H54.0046L54.0046 10.1949Z" fill="white"/>
<path d="M59.2595 8.43701H60.1507V14.6978H59.2595V8.43701Z" fill="white"/>
<path d="M61.3897 12.4444C61.3613 12.1484 61.3953 11.8499 61.4894 11.5678C61.5835 11.2857 61.7357 11.0263 61.9363 10.8064C62.1368 10.5864 62.3812 10.4106 62.6538 10.2903C62.9265 10.17 63.2213 10.1079 63.5194 10.1079C63.8176 10.1079 64.1124 10.17 64.385 10.2903C64.6576 10.4106 64.9021 10.5864 65.1026 10.8064C65.3031 11.0263 65.4553 11.2857 65.5494 11.5678C65.6436 11.8499 65.6775 12.1484 65.6492 12.4444C65.6781 12.7406 65.6445 13.0396 65.5506 13.3221C65.4567 13.6046 65.3046 13.8645 65.104 14.0849C64.9034 14.3053 64.6589 14.4814 64.386 14.6019C64.1131 14.7225 63.8179 14.7847 63.5194 14.7847C63.221 14.7847 62.9258 14.7225 62.6529 14.6019C62.38 14.4814 62.1354 14.3053 61.9348 14.0849C61.7343 13.8645 61.5821 13.6046 61.4883 13.3221C61.3944 13.0396 61.3608 12.7406 61.3897 12.4444ZM64.732 12.4444C64.732 11.4683 64.2923 10.8975 63.5207 10.8975C62.746 10.8975 62.3103 11.4683 62.3103 12.4444C62.3103 13.4283 62.7461 13.9947 63.5207 13.9947C64.2923 13.9947 64.732 13.4244 64.732 12.4444H64.732Z" fill="white"/>
<path d="M66.5872 13.4243C66.5872 12.6138 67.1924 12.1465 68.2667 12.0801L69.4898 12.0098V11.6211C69.4898 11.1455 69.1745 10.877 68.5654 10.877C68.0679 10.877 67.7232 11.0591 67.6242 11.3774H66.7615C66.8525 10.604 67.5821 10.1079 68.6065 10.1079C69.7386 10.1079 70.3771 10.6699 70.3771 11.6211V14.6977H69.5192V14.0649H69.4487C69.3056 14.2919 69.1046 14.477 68.8663 14.6012C68.628 14.7254 68.3609 14.7843 68.0923 14.7719C67.9028 14.7916 67.7112 14.7714 67.5299 14.7127C67.3487 14.654 67.1817 14.5581 67.0399 14.4311C66.8981 14.3042 66.7845 14.149 66.7066 13.9756C66.6286 13.8021 66.5879 13.6144 66.5872 13.4243ZM69.4898 13.0395V12.6631L68.3871 12.7334C67.7653 12.7749 67.4832 12.9858 67.4832 13.3828C67.4832 13.7881 67.8358 14.0239 68.3206 14.0239C68.4626 14.0382 68.6061 14.0239 68.7425 13.9819C68.8789 13.9398 69.0054 13.8707 69.1145 13.7789C69.2235 13.6871 69.313 13.5743 69.3775 13.4473C69.442 13.3202 69.4802 13.1816 69.4898 13.0395Z" fill="white"/>
<path d="M71.5483 12.4444C71.5483 11.0215 72.2818 10.1201 73.4227 10.1201C73.7049 10.1072 73.985 10.1746 74.2302 10.3145C74.4754 10.4544 74.6756 10.661 74.8075 10.9101H74.8741V8.43701H75.7652V14.6978H74.9113V13.9863H74.8408C74.6988 14.2338 74.4916 14.4378 74.2416 14.5763C73.9917 14.7148 73.7085 14.7825 73.4227 14.772C72.274 14.772 71.5483 13.8706 71.5483 12.4444ZM72.4689 12.4444C72.4689 13.3994 72.9204 13.9741 73.6754 13.9741C74.4265 13.9741 74.8907 13.3911 74.8907 12.4483C74.8907 11.5098 74.4217 10.9185 73.6754 10.9185C72.9252 10.9185 72.4689 11.4971 72.4689 12.4444H72.4689Z" fill="white"/>
<path d="M79.4525 12.4444C79.4241 12.1485 79.458 11.8499 79.5521 11.5679C79.6462 11.2858 79.7984 11.0264 79.9989 10.8065C80.1994 10.5865 80.4438 10.4107 80.7164 10.2904C80.989 10.1702 81.2838 10.108 81.582 10.108C81.8801 10.108 82.1749 10.1702 82.4475 10.2904C82.7201 10.4107 82.9645 10.5865 83.165 10.8065C83.3655 11.0264 83.5177 11.2858 83.6118 11.5679C83.7059 11.8499 83.7398 12.1485 83.7114 12.4444C83.7404 12.7406 83.7068 13.0396 83.613 13.3221C83.5191 13.6047 83.367 13.8645 83.1665 14.0849C82.9659 14.3053 82.7213 14.4814 82.4485 14.602C82.1756 14.7225 81.8804 14.7848 81.582 14.7848C81.2835 14.7848 80.9883 14.7225 80.7154 14.602C80.4426 14.4814 80.198 14.3053 79.9974 14.0849C79.7969 13.8645 79.6448 13.6047 79.5509 13.3221C79.4571 13.0396 79.4235 12.7406 79.4525 12.4444ZM82.7948 12.4444C82.7948 11.4683 82.3551 10.8975 81.5834 10.8975C80.8088 10.8975 80.373 11.4683 80.373 12.4444C80.373 13.4283 80.8088 13.9947 81.5834 13.9947C82.3551 13.9947 82.7948 13.4244 82.7948 12.4444Z" fill="white"/>
<path d="M84.907 10.1949H85.7649V10.9102H85.8315C85.9444 10.6533 86.135 10.4379 86.3765 10.2941C86.6181 10.1503 86.8986 10.0852 87.179 10.1079C87.3987 10.0915 87.6193 10.1245 87.8245 10.2046C88.0297 10.2847 88.2141 10.4098 88.3642 10.5707C88.5143 10.7315 88.6262 10.924 88.6916 11.1338C88.757 11.3436 88.7742 11.5654 88.7419 11.7827V14.6977H87.8508V12.0059C87.8508 11.2823 87.5355 10.9224 86.8764 10.9224C86.7272 10.9155 86.5783 10.9408 86.4398 10.9966C86.3014 11.0525 86.1767 11.1375 86.0743 11.2459C85.9719 11.3543 85.8942 11.4834 85.8465 11.6246C85.7988 11.7657 85.7824 11.9154 85.7982 12.0635V14.6978H84.907V10.1949Z" fill="white"/>
<path d="M93.7777 9.07373V10.2153H94.756V10.9639H93.7777V13.2793C93.7777 13.751 93.9726 13.9575 94.4162 13.9575C94.5298 13.9572 94.6432 13.9503 94.756 13.937V14.6772C94.596 14.7058 94.4338 14.721 94.2713 14.7226C93.2802 14.7226 92.8856 14.375 92.8856 13.5068V10.9638H92.1687V10.2153H92.8856V9.07373H93.7777Z" fill="white"/>
<path d="M95.9731 8.43701H96.8565V10.9185H96.927C97.0454 10.6591 97.2412 10.4425 97.4876 10.2982C97.734 10.1539 98.019 10.0888 98.3038 10.1118C98.5224 10.1 98.7409 10.1364 98.9438 10.2184C99.1466 10.3004 99.3288 10.4261 99.4773 10.5864C99.6259 10.7468 99.7371 10.9378 99.803 11.146C99.869 11.3541 99.8881 11.5742 99.859 11.7905V14.6978H98.9669V12.0098C98.9669 11.2905 98.631 10.9263 98.0013 10.9263C97.8481 10.9137 97.6941 10.9347 97.5499 10.9878C97.4057 11.0408 97.2749 11.1247 97.1666 11.2334C97.0583 11.3421 96.9752 11.4732 96.9229 11.6173C96.8707 11.7614 96.8507 11.9152 96.8643 12.0679V14.6977H95.9732L95.9731 8.43701Z" fill="white"/>
<path d="M105.055 13.4819C104.934 13.8934 104.672 14.2494 104.314 14.4876C103.956 14.7257 103.526 14.8309 103.099 14.7846C102.801 14.7924 102.505 14.7356 102.232 14.6181C101.959 14.5006 101.715 14.3251 101.516 14.104C101.318 13.8829 101.17 13.6213 101.083 13.3375C100.996 13.0537 100.972 12.7544 101.013 12.4604C100.973 12.1655 100.997 11.8656 101.084 11.5809C101.171 11.2962 101.318 11.0335 101.515 10.8104C101.713 10.5873 101.956 10.4092 102.228 10.2879C102.501 10.1667 102.796 10.1053 103.095 10.1079C104.351 10.1079 105.109 10.9639 105.109 12.3779V12.688H101.92V12.7378C101.907 12.903 101.927 13.0693 101.982 13.2261C102.036 13.3828 102.122 13.5265 102.236 13.648C102.349 13.7694 102.486 13.866 102.639 13.9314C102.792 13.9968 102.957 14.0296 103.123 14.0278C103.336 14.0533 103.552 14.015 103.743 13.9178C103.935 13.8206 104.093 13.6688 104.197 13.4819L105.055 13.4819ZM101.92 12.0307H104.201C104.212 11.8796 104.192 11.7278 104.141 11.5851C104.09 11.4423 104.009 11.3119 103.905 11.202C103.8 11.0922 103.673 11.0053 103.533 10.9472C103.393 10.889 103.242 10.8607 103.09 10.8642C102.936 10.8623 102.783 10.8911 102.64 10.9491C102.497 11.007 102.367 11.0929 102.258 11.2016C102.149 11.3103 102.063 11.4397 102.005 11.5821C101.947 11.7245 101.918 11.877 101.92 12.0307H101.92Z" fill="white"/>
</g>
<defs>
<clipPath id="clip0">
<rect width="120" height="40" fill="white"/>
</clipPath>
</defs>
</svg>
