<svg width="144" height="40" viewBox="0 0 144 40" fill="none" xmlns="http://www.w3.org/2000/svg">
<g opacity="0.5">
<path fill-rule="evenodd" clip-rule="evenodd" d="M0 0H40.3511V17.8699H0V0Z" fill="#05294A"/>
<path fill-rule="evenodd" clip-rule="evenodd" d="M24.6748 33.8882H40.3511V17.8699H24.6748V33.8882Z" fill="#05294A"/>
<path fill-rule="evenodd" clip-rule="evenodd" d="M24.6746 40H6.6792V17.8699H24.6746V40Z" fill="#05294A"/>
<path fill-rule="evenodd" clip-rule="evenodd" d="M112.964 0.60083L120.814 10.0332L110.792 20.1487H120.75L125.86 14.4418L133.878 22.9852H142.259L130.852 9.54154L139.332 0.60083H129.366L126.071 5.27593L122.546 0.60083H112.964Z" fill="#05294A"/>
<path fill-rule="evenodd" clip-rule="evenodd" d="M93.7429 0.60083V20.1487H117.148V15.923H100.807V12.2844H114.189V8.06717H100.807V4.21952H110.718V0.60083H93.7429Z" fill="#05294A"/>
<path fill-rule="evenodd" clip-rule="evenodd" d="M78.8239 4.87565H81.0399C81.6595 4.87565 82.6154 4.93942 83.272 5.44573C83.5768 5.68006 83.8916 6.10109 83.8916 6.75645C83.8916 7.24048 83.723 7.703 83.2042 8.0956C82.5562 8.58577 81.7611 8.63725 81.0737 8.63725H78.8232V4.87565H78.8239ZM72.0599 0.60083V20.1487H78.8247V12.8537H79.6652L88.7814 22.9845H96.8178L86.7525 12.0416C89.6373 12.0823 92.2997 9.70979 92.1511 6.47141C91.9318 1.72639 87.6877 0.60083 83.7946 0.60083H72.0599ZM50.5593 0.60083V4.21952H56.379V20.1487H63.5917V4.21952H70.1595V0.60083H50.5593Z" fill="#05294A"/>
<path fill-rule="evenodd" clip-rule="evenodd" d="M59.5251 35.4486H58.4567L57.5554 30.092L54.9893 35.6276L52.4193 30.089L51.5187 35.4486H50.4512L51.9821 27.0019L54.9908 33.3481L57.9972 27.0081L59.5251 35.4486ZM64.8436 34.2562C64.6177 34.6682 64.282 35.0099 63.8738 35.2435C63.4451 35.4985 62.9894 35.6276 62.5061 35.6276C61.7264 35.6276 61.0968 35.3802 60.6188 34.8893C60.1393 34.3953 59.8991 33.7507 59.8991 32.9509C59.8991 32.2079 60.1239 31.5841 60.5749 31.077C61.0467 30.5499 61.6563 30.2849 62.4029 30.2849C63.1649 30.2849 63.7668 30.543 64.2102 31.0562C64.6327 31.5441 64.8436 32.1726 64.8436 32.9393V33.1061H60.8913C60.8913 33.6016 61.0375 34.005 61.3308 34.3154C61.6232 34.6258 62.0027 34.7817 62.4676 34.7817C63.1688 34.7817 63.6999 34.4636 64.0601 33.8275L64.8436 34.2562ZM63.8892 32.3816C63.8269 32.0036 63.6683 31.697 63.4082 31.4665C63.1503 31.2337 62.8255 31.1185 62.436 31.1185C62.0612 31.1185 61.7295 31.2337 61.4439 31.465C61.1568 31.6957 60.9608 32.0204 60.8905 32.3816H63.8892ZM70.5039 35.4486H69.5341V34.6035C69.0692 35.285 68.4704 35.6269 67.7361 35.6269C67.0757 35.6269 66.5169 35.3702 66.0628 34.8601C65.6087 34.3515 65.3816 33.7268 65.3816 32.9931C65.3816 32.2072 65.6072 31.5587 66.0551 31.0486C66.5039 30.5399 67.0711 30.2833 67.7577 30.2833C68.4627 30.2833 69.0538 30.6298 69.5334 31.3259V26.7883H70.5032V35.4486H70.5039ZM69.5811 33.0031V32.9086C69.5811 32.4 69.4271 31.9797 69.1177 31.644C68.9735 31.4823 68.7959 31.3536 68.5971 31.2669C68.3984 31.1801 68.1832 31.1374 67.9663 31.1415C67.5014 31.1415 67.115 31.3113 66.8071 31.6532C66.5 31.9936 66.3461 32.423 66.3461 32.9393C66.3461 33.4748 66.4977 33.9135 66.8017 34.257C67.1058 34.5989 67.4975 34.7702 67.977 34.7702C68.4535 34.7702 68.8399 34.6065 69.1354 34.2793C69.4325 33.9497 69.5811 33.5233 69.5811 33.0031ZM72.8831 28.1382C72.8831 28.3126 72.8153 28.4686 72.6799 28.6046C72.5444 28.7398 72.3889 28.8074 72.2127 28.8074C72.0364 28.8074 71.8817 28.7398 71.7462 28.6046C71.6825 28.5446 71.6317 28.4723 71.5968 28.3922C71.5619 28.312 71.5436 28.2256 71.543 28.1382C71.5431 28.0513 71.5612 27.9654 71.5962 27.8858C71.6311 27.8062 71.6822 27.7347 71.7462 27.6757C71.8817 27.5451 72.0372 27.479 72.2127 27.479C72.3881 27.479 72.5444 27.5451 72.6799 27.6757C72.744 27.7345 72.7952 27.806 72.8302 27.8857C72.8652 27.9653 72.8832 28.0513 72.8831 28.1382ZM72.6968 35.4486H71.7324V30.4393H72.6968V35.4486ZM77.7167 35.2942C77.3065 35.5147 76.8347 35.6276 76.302 35.6276C75.5477 35.6276 74.9127 35.3695 74.3986 34.8547C73.886 34.3369 73.6304 33.7023 73.6304 32.9501C73.6304 32.2072 73.8829 31.5771 74.3893 31.0608C74.8943 30.543 75.5139 30.2833 76.2474 30.2833C76.8516 30.2833 77.3403 30.3947 77.7159 30.6168V31.6655C77.3704 31.329 76.8862 31.1615 76.2697 31.1615C75.8079 31.1615 75.4084 31.3382 75.0759 31.6939C74.7471 32.0329 74.5666 32.4883 74.5741 32.9601C74.5741 33.448 74.7334 33.8667 75.0536 34.2101C75.3738 34.5551 75.7602 34.7264 76.2143 34.7264C76.7738 34.7264 77.2726 34.5658 77.7159 34.2447V35.2942H77.7167ZM83.4994 35.4486H82.5281V34.6365C82.0662 35.2949 81.479 35.6269 80.7632 35.6269C80.0835 35.6269 79.5186 35.3702 79.066 34.8586C78.6149 34.3453 78.3879 33.7092 78.3879 32.9501C78.3879 32.1818 78.6149 31.5456 79.0691 31.0416C79.5232 30.5361 80.0958 30.2841 80.7855 30.2841C81.5505 30.2841 82.1309 30.6229 82.5281 31.3059V30.4401H83.4994V35.4486ZM82.5873 32.9501C82.5873 32.4069 82.4342 31.9705 82.1255 31.6371C81.8192 31.3067 81.4251 31.1407 80.9456 31.1407C80.4945 31.1407 80.1174 31.3136 79.8118 31.6586C79.507 32.002 79.3531 32.43 79.3531 32.9386C79.3531 33.471 79.5062 33.9097 79.8134 34.2531C80.1212 34.5981 80.5107 34.7694 80.9833 34.7694C81.4566 34.7694 81.84 34.5996 82.1394 34.2577C82.4372 33.9182 82.5873 33.4818 82.5873 32.9501ZM85.7754 35.4486H84.8117V26.7891H85.7754V35.4486ZM96.4564 35.0437C95.7436 35.434 95.0448 35.6276 94.3574 35.6276C93.0028 35.6276 91.9298 35.2358 91.1371 34.4529C90.345 33.6685 89.9494 32.6236 89.9494 31.3167C89.9494 30.0321 90.3812 28.9849 91.2471 28.1759C92.0799 27.3968 93.1205 27.0081 94.3682 27.0081C95.1802 27.0081 95.8714 27.194 96.4441 27.5651V28.7744C95.8476 28.2251 95.1164 27.9508 94.2551 27.9508C93.3245 27.9508 92.5564 28.2481 91.9429 28.8435C91.3041 29.4689 90.9839 30.2933 90.9839 31.3167C90.9839 32.357 91.3041 33.1867 91.9429 33.8075C92.5487 34.3914 93.3153 34.6841 94.2458 34.6841C95.0709 34.6841 95.806 34.396 96.4556 33.8167V35.0437H96.4564ZM102.572 32.9501C102.572 33.6946 102.309 34.3292 101.783 34.8486C101.258 35.3679 100.621 35.6276 99.8715 35.6276C99.1172 35.6276 98.4776 35.3679 97.9581 34.8486C97.4385 34.3292 97.1776 33.6946 97.1776 32.9501C97.1776 32.2072 97.4377 31.5771 97.9581 31.0608C98.4784 30.543 99.1172 30.2833 99.8715 30.2833C100.625 30.2833 101.264 30.543 101.788 31.0608C102.311 31.5771 102.572 32.2079 102.572 32.9501ZM101.603 32.9501C101.603 32.4668 101.434 32.0558 101.095 31.717C100.937 31.5522 100.747 31.4216 100.536 31.3336C100.326 31.2455 100.099 31.2019 99.8707 31.2053C99.6422 31.2015 99.4153 31.245 99.2044 31.333C98.9935 31.4211 98.8032 31.5518 98.6454 31.717C98.4822 31.8778 98.3535 32.07 98.2669 32.282C98.1804 32.4939 98.1379 32.7212 98.142 32.9501C98.142 33.4395 98.3106 33.8536 98.6454 34.194C98.8032 34.3591 98.9935 34.4899 99.2044 34.5779C99.4153 34.666 99.6422 34.7095 99.8707 34.7057C100.347 34.7057 100.756 34.5328 101.095 34.1924C101.434 33.849 101.603 33.4364 101.603 32.9501ZM106.524 30.4401L106.305 31.4143C106.128 31.2744 105.912 31.2061 105.655 31.2061C105.276 31.2061 104.975 31.3682 104.754 31.6939C104.55 31.9943 104.448 32.3769 104.448 32.8433V35.4501H103.483V30.4408H104.417V31.286C104.789 30.6198 105.235 30.2849 105.757 30.2849C105.983 30.2841 106.238 30.3348 106.524 30.4401ZM112.358 32.9501C112.358 33.7245 112.137 34.3638 111.696 34.8678C111.255 35.3749 110.688 35.6269 109.998 35.6269C109.29 35.6269 108.701 35.2919 108.229 34.6242V38.4089H107.264V30.4393H108.229V31.3052C108.708 30.6222 109.298 30.2833 109.998 30.2833C110.681 30.2833 111.244 30.5369 111.689 31.0439C112.134 31.5503 112.358 32.1864 112.358 32.9501ZM111.372 32.9386C111.372 32.4177 111.224 31.989 110.929 31.6494C110.634 31.3098 110.251 31.1407 109.779 31.1407C109.343 31.1407 108.965 31.3167 108.65 31.6693C108.333 32.0205 108.175 32.4438 108.175 32.9386C108.175 33.4641 108.322 33.8989 108.615 34.2393C108.919 34.592 109.314 34.7687 109.801 34.7687C110.267 34.7687 110.649 34.5973 110.938 34.2524C111.227 33.9089 111.372 33.471 111.372 32.9386ZM118.531 32.9501C118.531 33.6946 118.268 34.3292 117.742 34.8486C117.217 35.3679 116.58 35.6276 115.83 35.6276C115.076 35.6276 114.436 35.3679 113.917 34.8486C113.397 34.3292 113.136 33.6946 113.136 32.9501C113.136 32.2072 113.397 31.5771 113.917 31.0608C114.437 30.543 115.076 30.2833 115.83 30.2833C116.584 30.2833 117.223 30.543 117.747 31.0608C118.269 31.5771 118.531 32.2079 118.531 32.9501ZM117.561 32.9501C117.561 32.4668 117.393 32.0558 117.053 31.717C116.896 31.5522 116.706 31.4216 116.495 31.3336C116.284 31.2455 116.058 31.2019 115.83 31.2053C115.601 31.2015 115.374 31.245 115.163 31.333C114.952 31.4211 114.762 31.5518 114.604 31.717C114.441 31.8778 114.312 32.07 114.226 32.282C114.139 32.4939 114.097 32.7212 114.101 32.9501C114.101 33.4395 114.269 33.8536 114.604 34.194C114.762 34.3591 114.952 34.4899 115.163 34.5779C115.374 34.666 115.601 34.7095 115.83 34.7057C116.306 34.7057 116.715 34.5328 117.053 34.1924C117.218 34.0307 117.348 33.8371 117.435 33.6235C117.523 33.4099 117.566 33.1808 117.561 32.9501ZM122.483 30.4401L122.264 31.4143C122.088 31.2744 121.872 31.2061 121.615 31.2061C121.236 31.2061 120.935 31.3682 120.714 31.6939C120.509 31.9943 120.408 32.3769 120.408 32.8433V35.4501H119.442V30.4408H120.378V31.286C120.749 30.6198 121.195 30.2849 121.717 30.2849C121.942 30.2841 122.198 30.3348 122.483 30.4401ZM127.849 35.4486H126.879V34.6365C126.417 35.2949 125.83 35.6269 125.114 35.6269C124.435 35.6269 123.87 35.3702 123.417 34.8586C122.965 34.3453 122.737 33.7092 122.737 32.9501C122.737 32.1818 122.965 31.5456 123.419 31.0416C123.873 30.5361 124.445 30.2841 125.137 30.2841C125.902 30.2841 126.482 30.6229 126.879 31.3059V30.4401H127.849V35.4486ZM126.938 32.9501C126.938 32.4069 126.785 31.9705 126.476 31.6371C126.168 31.3067 125.775 31.1407 125.294 31.1407C124.845 31.1407 124.468 31.3136 124.162 31.6586C123.856 32.002 123.702 32.43 123.702 32.9386C123.702 33.471 123.855 33.9097 124.164 34.2531C124.472 34.5981 124.861 34.7694 125.334 34.7694C125.806 34.7694 126.19 34.5996 126.488 34.2577C126.788 33.9182 126.938 33.4818 126.938 32.9501ZM130.895 31.339H130.084V35.4486H129.114V31.339H128.523V30.4401H129.114V28.1367H130.084V30.4401H130.895V31.339ZM132.663 28.1382C132.663 28.3126 132.596 28.4686 132.459 28.6046C132.323 28.7398 132.169 28.8074 131.993 28.8074C131.818 28.8074 131.662 28.7398 131.527 28.6046C131.463 28.5449 131.412 28.4727 131.377 28.3925C131.342 28.3123 131.323 28.2258 131.323 28.1382C131.323 27.9623 131.39 27.8094 131.527 27.6757C131.663 27.5451 131.818 27.479 131.993 27.479C132.169 27.479 132.324 27.5451 132.459 27.6757C132.523 27.7344 132.575 27.8058 132.61 27.8854C132.645 27.9651 132.663 28.0512 132.663 28.1382ZM132.477 35.4486H131.512V30.4393H132.477V35.4486ZM138.781 32.9501C138.781 33.6946 138.518 34.3292 137.994 34.8486C137.467 35.3679 136.83 35.6276 136.08 35.6276C135.326 35.6276 134.686 35.3679 134.167 34.8486C133.648 34.3292 133.388 33.6946 133.388 32.9501C133.388 32.2072 133.648 31.5771 134.167 31.0608C134.687 30.543 135.326 30.2833 136.08 30.2833C136.834 30.2833 137.474 30.543 137.997 31.0608C138.519 31.5771 138.781 32.2079 138.781 32.9501ZM137.811 32.9501C137.815 32.721 137.773 32.4934 137.685 32.2813C137.598 32.0693 137.469 31.8773 137.305 31.717C137.147 31.5521 136.956 31.4216 136.745 31.3335C136.535 31.2455 136.308 31.2018 136.079 31.2053C135.851 31.2015 135.624 31.245 135.413 31.333C135.202 31.4211 135.012 31.5518 134.854 31.717C134.691 31.878 134.563 32.0703 134.476 32.2822C134.39 32.4941 134.347 32.7213 134.351 32.9501C134.351 33.4395 134.521 33.8536 134.854 34.194C135.012 34.3591 135.202 34.4899 135.413 34.5779C135.624 34.666 135.851 34.7095 136.079 34.7057C136.308 34.7084 136.535 34.6642 136.745 34.5759C136.956 34.4877 137.146 34.3571 137.305 34.1924C137.469 34.0303 137.598 33.8366 137.685 33.623C137.772 33.4095 137.815 33.1806 137.811 32.9501ZM144 35.4486H143.03V32.4776C143.03 32.0135 142.95 31.6778 142.789 31.468C142.616 31.2506 142.341 31.1407 141.957 31.1407C141.497 31.1407 141.169 31.276 140.964 31.5487C140.761 31.8192 140.659 32.2678 140.659 32.8963V35.4486H139.694V30.4393H140.659V31.1292C141.038 30.5653 141.556 30.2826 142.219 30.2826C143.408 30.2826 144 30.9702 144 32.3447V35.4486Z" fill="#05294A"/>
<path fill-rule="evenodd" clip-rule="evenodd" d="M6.6792 8.51807H33.8578V17.8698H24.6746V33.8881H15.1204V17.8698H6.6792V8.51807Z" fill="white"/>
</g>
</svg>
