<svg width="154" height="40" viewBox="0 0 154 40" fill="none" xmlns="http://www.w3.org/2000/svg">
<g opacity="0.5">
<path fill-rule="evenodd" clip-rule="evenodd" d="M44.6317 0C44.6317 0 146.072 3.13223 146.072 21.8939C146.072 42.2361 0 39.044 0 39.044C0 39.044 154 46.0884 154 21.9328C154 0.701898 44.6317 0 44.6317 0Z" fill="#05294A"/>
<path fill-rule="evenodd" clip-rule="evenodd" d="M0.0861816 8.82439V28.881H10.1494C14.3897 28.881 19.4457 27.8889 19.4457 23.1579C19.4457 20.8001 17.8884 19.3882 14.6876 18.8386L14.5273 18.8105V18.4414L14.6676 18.4006C17.4999 17.6099 18.8174 16.1517 18.8174 13.8138C18.8174 10.6879 15.9289 8.82349 11.092 8.82349L0.0861816 8.82439ZM6.19077 16.713V12.3003H8.26517C10.4174 12.3003 12.7128 12.4753 12.7128 14.5466C12.7128 16.0918 11.149 16.908 8.19726 16.908H6.19077V16.713ZM6.19077 25.2092V20.2107H8.37111C9.98372 20.2107 13.3393 20.2107 13.3393 22.836C13.3393 25.1122 10.6465 25.4042 8.30139 25.4042H6.19077V25.2092Z" fill="#05294A"/>
<path d="M0.0861816 8.82439V28.881H10.1494C14.3897 28.881 19.4457 27.8889 19.4457 23.1579C19.4457 20.8001 17.8884 19.3882 14.6876 18.8386L14.5273 18.8105V18.4414L14.6676 18.4006C17.4999 17.6099 18.8174 16.1517 18.8174 13.8138C18.8174 10.6879 15.9289 8.82349 11.092 8.82349L0.0861816 8.82439ZM6.19077 16.713V12.3003H8.26517C10.4174 12.3003 12.7128 12.4753 12.7128 14.5466C12.7128 16.0918 11.149 16.908 8.19726 16.908H6.19077V16.713ZM6.19077 25.2092V20.2107H8.37111C9.98372 20.2107 13.3393 20.2107 13.3393 22.836C13.3393 25.1122 10.6465 25.4042 8.30139 25.4042H6.19077V25.2092Z" fill="#05294A" stroke="#295BA7" stroke-width="0.168607" stroke-miterlimit="2.613"/>
<path fill-rule="evenodd" clip-rule="evenodd" d="M79.7843 29.0705H78.7729V25.5992C78.7729 25.3353 78.762 25.0841 78.7375 24.841C78.7167 24.5962 78.6687 24.4021 78.5927 24.2561C78.5143 24.1036 78.3906 23.9791 78.2386 23.8997C78.0829 23.8181 77.862 23.7809 77.5722 23.7809C77.2888 23.7809 77.0054 23.8535 76.7229 23.9968C76.4223 24.1503 76.1375 24.3332 75.8727 24.5427C75.8854 24.6279 75.8926 24.725 75.9008 24.8401C75.9062 24.9462 75.9107 25.056 75.9107 25.1657V29.0696H74.9011V25.5983C74.9011 25.3289 74.8894 25.0723 74.8649 24.8329C74.853 24.6305 74.8035 24.4322 74.7191 24.248C74.6403 24.0969 74.5157 23.9747 74.3633 23.8988C74.2103 23.8172 73.9884 23.78 73.6969 23.78C73.4216 23.78 73.1445 23.849 72.8648 23.9877C72.5886 24.1237 72.3133 24.3015 72.0381 24.5173V29.0696H71.0276V22.9711H72.0381V23.6476C72.324 23.4015 72.6397 23.1924 72.9779 23.0255C73.2919 22.8771 73.635 22.8009 73.9821 22.8025C74.3914 22.8025 74.7363 22.8895 75.0179 23.0627C75.305 23.2377 75.5187 23.4808 75.659 23.7891C76.0665 23.44 76.4395 23.1888 76.7772 23.0382C77.1123 22.8786 77.4717 22.8025 77.8547 22.8025C78.5148 22.8025 78.9992 23.0047 79.3116 23.4119C79.6267 23.8154 79.7834 24.384 79.7834 25.1104V29.0705H79.7843ZM87.8519 26.1288H83.4305C83.4305 26.5042 83.4858 26.8297 83.5989 27.11C83.6924 27.3616 83.8412 27.5889 84.0343 27.775C84.2274 27.9612 84.4599 28.1015 84.7145 28.1855C84.9707 28.2743 85.2559 28.3179 85.562 28.3179C85.9721 28.3179 86.3805 28.2344 86.7943 28.0721C87.2099 27.9034 87.5051 27.7393 87.6807 27.5797H87.736V28.6987C87.3928 28.8438 87.046 28.9663 86.6911 29.0651C86.3275 29.1638 85.9523 29.2132 85.5756 29.212C84.5796 29.212 83.8036 28.9391 83.2449 28.3922C82.6862 27.8454 82.4065 27.0655 82.4065 26.058C82.4065 25.0587 82.6736 24.2688 83.206 23.683C83.7438 23.0972 84.4474 22.8043 85.3229 22.8043C86.1333 22.8043 86.7554 23.0437 87.1936 23.5234C87.6318 24.0049 87.8537 24.6851 87.8537 25.5711V26.1288H87.8519ZM86.8685 25.3425C86.8631 24.8039 86.7309 24.3858 86.4674 24.092C86.2058 23.7982 85.8046 23.6495 85.2668 23.6495C84.729 23.6495 84.2961 23.8127 83.9738 24.1364C83.6533 24.4584 83.4749 24.861 83.4305 25.3425H86.8685ZM95.3509 29.0705H94.3413V28.4312C94.0515 28.686 93.7473 28.8846 93.4322 29.0279C93.1093 29.1711 92.7595 29.2435 92.4063 29.2401C91.6901 29.2401 91.1206 28.9599 90.6995 28.3968C90.2803 27.8372 90.0702 27.061 90.0702 26.068C90.0702 25.5493 90.1409 25.0922 90.2839 24.6851C90.4161 24.3086 90.6162 23.9598 90.8743 23.6558C91.1056 23.3889 91.3914 23.1748 91.7124 23.0279C92.0334 22.881 92.3821 22.8047 92.735 22.8043C93.0483 22.8043 93.3272 22.8378 93.5716 22.9068C93.8161 22.972 94.0705 23.0772 94.3413 23.2169V20.5762H95.3509V29.0705ZM94.3404 27.5688V24.0693C94.1065 23.9587 93.8616 23.8733 93.6097 23.8145C93.3784 23.7652 93.1425 23.7415 92.9061 23.7438C92.3402 23.7438 91.8984 23.9442 91.5833 24.3441C91.27 24.7422 91.1115 25.3108 91.1115 26.0462C91.1115 26.7708 91.2337 27.3213 91.4773 27.7021C91.72 28.0757 92.1102 28.2635 92.6463 28.2635C92.9342 28.2635 93.2249 28.2 93.5182 28.0721C93.8116 27.9406 94.0859 27.7738 94.3404 27.5688ZM98.385 20.8854H99.5241V21.9518H98.385V20.8854ZM98.4484 22.972H99.458V29.0705H98.4484V22.972ZM106.994 28.6879C106.684 28.841 106.363 28.969 106.033 29.0705C105.732 29.1612 105.411 29.2048 105.072 29.2048C104.637 29.2048 104.239 29.1431 103.878 29.0152C103.529 28.8905 103.211 28.6899 102.949 28.4276C102.675 28.1452 102.468 27.8049 102.344 27.4319C102.201 27.0338 102.128 26.564 102.128 26.029C102.128 25.0333 102.395 24.2489 102.935 23.6821C103.475 23.1135 104.189 22.8306 105.073 22.8306C105.416 22.8306 105.754 22.8805 106.081 22.9775C106.415 23.0763 106.719 23.1969 106.995 23.3384V24.4792H106.942C106.652 24.2459 106.329 24.0562 105.985 23.9161C105.681 23.7893 105.356 23.7225 105.027 23.7193C104.454 23.7193 104.002 23.9161 103.669 24.3105C103.339 24.6987 103.176 25.2709 103.176 26.029C103.176 26.7645 103.335 27.3312 103.658 27.7275C103.983 28.1211 104.44 28.317 105.027 28.317C105.231 28.317 105.439 28.2889 105.65 28.2335C105.862 28.18 106.052 28.1093 106.22 28.0231C106.368 27.9452 106.506 27.8635 106.636 27.7801C106.763 27.6931 106.866 27.6187 106.942 27.557H106.995V28.6879H106.994ZM114.05 29.0705H113.048V28.4203C112.957 28.4802 112.836 28.5709 112.682 28.6824C112.545 28.7844 112.398 28.8722 112.244 28.9445C112.074 29.0297 111.88 29.0987 111.662 29.1531C111.41 29.2136 111.152 29.2429 110.894 29.2401C110.64 29.2456 110.387 29.2 110.15 29.1059C109.914 29.0118 109.699 28.8712 109.518 28.6924C109.143 28.3278 108.955 27.8635 108.955 27.3004C108.955 26.8379 109.05 26.4661 109.243 26.1832C109.442 25.8948 109.72 25.6699 110.082 25.5048C110.448 25.3416 110.887 25.2301 111.397 25.172C111.908 25.114 112.46 25.0714 113.047 25.0405V24.8828C113.054 24.6823 113.011 24.4834 112.923 24.3033C112.845 24.152 112.726 24.0266 112.578 23.9424C112.419 23.8537 112.244 23.7964 112.064 23.7737C111.856 23.7453 111.646 23.7304 111.436 23.7293C111.171 23.7293 110.874 23.7664 110.549 23.839C110.205 23.9137 109.867 24.0162 109.539 24.1455H109.486V23.1026C109.682 23.0473 109.967 22.9875 110.34 22.9222C110.711 22.8587 111.079 22.8251 111.442 22.8251C111.863 22.8251 112.23 22.8623 112.542 22.933C112.857 23.0038 113.129 23.1244 113.359 23.294C113.583 23.4626 113.758 23.6767 113.875 23.9424C113.993 24.2081 114.049 24.5391 114.049 24.9308V29.0705H114.05ZM113.047 27.5688V25.8703C112.739 25.8893 112.375 25.9184 111.958 25.9537C111.624 25.9779 111.292 26.0307 110.967 26.1115C110.704 26.1824 110.462 26.3176 110.264 26.5051C110.084 26.6801 109.997 26.9231 109.997 27.2315C109.997 27.5806 110.101 27.8463 110.308 28.025C110.515 28.1982 110.833 28.2852 111.258 28.2852C111.614 28.2852 111.937 28.2163 112.23 28.0767C112.524 27.937 112.798 27.7647 113.047 27.5688ZM117.106 20.5762H118.118V29.0705H117.106V20.5762Z" fill="#05294A"/>
<path fill-rule="evenodd" clip-rule="evenodd" d="M22.5342 14.5475C22.5342 18.7316 26.2674 19.6802 29.5632 20.5145C31.9663 21.1257 34.0443 21.6535 34.0443 23.3946C34.0443 25.5801 30.8807 25.5801 29.8421 25.5801C27.5006 25.5801 25.1971 25.1231 23.3047 24.3051L22.7977 28.3968C24.7716 28.9118 27.4454 29.2329 29.8421 29.2329C34.6392 29.2329 40.359 28.0993 40.359 22.69C40.359 18.4242 36.3143 17.4693 33.0637 16.7021C30.8019 16.1689 28.8479 15.7082 28.8479 14.2256C28.8479 12.128 32.1537 12.128 33.3987 12.128C35.273 12.128 37.074 12.4345 38.6377 13.0004C38.6794 12.5942 38.9863 9.4864 39.0162 9.19259C37.3737 8.74461 35.1273 8.47437 32.9451 8.47437C29.814 8.47256 22.5342 9.06381 22.5342 14.5475ZM61.0813 8.82441C61.0831 9.20347 61.1854 22.709 61.1854 22.709H60.816L52.5836 8.82441H44.6164V28.881H50.1968L49.9867 14.9102H50.3561C50.3561 14.9102 58.756 28.7005 58.8674 28.881H66.6272V8.82441H61.0813Z" fill="#05294A" stroke="#295BA7" stroke-width="0.168607" stroke-miterlimit="2.613"/>
</g>
</svg>
