<svg width="155" height="40" viewBox="0 0 155 40" fill="none" xmlns="http://www.w3.org/2000/svg">
<g opacity="0.5">
<path fill-rule="evenodd" clip-rule="evenodd" d="M39.9057 11.539H28.3947V0H33.3292L39.9057 6.85282V11.539ZM0 11.539H11.5118V0H6.57736L0 6.85282V11.539ZM39.9057 28.4626H28.3947V40H33.3292L39.9057 33.1472V28.4626ZM0 28.4626H11.5118V40H6.57736L0 33.1472V28.4626ZM39.9057 25.7687H28.3947V14.2313H39.9057V25.7687ZM25.7088 11.539H14.1978V0H25.7088V11.539ZM155 25.9589H143.488V14.4215H155V25.9589ZM25.7088 40H14.1978V28.4626H25.7088V40ZM11.5118 25.7687H0V14.2313H11.5118V25.7687Z" fill="#05294A"/>
<path fill-rule="evenodd" clip-rule="evenodd" d="M56.3222 20.1832C56.3222 21.6539 55.9179 22.8738 55.1093 23.8421C54.2452 24.8669 53.0928 25.3801 51.6529 25.3801C50.2221 25.3801 49.0746 24.8627 48.2105 23.8296C47.3936 22.8613 46.9843 21.6447 46.9843 20.1832C46.9843 18.7017 47.3886 17.4826 48.1972 16.5226C49.0614 15.4887 50.2138 14.9721 51.6537 14.9721C53.1035 14.9721 54.2601 15.4845 55.1242 16.5093C55.9221 17.4676 56.3222 18.6925 56.3222 20.1832ZM51.6529 16.6064C50.8633 16.6064 50.203 16.9096 49.6736 17.515C49.1442 18.1203 48.8791 19.0097 48.8791 20.1832C48.8791 21.1515 49.0928 21.9628 49.5203 22.6147C50.0125 23.3688 50.7241 23.7449 51.6529 23.7449C52.5824 23.7449 53.2974 23.3688 53.7995 22.6147C54.217 21.9711 54.4266 21.1614 54.4266 20.1832C54.4266 19.0006 54.164 18.1079 53.6396 17.5075C53.1143 16.9062 52.4524 16.6064 51.6529 16.6064ZM71.1704 24.6252C71.174 24.7312 71.1546 24.8366 71.1137 24.9344C71.0728 25.0322 71.0113 25.1199 70.9334 25.1916C70.7733 25.3366 70.5634 25.4139 70.3477 25.4075C70.0502 25.4075 69.7479 25.2256 69.4413 24.8627L66.2218 20.9945L66.1522 20.9231V24.269C66.1522 25.028 65.8506 25.4075 65.2467 25.4075C64.6609 25.4075 64.3685 25.0263 64.3685 24.259V16.2311C64.3685 15.4554 64.7355 15.0693 65.4695 15.0693H67.4629C68.4761 15.0693 69.293 15.3159 69.916 15.81C70.5937 16.3407 70.9334 17.1047 70.9334 18.1012C70.9334 19.8244 70.0188 20.7504 68.1878 20.8807L70.7246 23.6901C71.0212 24.0157 71.1704 24.3271 71.1704 24.6252ZM69.0933 18.1851C69.0933 17.1886 68.5449 16.6903 67.4488 16.6903H66.1522V19.6799C66.385 19.7356 66.7703 19.763 67.3088 19.763C68.4985 19.763 69.0933 19.2373 69.0933 18.1851ZM85.9348 18.3944C85.9348 19.0928 85.7716 19.7123 85.446 20.2529C85.1095 20.8154 84.5942 21.2482 83.9829 21.482C83.5435 21.655 83.0747 21.7404 82.6027 21.7336H80.7916V24.2474C80.7916 25.0014 80.4892 25.3793 79.8852 25.3793C79.2995 25.3793 79.0062 24.9964 79.0062 24.2341V16.2286C79.0062 15.4554 79.3732 15.0693 80.1081 15.0693H82.4204C83.4709 15.0693 84.3185 15.3624 84.9638 15.9496C85.6109 16.5367 85.9348 17.3514 85.9348 18.3944ZM84.0525 18.3803C84.0525 17.2534 83.4394 16.6895 82.2124 16.6895H80.7916V20.14H82.1851C82.7418 20.14 83.1934 19.9855 83.5364 19.6791C83.881 19.3727 84.0525 18.9392 84.0525 18.3803ZM95.5983 19.1634H99.9313V16.1597C99.9313 15.3683 100.229 14.9721 100.823 14.9721C101.418 14.9721 101.716 15.3683 101.716 16.1597V24.2075C101.716 24.9889 101.418 25.3801 100.823 25.3801C100.229 25.3801 99.9313 24.9889 99.9313 24.2075V20.7827H95.5983V24.2067C95.5983 24.9881 95.2959 25.3793 94.6919 25.3793C94.1062 25.3793 93.8129 24.9881 93.8129 24.2067V16.1588C93.8129 15.3674 94.1062 14.9713 94.6919 14.9713C95.2959 14.9713 95.5983 15.3674 95.5983 16.1588V19.1634ZM118.139 24.5978C118.142 24.7055 118.121 24.8124 118.076 24.9103C118.031 25.0083 117.965 25.0946 117.881 25.1625C117.709 25.3081 117.489 25.3855 117.263 25.3801C116.837 25.3801 116.535 25.1193 116.359 24.5953L115.797 22.9635H111.69L111.114 24.6393C110.938 25.1343 110.654 25.3809 110.265 25.3809C110.043 25.388 109.826 25.3102 109.659 25.1633C109.495 25.0205 109.414 24.8262 109.414 24.5845C109.414 24.3977 109.441 24.2308 109.499 24.0821L112.468 16.0775C112.746 15.3226 113.188 14.9456 113.792 14.9456C114.413 14.9456 114.85 15.2943 115.101 15.9927L118.028 24.0672C118.102 24.2714 118.139 24.4483 118.139 24.5978ZM115.284 21.3981L113.776 16.9561C113.749 17.0007 113.725 17.0473 113.705 17.0956L112.228 21.3981H115.284ZM134.186 24.3711C134.186 25.072 133.916 25.4224 133.376 25.4224C132.996 25.4224 132.657 25.2165 132.358 24.8079L127.593 18.1718V24.2482C127.593 25.0022 127.29 25.3801 126.686 25.3801C126.101 25.3801 125.807 24.9973 125.807 24.2349V16.0758C125.807 15.3309 126.073 14.958 126.602 14.958C126.965 14.958 127.29 15.1532 127.578 15.5443L132.4 22.1389V16.119C132.4 15.3433 132.693 14.958 133.279 14.958C133.883 14.958 134.185 15.3442 134.185 16.119V24.3711H134.186ZM56.8906 38.7918C56.9312 39.0467 56.8698 39.2576 56.705 39.4229C56.5799 39.5458 56.4067 39.6081 56.183 39.6081C55.8955 39.6081 55.6876 39.5176 55.5641 39.3357C55.4656 39.2128 55.3951 38.9902 55.3545 38.6689L54.5095 32.6091H54.4846L52.8318 38.5567C52.6595 39.1829 52.3339 39.496 51.8575 39.496C51.3811 39.496 51.0555 39.1829 50.8832 38.5567L49.2055 32.6091H49.1765L48.3538 38.6689C48.3132 38.9902 48.2428 39.2153 48.1442 39.3482C48.0208 39.5217 47.8112 39.6073 47.5154 39.6073C47.0465 39.6073 46.812 39.3349 46.812 38.7918C46.812 38.7751 46.8244 38.6797 46.8485 38.5077L46.9968 37.4921L47.8849 31.4955C47.9346 31.1741 48.0738 30.91 48.3041 30.7041C48.5344 30.4981 48.8095 30.396 49.1309 30.396C49.7291 30.396 50.1119 30.7007 50.2759 31.3111L51.8318 37.1467L51.8774 37.1483L53.4233 31.3111C53.5882 30.7016 53.9701 30.396 54.5708 30.396C54.8997 30.396 55.1789 30.4981 55.41 30.7041C55.6404 30.91 55.7796 31.1741 55.8293 31.4955L56.8906 38.7918ZM71.4023 38.7918C71.4023 39.2701 71.0693 39.5084 70.4032 39.5084H67.5789C67.2334 39.5084 66.9865 39.4387 66.8382 39.2975C66.6899 39.158 66.6162 38.9147 66.6162 38.5692V31.5221C66.6162 30.8295 66.9285 30.4823 67.5532 30.4823H70.4156C71.0569 30.4823 71.3775 30.7306 71.3775 31.2256C71.3775 31.7205 71.0527 31.9672 70.4032 31.9672H68.1953V34.1305H70.2184C70.868 34.1305 71.1927 34.3688 71.1927 34.8471C71.1927 35.3255 70.8671 35.5638 70.2184 35.5638H68.1953V38.0377H70.4405C71.0817 38.0377 71.4023 38.2885 71.4023 38.7918ZM88.5545 34.897C88.5545 36.2481 88.2132 37.3368 87.5305 38.1606C86.7907 39.0592 85.7617 39.5084 84.446 39.5084H82.3243C81.6673 39.5084 81.3376 39.212 81.3376 38.6182V31.5088C81.3376 31.145 81.4138 30.8843 81.567 30.724C81.7195 30.5637 81.9747 30.4823 82.3375 30.4823H84.2986C85.3176 30.4823 86.161 30.7223 86.8279 31.199C87.3863 31.6026 87.818 32.1482 88.122 32.8308C88.4103 33.4753 88.5545 34.1629 88.5545 34.897ZM86.852 34.8845C86.852 33.9777 86.6299 33.2693 86.185 32.7578C85.7178 32.2047 85.0376 31.929 84.1511 31.929H82.9167V38.0743H84.248C85.1362 38.0743 85.8064 37.7529 86.2596 37.1093C86.6548 36.5504 86.852 35.8071 86.852 34.8845ZM100.008 38.5692C100.008 39.2601 99.7441 39.6073 99.218 39.6073C98.6902 39.6073 98.4284 39.2651 98.4284 38.5808V31.4232C98.4284 30.7389 98.6902 30.3968 99.218 30.3968C99.7441 30.3968 100.008 30.7389 100.008 31.4232V38.5692ZM116.9 38.2727C116.9 38.6182 116.665 38.9197 116.197 39.1746C115.831 39.3713 115.434 39.5052 115.024 39.5707C114.696 39.6288 114.375 39.6571 114.063 39.6571C112.779 39.6571 111.752 39.1962 110.978 38.2736C110.247 37.4074 109.881 36.3187 109.881 35.0083C109.881 33.7061 110.25 32.6141 110.992 31.7322C111.773 30.8012 112.804 30.3353 114.087 30.3353C115.221 30.3353 116.04 30.6318 116.542 31.2256C116.681 31.3892 116.752 31.5627 116.752 31.7446C116.752 31.9265 116.684 32.0834 116.548 32.2196C116.412 32.3558 116.254 32.4239 116.073 32.4239C115.974 32.4239 115.848 32.3782 115.691 32.2877C115.392 32.1135 115.073 31.9768 114.741 31.8808C114.511 31.8261 114.275 31.8009 114.039 31.8061C113.258 31.8061 112.636 32.1598 112.176 32.8682C111.781 33.4877 111.584 34.2077 111.584 35.0315C111.584 35.8653 111.784 36.5736 112.188 37.1583C112.657 37.8343 113.287 38.1739 114.074 38.1739C114.421 38.1739 114.712 38.1382 114.952 38.0684C115.19 37.9987 115.439 37.8965 115.697 37.7653C115.956 37.6341 116.147 37.5677 116.27 37.5677C116.451 37.5677 116.601 37.6408 116.721 37.7853C116.837 37.9211 116.9 38.0941 116.9 38.2727ZM133.558 38.9147C133.561 39.0102 133.542 39.105 133.502 39.1919C133.463 39.2789 133.404 39.3556 133.33 39.4163C133.177 39.5446 132.983 39.6126 132.783 39.6073C132.406 39.6073 132.14 39.3772 131.982 38.913L131.485 37.468H127.85L127.341 38.952C127.184 39.388 126.933 39.6073 126.589 39.6073C126.375 39.6073 126.195 39.5441 126.052 39.4163C125.909 39.2884 125.836 39.1165 125.836 38.9022C125.836 38.7386 125.86 38.5891 125.909 38.4579L128.537 31.3734C128.785 30.7049 129.175 30.3727 129.709 30.3727C130.261 30.3727 130.647 30.6808 130.869 31.2987L133.459 38.4446C133.524 38.6265 133.558 38.7835 133.558 38.9147ZM131.03 36.0829L129.697 32.1515C129.681 32.1773 129.658 32.218 129.633 32.2761L128.325 36.0829H131.03ZM147.699 38.7677C147.699 39.261 147.378 39.5093 146.738 39.5093H144.024C143.678 39.5093 143.433 39.4329 143.289 39.2809C143.145 39.1289 143.074 38.879 143.074 38.5335V31.4241C143.074 30.7398 143.336 30.3976 143.863 30.3976C144.39 30.3976 144.653 30.7481 144.653 31.449V38.0394H146.65C147.35 38.0377 147.699 38.281 147.699 38.7677Z" fill="#05294A"/>
</g>
</svg>
