<svg width="187" height="40" viewBox="0 0 187 40" fill="none" xmlns="http://www.w3.org/2000/svg">
<path opacity="0.5" fill-rule="evenodd" clip-rule="evenodd" d="M25.6168 4.40621L51.2515 0L45.861 8.61798L25.6168 13.0384L5.35593 8.61798L0 0L25.6168 4.40621ZM25.6168 39.9954L20.1205 31.1708L25.6168 32.6661L31.1336 31.1708L25.6168 39.9954ZM10.0603 16.4569L25.6168 19.7332L41.1915 16.4569L36.2611 24.3318L25.6168 27.0651L14.9761 24.3318L10.0603 16.4569ZM177.676 38.522H187V35.8079H180.762V33.3919H184.649V30.7118H180.762V28.8991H186.572V26.1829H177.676V38.522ZM69.896 38.522V32.2646L66.7985 38.8921L63.7001 32.2646V38.522H60.7638V26.2093H63.6483L66.8334 33.1228L69.9646 26.2093H72.8491V38.522H69.896ZM90.3383 28.9522H89.354V35.7768H90.2507C92.5201 35.7768 93.4706 34.7429 93.4706 32.3488C93.4706 30.0074 92.6259 28.9522 90.3383 28.9522ZM90.1125 38.522H86.2207V26.2093H90.3913C94.1375 26.2093 96.6582 27.7384 96.6582 32.3105C96.6582 36.8513 94.0861 38.522 90.1125 38.522ZM98.3841 38.522H101.536V26.2093H98.3841V38.522ZM110.843 30.4979L113.68 29.3392C112.853 27.2648 111.586 26.0146 108.807 26.0146C105.514 26.0146 103.228 28.476 103.228 32.3633C103.228 36.0939 105.25 38.7143 108.755 38.7143C111.447 38.7143 112.853 37.3245 113.697 35.671L111.076 34.2311C110.406 35.3729 109.896 35.9208 108.807 35.9208C107.202 35.9208 106.447 34.3561 106.447 32.3633C106.447 30.3079 107.202 28.8102 108.769 28.8102C109.896 28.8102 110.406 29.4619 110.843 30.4979ZM118.596 33.5771H121.038L119.827 29.6062L118.596 33.5771ZM122.572 38.522L121.851 36.1661H117.786L117.065 38.522H113.754L118.295 26.2093H121.392L125.933 38.522H122.572ZM127.142 38.522H135.959V35.7264H130.274V26.2093H127.142V38.522ZM149.331 30.4979L152.163 29.3392C151.334 27.2648 150.067 26.0146 147.288 26.0146C143.995 26.0146 141.709 28.476 141.709 32.3633C141.709 36.0939 143.733 38.7143 147.233 38.7143C149.928 38.7143 151.334 37.3245 152.178 35.671L149.558 34.2311C148.887 35.3729 148.377 35.9208 147.288 35.9208C145.687 35.9208 144.928 34.3561 144.928 32.3633C144.928 30.3079 145.687 28.8102 147.252 28.8102C148.377 28.8102 148.887 29.4619 149.331 30.4979ZM157.075 33.5771H159.524L158.308 29.6062L157.075 33.5771ZM161.053 38.522L160.332 36.1661H156.267L155.546 38.522H152.24L156.779 26.2093H159.875L164.413 38.522H161.053ZM171.13 28.8606H168.687V31.7143H171.096C172.221 31.7143 172.716 31.2046 172.716 30.2528C172.716 29.3753 172.221 28.8606 171.13 28.8606ZM172.505 38.522L170.428 34.2815H168.687V38.522H165.625V26.2093H171.219C173.916 26.2093 175.827 27.3703 175.827 30.1829C175.827 32.0314 174.981 33.1708 173.558 33.7887L175.991 38.522H172.505ZM75.2567 38.522H84.5811V35.8079H78.3419V33.3919H82.2277V30.7118H78.3419V28.8991H84.1508V26.1829H75.2567V38.522ZM150.38 20.2358C153.481 20.2358 155.404 18.9352 155.404 16.2717C155.404 13.8391 153.764 12.9735 151.029 12.3391C149.322 11.9328 148.861 11.707 148.861 11.1419C148.861 10.666 149.163 10.2766 150.288 10.2766C151.505 10.2766 152.548 10.6997 153.534 11.4231L155.207 9.11554C153.957 8.09141 152.473 7.5097 150.43 7.5097C147.647 7.5097 145.724 9.00975 145.724 11.3173C145.724 13.7671 147.207 14.5432 149.952 15.178C151.822 15.618 152.264 15.9161 152.264 16.5002C152.264 17.1901 151.771 17.4689 150.481 17.4689C149.322 17.4689 147.875 16.9231 146.995 16.219L145.322 18.4904C146.481 19.5145 148.37 20.2358 150.38 20.2358ZM63.8647 10.4544V12.3583H68.2168V15.0891H63.8647V20.0411H60.7638V7.70677H69.9572V10.4544H63.8647ZM76.6773 10.3655H74.2278V13.2213H76.6425C77.77 13.2213 78.2649 12.7092 78.2649 11.7597C78.2649 10.8775 77.77 10.3655 76.6773 10.3655ZM78.0536 20.0411L75.9705 15.7934H74.2278V20.0411H71.1618V7.70677H76.7662C79.461 7.70677 81.384 8.86782 81.384 11.6877C81.384 13.5386 80.5366 14.6852 79.1099 15.3006L81.5438 20.0411H78.0536ZM83.1557 20.0411H92.4802V17.327H86.241V14.9136H90.1267V12.2333H86.241V10.4182H92.0499V7.70677H83.1557V20.0411ZM98.1583 20.2358C101.259 20.2358 103.182 18.9352 103.182 16.2717C103.182 13.8391 101.543 12.9735 98.8096 12.3391C97.1004 11.9328 96.639 11.707 96.639 11.1419C96.639 10.666 96.9371 10.2766 98.0717 10.2766C99.2832 10.2766 100.326 10.6997 101.312 11.4231L102.985 9.11554C101.735 8.09141 100.257 7.5097 98.211 7.5097C95.4273 7.5097 93.5043 9.00975 93.5043 11.3173C93.5043 13.7671 94.9838 14.5432 97.7351 15.178C99.6053 15.618 100.043 15.9161 100.043 16.5002C100.043 17.1901 99.5475 17.4689 98.2641 17.4689C97.1004 17.4689 95.6534 16.9231 94.7725 16.219L93.0981 18.4904C94.2602 19.5145 96.1488 20.2358 98.1583 20.2358ZM104.846 20.0411H114.168V17.327H107.93V14.9136H111.817V12.2333H107.93V10.4182H113.74V7.70677H104.846V20.0411ZM123.627 20.0411H126.218V7.70677H123.221V14.4377L118.461 7.70677H115.658V20.0411H118.653V12.9735L123.627 20.0411ZM128.452 20.0411H131.606V7.70677H128.452V20.0411ZM138.918 20.2358C142.019 20.2358 144.207 18.5097 144.207 14.7213V7.70677H141.07V14.7213C141.07 16.3944 140.36 17.4183 138.952 17.4183C137.524 17.4183 136.822 16.3775 136.822 14.7213V7.70677H133.663V14.7213C133.663 18.5289 135.851 20.2358 138.918 20.2358Z" fill="#05294A"/>
</svg>
