<svg width="120" height="120" viewBox="0 0 120 120" fill="none" xmlns="http://www.w3.org/2000/svg">
<circle cx="60" cy="60" r="60" fill="#EEEFF1"/>
<g opacity="0.24" clip-path="url(#clip0)">
<path d="M59.9998 55.1266C67.4907 55.1266 73.5632 49.0541 73.5632 41.5633C73.5632 34.0725 67.4907 28 59.9998 28C52.509 28 46.4365 34.0725 46.4365 41.5633C46.4365 49.0541 52.509 55.1266 59.9998 55.1266Z" fill="#05294A"/>
<path d="M73.5634 81.9864C74.682 81.9864 75.5888 81.0796 75.5888 79.961C75.5888 78.8425 74.682 77.9357 73.5634 77.9357C72.4449 77.9357 71.5381 78.8425 71.5381 79.961C71.5381 81.0796 72.4449 81.9864 73.5634 81.9864Z" fill="#05294A"/>
<path d="M49.7946 72.3301C48.8276 71.4154 47.6647 70.8535 46.4364 70.8535C45.1689 70.8535 43.9929 71.4154 43.0391 72.3824C44.8684 71.9773 47.1943 71.8336 49.7946 72.3301Z" fill="#05294A"/>
<path d="M75.2881 63.1833C84.0298 67.9135 90.3672 76.5506 91.9482 86.7558C92.3533 89.356 90.328 91.695 87.6885 91.6819H32.2723C29.672 91.6819 27.6467 89.343 28.0518 86.7558C29.672 76.1978 36.3753 67.3647 45.6396 62.6998C45.2868 64.1111 44.9732 66.0449 45.0778 68.3316C40.8703 69.2463 37.6166 74.1725 37.6166 80.1178C37.6166 82.4045 38.074 84.5867 38.9886 86.5206C39.4982 87.788 41.4321 88.3499 42.2945 88.3499C43.6535 88.3499 44.7772 87.2262 44.7772 85.8672C44.7772 84.5083 43.6665 83.3845 42.2945 83.3845C41.8764 83.3845 41.3276 83.4891 40.7135 83.7373C39.6681 80.1048 40.5044 77.0341 40.9617 75.7143C42.5951 75.0479 47.0639 73.5845 51.9378 75.7143C52.4343 77.0341 53.1922 80.4053 52.1861 83.7373C51.5719 83.5413 51.0101 83.4368 50.605 83.4368C49.2461 83.4368 48.1223 84.5605 48.1223 85.9195C48.1223 87.2784 49.233 88.4022 50.605 88.4022C51.5197 88.4022 53.5058 87.8403 53.9632 86.4683C54.8256 84.5867 55.2829 82.4045 55.2829 80.1701C55.2829 74.1202 51.977 69.1418 47.665 68.3316C47.5082 64.8297 48.3706 62.4908 48.8279 61.5238C48.8279 61.5238 53.5 59 60 59C66.5 59 72.4004 61.8244 72.4004 61.8244C72.7009 63.5492 73.7724 70.0956 72.4526 75.1786C70.2574 75.6751 68.6371 77.609 68.6371 79.948C68.6371 82.692 70.8716 84.8741 73.5633 84.8741C76.3073 84.8741 78.4895 82.6397 78.4895 79.948C78.4895 77.7528 77.0652 75.9365 75.1313 75.2701C76.0983 70.958 75.6932 66.0841 75.2881 63.1833Z" fill="#05294A"/>
</g>
<defs>
<clipPath id="clip0">
<rect width="64" height="64" fill="white" transform="translate(28 28)"/>
</clipPath>
</defs>
</svg>
