<svg width="120" height="37" viewBox="0 0 120 37" fill="none" xmlns="http://www.w3.org/2000/svg">
<path d="M115.556 36.6455H4.44444C2 36.6455 0 34.618 0 32.1398V5.10577C0 2.62765 2 0.600098 4.44444 0.600098H115.556C118 0.600098 120 2.62765 120 5.10577V32.1398C120 34.618 118 36.6455 115.556 36.6455Z" fill="black"/>
<path d="M115.556 1.32101C117.618 1.32101 119.289 3.01514 119.289 5.10577V32.1398C119.289 34.2305 117.618 35.9246 115.556 35.9246H4.44444C2.38222 35.9246 0.711111 34.2305 0.711111 32.1398V5.10577C0.711111 3.01514 2.38222 1.32101 4.44444 1.32101H115.556ZM115.556 0.600098H4.44444C2 0.600098 0 2.62765 0 5.10577V32.1398C0 34.618 2 36.6455 4.44444 36.6455H115.556C118 36.6455 120 34.618 120 32.1398V5.10577C120 2.62765 118 0.600098 115.556 0.600098Z" fill="#A6A6A6"/>
<path d="M42.1504 9.82723C42.1504 10.5842 41.9282 11.188 41.4837 11.6295C40.986 12.1612 40.3282 12.4315 39.5282 12.4315C38.7549 12.4315 38.106 12.1612 37.5638 11.6205C37.0215 11.0798 36.7549 10.404 36.7549 9.61096C36.7549 8.80895 37.0215 8.14211 37.5638 7.60143C38.106 7.06075 38.7549 6.79041 39.5282 6.79041C39.9104 6.79041 40.2749 6.8625 40.6215 7.01569C40.9682 7.16888 41.2437 7.36713 41.4571 7.61945L40.986 8.09705C40.6304 7.67352 40.1504 7.45725 39.5282 7.45725C38.9682 7.45725 38.4793 7.6555 38.0704 8.06101C37.6615 8.45751 37.4571 8.98017 37.4571 9.61997C37.4571 10.2598 37.6615 10.7824 38.0704 11.1789C38.4793 11.5754 38.9682 11.7827 39.5282 11.7827C40.1237 11.7827 40.6215 11.5845 41.0215 11.1789C41.2793 10.9176 41.4304 10.5481 41.466 10.0796H39.5282V9.43073H42.1148C42.1326 9.5659 42.1504 9.70108 42.1504 9.82723Z" fill="white" stroke="white" stroke-width="0.2" stroke-miterlimit="10"/>
<path d="M46.2498 7.57278H43.8231V9.28322H46.0098V9.93138H43.8231V11.6418H46.2498V12.308H43.1387V6.90662H46.2498V7.57278Z" fill="white" stroke="white" stroke-width="0.2" stroke-miterlimit="10"/>
<path d="M49.1377 12.308H48.4533V7.57278H46.96V6.90662H50.6222V7.57278H49.1289V12.308H49.1377Z" fill="white" stroke="white" stroke-width="0.2" stroke-miterlimit="10"/>
<path d="M53.2793 12.308V6.90662H53.9637V12.308H53.2793Z" fill="white" stroke="white" stroke-width="0.2" stroke-miterlimit="10"/>
<path d="M57.0049 12.308H56.3205V7.57278H54.8271V6.90662H58.4894V7.57278H56.996V12.308H57.0049Z" fill="white" stroke="white" stroke-width="0.2" stroke-miterlimit="10"/>
<path d="M65.4316 11.6071C64.9071 12.1566 64.2582 12.4268 63.476 12.4268C62.6938 12.4268 62.0449 12.1566 61.5205 11.6071C60.9961 11.0577 60.7383 10.3912 60.7383 9.60767C60.7383 8.82408 60.9961 8.14858 61.5205 7.60818C62.0449 7.05877 62.6938 6.78857 63.476 6.78857C64.2494 6.78857 64.8982 7.05877 65.4316 7.60818C65.956 8.15759 66.2227 8.82408 66.2227 9.60767C66.2138 10.4003 65.956 11.0667 65.4316 11.6071ZM62.0272 11.1568C62.4183 11.5621 62.9071 11.7603 63.476 11.7603C64.0449 11.7603 64.5338 11.5621 64.9249 11.1568C65.316 10.7515 65.5204 10.2381 65.5204 9.60767C65.5204 8.9772 65.3249 8.46382 64.9249 8.05852C64.5338 7.65322 64.0449 7.45507 63.476 7.45507C62.9071 7.45507 62.4183 7.65322 62.0272 8.05852C61.636 8.46382 61.4316 8.9772 61.4316 9.60767C61.4316 10.2381 61.636 10.7515 62.0272 11.1568Z" fill="white" stroke="white" stroke-width="0.2" stroke-miterlimit="10"/>
<path d="M67.1816 12.308V6.90662H68.0172L70.6128 11.1107H70.6395L70.6128 10.0664V6.90662H71.2972V12.308H70.5861L67.875 7.90587H67.8483L67.875 8.95013V12.308H67.1816Z" fill="white" stroke="white" stroke-width="0.2" stroke-miterlimit="10"/>
<path d="M60.5693 20.1999C58.4805 20.1999 56.7738 21.813 56.7738 24.03C56.7738 26.2379 58.4805 27.86 60.5693 27.86C62.6582 27.86 64.3649 26.2379 64.3649 24.03C64.3649 21.813 62.6582 20.1999 60.5693 20.1999ZM60.5693 26.355C59.4227 26.355 58.436 25.3998 58.436 24.03C58.436 22.6511 59.4227 21.7049 60.5693 21.7049C61.716 21.7049 62.7027 22.6511 62.7027 24.03C62.7027 25.3998 61.7071 26.355 60.5693 26.355ZM52.2849 20.1999C50.196 20.1999 48.4894 21.813 48.4894 24.03C48.4894 26.2379 50.196 27.86 52.2849 27.86C54.3738 27.86 56.0805 26.2379 56.0805 24.03C56.0805 21.813 54.3738 20.1999 52.2849 20.1999ZM52.2849 26.355C51.1382 26.355 50.1516 25.3998 50.1516 24.03C50.1516 22.6511 51.1382 21.7049 52.2849 21.7049C53.4316 21.7049 54.4182 22.6511 54.4182 24.03C54.4182 25.3998 53.4316 26.355 52.2849 26.355ZM42.436 21.3805V23.0026H46.276C46.1605 23.9128 45.8582 24.5887 45.4049 25.0483C44.8449 25.616 43.9738 26.2379 42.4449 26.2379C40.0805 26.2379 38.2316 24.3093 38.2316 21.9122C38.2316 19.515 40.0805 17.5865 42.4449 17.5865C43.716 17.5865 44.6494 18.0912 45.3338 18.749L46.4627 17.6045C45.5027 16.6763 44.2316 15.9644 42.436 15.9644C39.2005 15.9644 36.4805 18.6319 36.4805 21.9212C36.4805 25.2015 39.2005 27.878 42.436 27.878C44.1871 27.878 45.5027 27.3013 46.5338 26.2108C47.5916 25.1384 47.9205 23.6244 47.9205 22.4078C47.9205 22.0293 47.8938 21.6779 47.8316 21.3895H42.436V21.3805ZM82.7116 22.6421C82.4005 21.786 81.4405 20.1999 79.476 20.1999C77.5294 20.1999 75.9116 21.75 75.9116 24.03C75.9116 26.1748 77.5116 27.86 79.6627 27.86C81.396 27.86 82.4005 26.7876 82.8093 26.1658L81.5205 25.2916C81.0938 25.9315 80.5071 26.355 79.6627 26.355C78.8182 26.355 78.2138 25.9585 77.8316 25.1925L82.8893 23.0747L82.7116 22.6421ZM77.556 23.9218C77.5116 22.4439 78.6849 21.6869 79.5293 21.6869C80.1871 21.6869 80.7471 22.0203 80.9338 22.4979L77.556 23.9218ZM73.4493 27.6347H75.1116V16.3699H73.4493V27.6347ZM70.7293 21.056H70.6671C70.2938 20.6055 69.5827 20.1999 68.676 20.1999C66.7827 20.1999 65.0493 21.8851 65.0493 24.048C65.0493 26.1928 66.7827 27.869 68.676 27.869C69.5738 27.869 70.2938 27.4635 70.6671 26.9949H70.7205V27.5446C70.7205 29.0135 69.9471 29.7975 68.7027 29.7975C67.6894 29.7975 67.0582 29.0586 66.8005 28.4367L65.3516 29.0496C65.7693 30.0679 66.8716 31.3115 68.7027 31.3115C70.6493 31.3115 72.2938 30.149 72.2938 27.3193V20.4342H70.7205V21.056H70.7293ZM68.8182 26.355C67.6716 26.355 66.7116 25.3817 66.7116 24.048C66.7116 22.6962 67.6716 21.7139 68.8182 21.7139C69.9471 21.7139 70.836 22.7052 70.836 24.048C70.8449 25.3817 69.956 26.355 68.8182 26.355ZM90.4982 16.3699H86.5249V27.6347H88.1871V23.3631H90.5071C92.3471 23.3631 94.1516 22.0113 94.1516 19.8665C94.1516 17.7217 92.3293 16.3699 90.4982 16.3699ZM90.5338 21.795H88.1782V17.9289H90.5338C91.7782 17.9289 92.4805 18.9743 92.4805 19.8575C92.4805 20.7406 91.7782 21.795 90.5338 21.795ZM100.792 20.1819C99.5916 20.1819 98.3471 20.7226 97.8316 21.9032L99.3071 22.525C99.6182 21.9032 100.205 21.6959 100.818 21.6959C101.672 21.6959 102.552 22.2186 102.56 23.1468V23.2639C102.258 23.0927 101.618 22.8314 100.827 22.8314C99.236 22.8314 97.6271 23.7145 97.6271 25.3637C97.6271 26.8687 98.9249 27.842 100.383 27.842C101.494 27.842 102.116 27.3373 102.498 26.7425H102.552V27.6167H104.152V23.3C104.16 21.2994 102.685 20.1819 100.792 20.1819ZM100.587 26.355C100.045 26.355 99.2893 26.0756 99.2893 25.3998C99.2893 24.5346 100.232 24.2012 101.049 24.2012C101.778 24.2012 102.125 24.3634 102.56 24.5797C102.436 25.616 101.547 26.355 100.587 26.355ZM109.992 20.4252L108.089 25.3096H108.036L106.063 20.4252H104.276L107.236 27.2562L105.547 31.0502H107.28L111.84 20.4252H109.992ZM95.0582 27.6347H96.7205V16.3699H95.0582V27.6347Z" fill="white"/>
<path d="M9.27999 7.39023C9.02221 7.66959 8.87109 8.10215 8.87109 8.65185V28.5855C8.87109 29.1442 9.02221 29.5767 9.27999 29.8471L9.34221 29.9102L20.3556 18.7538V18.6187V18.4835L9.34221 7.32715L9.27999 7.39023Z" fill="url(#paint0_linear)"/>
<path d="M24.0266 22.4795L20.3555 18.758V18.6228V18.4876L24.0266 14.7661L24.1066 14.8112L28.4533 17.3162C29.6977 18.0281 29.6977 19.1995 28.4533 19.9204L24.1066 22.4254L24.0266 22.4795Z" fill="url(#paint1_linear)"/>
<path d="M24.106 22.4251L20.3548 18.6226L9.2793 29.8501C9.68819 30.2916 10.3637 30.3456 11.1282 29.9041L24.106 22.4251Z" fill="url(#paint2_linear)"/>
<path d="M24.1071 14.8172L11.1204 7.33761C10.3559 6.89604 9.68037 6.95011 9.27148 7.39168L20.3559 18.6201L24.1071 14.8172Z" fill="url(#paint3_linear)"/>
<path opacity="0.2" d="M24.027 22.3452L11.1203 29.779C10.4003 30.1935 9.75139 30.1664 9.3425 29.788L9.28027 29.8511L9.3425 29.9141C9.76027 30.2926 10.4003 30.3196 11.1203 29.9051L24.107 22.4263L24.027 22.3452Z" fill="black"/>
<path opacity="0.12" d="M9.27998 29.7175C9.02221 29.4385 8.87109 29.0065 8.87109 28.4575V28.5925C8.87109 29.1505 9.02221 29.5825 9.27998 29.8525L9.34221 29.7895L9.27998 29.7175Z" fill="black"/>
<path opacity="0.12" d="M28.4531 19.7926L24.0176 22.3396L24.0976 22.4206L28.4442 19.9186C29.0665 19.5586 29.3776 19.0906 29.3776 18.6226C29.3331 19.0456 29.022 19.4686 28.4531 19.7926Z" fill="black"/>
<path opacity="0.25" d="M11.1201 7.46417L28.4534 17.4482C29.0134 17.7726 29.3334 18.1871 29.3867 18.6196C29.3867 18.1511 29.0756 17.6735 28.4534 17.3221L11.1201 7.33802C9.87564 6.62616 8.8623 7.22088 8.8623 8.66262V8.79778C8.8623 7.34703 9.88453 6.75231 11.1201 7.46417Z" fill="white"/>
<defs>
<linearGradient id="paint0_linear" x1="19.3775" y1="8.44431" x2="4.25538" y2="23.3607" gradientUnits="userSpaceOnUse">
<stop stop-color="#00A0FF"/>
<stop offset="0.00657445" stop-color="#00A1FF"/>
<stop offset="0.2601" stop-color="#00BEFF"/>
<stop offset="0.5122" stop-color="#00D2FF"/>
<stop offset="0.7604" stop-color="#00DFFF"/>
<stop offset="1" stop-color="#00E3FF"/>
</linearGradient>
<linearGradient id="paint1_linear" x1="30.075" y1="18.6241" x2="8.56656" y2="18.6241" gradientUnits="userSpaceOnUse">
<stop stop-color="#FFE000"/>
<stop offset="0.4087" stop-color="#FFBD00"/>
<stop offset="0.7754" stop-color="#FFA500"/>
<stop offset="1" stop-color="#FF9C00"/>
</linearGradient>
<linearGradient id="paint2_linear" x1="22.0677" y1="20.6915" x2="1.56252" y2="40.9192" gradientUnits="userSpaceOnUse">
<stop stop-color="#FF3A44"/>
<stop offset="1" stop-color="#C31162"/>
</linearGradient>
<linearGradient id="paint3_linear" x1="6.48686" y1="0.75572" x2="15.6441" y2="9.78821" gradientUnits="userSpaceOnUse">
<stop stop-color="#32A071"/>
<stop offset="0.0685" stop-color="#2DA771"/>
<stop offset="0.4762" stop-color="#15CF74"/>
<stop offset="0.8009" stop-color="#06E775"/>
<stop offset="1" stop-color="#00F076"/>
</linearGradient>
</defs>
</svg>
