<svg width="24" height="24" viewBox="0 0 24 24" fill="none" xmlns="http://www.w3.org/2000/svg">
<path d="M22.2026 4H1.79742C0.804703 4 0 4.81883 0 5.82897V9.33336H24V5.82897C24 4.81883 23.1953 4 22.2026 4Z" fill="#FAB446"/>
<path d="M0 18.171C0 19.1811 0.804703 20 1.79742 20H22.2026C23.1952 20 24 19.1812 24 18.171V14.6666H0V18.171Z" fill="#73AF00"/>
<path d="M24 9.33337H0V14.6664H24V9.33337Z" fill="#F5F5F5"/>
<path d="M11.9993 14.2628C10.7728 14.2628 9.77515 13.2476 9.77515 11.9996C9.77515 10.7516 10.7728 9.73645 11.9993 9.73645C13.2257 9.73645 14.2234 10.7516 14.2234 11.9996C14.2234 13.2476 13.2257 14.2628 11.9993 14.2628ZM11.9993 10.1575C11.0009 10.1575 10.1889 10.9837 10.1889 11.9996C10.1889 13.0155 11.0009 13.8417 11.9993 13.8417C12.9976 13.8417 13.8096 13.0155 13.8096 11.9996C13.8096 10.9837 12.9976 10.1575 11.9993 10.1575Z" fill="#41479B"/>
<path d="M11.9999 12.257C12.1392 12.257 12.2521 12.1422 12.2521 12.0005C12.2521 11.8588 12.1392 11.7439 11.9999 11.7439C11.8607 11.7439 11.7478 11.8588 11.7478 12.0005C11.7478 12.1422 11.8607 12.257 11.9999 12.257Z" fill="#41479B"/>
<path d="M12.0004 12.0389L11.3596 12.1047L9.98315 12.0389V11.9619L11.3596 11.8961L12.0004 11.9619V12.0389Z" fill="#41479B"/>
<path d="M12 12.0389L12.6408 12.1047L14.0172 12.0389V11.9619L12.6408 11.8961L12 11.9619V12.0389Z" fill="#41479B"/>
<path d="M11.9612 12L11.8965 11.348L11.9612 9.94739H12.0368L12.1015 11.348L12.0368 12H11.9612Z" fill="#41479B"/>
<path d="M11.9612 12.0004L11.8965 12.6524L11.9612 14.053H12.0368L12.1015 12.6524L12.0368 12.0004H11.9612Z" fill="#41479B"/>
<path d="M11.9733 12.0275L11.4744 11.6131L10.5469 10.5762L10.6004 10.5217L11.6194 11.4656L12.0267 11.9732L11.9733 12.0275Z" fill="#41479B"/>
<path d="M11.9724 12.0267L12.3797 12.5343L13.3988 13.4781L13.4523 13.4237L12.5247 12.3867L12.0259 11.9723L11.9724 12.0267Z" fill="#41479B"/>
<path d="M11.9724 11.9732L12.3797 11.4656L13.3988 10.5217L13.4523 10.5762L12.5247 11.6131L12.0259 12.0275L11.9724 11.9732Z" fill="#41479B"/>
<path d="M11.9733 11.9723L11.4744 12.3867L10.5469 13.4237L10.6004 13.4781L11.6194 12.5343L12.0267 12.0267L11.9733 11.9723Z" fill="#41479B"/>
<path d="M12.0135 12.036L11.4462 12.3463L10.1498 12.8215L10.1208 12.7504L11.3678 12.1536L11.9845 11.9648L12.0135 12.036Z" fill="#41479B"/>
<path d="M12.0155 12.0355L12.6323 11.8467L13.8792 11.2499L13.8503 11.1788L12.5539 11.654L11.9866 11.9643L12.0155 12.0355Z" fill="#41479B"/>
<path d="M11.9645 12.0142L11.6596 11.437L11.1926 10.1179L11.2625 10.0884L11.849 11.3572L12.0345 11.9847L11.9645 12.0142Z" fill="#41479B"/>
<path d="M11.9651 12.0152L12.1506 12.6428L12.7371 13.9116L12.807 13.8821L12.34 12.563L12.035 11.9857L11.9651 12.0152Z" fill="#41479B"/>
<path d="M11.9845 12.0355L11.3678 11.8467L10.1208 11.2499L10.1498 11.1788L11.4462 11.654L12.0135 11.9643L11.9845 12.0355Z" fill="#41479B"/>
<path d="M11.9866 12.036L12.5539 12.3463L13.8503 12.8215L13.8792 12.7504L12.6323 12.1536L12.0155 11.9648L11.9866 12.036Z" fill="#41479B"/>
<path d="M11.9651 11.9847L12.1506 11.3572L12.7371 10.0884L12.807 10.1179L12.34 11.437L12.035 12.0142L11.9651 11.9847Z" fill="#41479B"/>
<path d="M11.9645 11.9857L11.6596 12.563L11.1926 13.8821L11.2625 13.9116L11.849 12.6428L12.0345 12.0152L11.9645 11.9857Z" fill="#41479B"/>
<path d="M12 12.3466C12.1879 12.3466 12.3401 12.1916 12.3401 12.0005C12.3401 11.8094 12.1879 11.6544 12 11.6544C11.8122 11.6544 11.6599 11.8094 11.6599 12.0005C11.6599 12.1916 11.8122 12.3466 12 12.3466Z" fill="#F5F5F5"/>
<path d="M11.9996 12.2075C12.1122 12.2075 12.2035 12.1146 12.2035 12C12.2035 11.8854 12.1122 11.7925 11.9996 11.7925C11.887 11.7925 11.7957 11.8854 11.7957 12C11.7957 12.1146 11.887 12.2075 11.9996 12.2075Z" fill="#41479B"/>
</svg>
