<svg width="143" height="40" viewBox="0 0 143 40" fill="none" xmlns="http://www.w3.org/2000/svg">
<path d="M51.4844 32H59.0938C66.4219 32 70.8125 27.375 70.8125 20.6719C70.8125 13.9531 66.1875 9.28125 59 9.28125H51.4844V32ZM55.9219 28V13.2969H59.0938C63.1875 13.2969 66.125 16.4062 66.125 20.6719C66.125 24.8281 63.2344 28 58.8125 28H55.9219ZM81.9375 32.2656C86.8125 32.2656 90.2656 29 90.2656 24.2031C90.2656 19.4062 86.8125 16.1094 81.9375 16.1094C76.9688 16.1094 73.625 19.5469 73.625 24.2031C73.625 28.8594 76.9688 32.2656 81.9375 32.2656ZM81.9375 28.5312C79.5469 28.5312 77.8594 26.6406 77.8594 24.2031C77.8594 21.7344 79.5 19.875 81.9375 19.875C84.25 19.875 86 21.6406 86 24.2031C86 26.7344 84.2031 28.5156 81.9375 28.5156V28.5312ZM100.812 32.2656C103.969 32.2656 106.375 31.0312 107.719 29.4688L104.859 26.9375C104.125 27.7656 102.891 28.5156 101.234 28.5156C98.75 28.5156 97.0469 26.7344 97.0469 24.1875C97.0469 21.6406 98.7031 19.875 101.188 19.875C102.766 19.875 103.984 20.5625 104.828 21.5469L107.656 19.1094C106.078 17.125 103.5 16.1094 101.016 16.1094C96.1719 16.1094 92.7812 19.4062 92.7812 24.2031C92.7812 29 96.1875 32.2656 100.812 32.2656ZM122.875 19.1875V16.375H110.25V19.8125H117.219V19.8594L109.688 29.1562V32H122.688V28.5625H115.234V28.4688L122.875 19.1875ZM132.969 32.2656C137.844 32.2656 141.297 29 141.297 24.2031C141.297 19.4062 137.844 16.1094 132.969 16.1094C128 16.1094 124.656 19.5469 124.656 24.2031C124.656 28.8594 128 32.2656 132.969 32.2656ZM132.969 28.5312C130.578 28.5312 128.891 26.6406 128.891 24.2031C128.891 21.7344 130.531 19.875 132.969 19.875C135.281 19.875 137.031 21.6406 137.031 24.2031C137.031 26.7344 135.234 28.5156 132.969 28.5156V28.5312Z" fill="#05294A"/>
<path d="M5 2C2.79086 2 1 3.79086 1 6V12H3V6C3 4.89543 3.89543 4 5 4H13V2H5Z" fill="#05294A"/>
<path d="M5 36C3.89543 36 3 35.1046 3 34V28H1V34C1 36.2091 2.79086 38 5 38H13V36H5Z" fill="#05294A"/>
<path d="M17 0H13V6H17C24.732 6 31 12.268 31 20C31 27.732 24.732 34 17 34H13V40H17C28.0457 40 37 31.0457 37 20C37 8.95431 28.0457 0 17 0Z" fill="#007AFF"/>
<path d="M4 13.5C4 14.6046 3.10457 15.5 2 15.5C0.89543 15.5 0 14.6046 0 13.5C0 12.3954 0.89543 11.5 2 11.5C3.10457 11.5 4 12.3954 4 13.5Z" fill="#007AFF"/>
<path d="M4 26.5C4 25.3954 3.10457 24.5 2 24.5C0.89543 24.5 0 25.3954 0 26.5C0 27.6046 0.89543 28.5 2 28.5C3.10457 28.5 4 27.6046 4 26.5Z" fill="#007AFF"/>
</svg>
