<svg width="37" height="40" viewBox="0 0 37 40" fill="none" xmlns="http://www.w3.org/2000/svg">
<path d="M5 2C2.79086 2 1 3.79086 1 6V12H3V6C3 4.89543 3.89543 4 5 4H13V2H5Z" fill="#05294A"/>
<path d="M5 36C3.89543 36 3 35.1046 3 34V28H1V34C1 36.2091 2.79086 38 5 38H13V36H5Z" fill="#05294A"/>
<path d="M17 0H13V6H17C24.732 6 31 12.268 31 20C31 27.732 24.732 34 17 34H13V40H17C28.0457 40 37 31.0457 37 20C37 8.95431 28.0457 0 17 0Z" fill="#007AFF"/>
<path d="M4 13.5C4 14.6046 3.10457 15.5 2 15.5C0.89543 15.5 0 14.6046 0 13.5C0 12.3954 0.89543 11.5 2 11.5C3.10457 11.5 4 12.3954 4 13.5Z" fill="#007AFF"/>
<path d="M4 26.5C4 25.3954 3.10457 24.5 2 24.5C0.89543 24.5 0 25.3954 0 26.5C0 27.6046 0.89543 28.5 2 28.5C3.10457 28.5 4 27.6046 4 26.5Z" fill="#007AFF"/>
</svg>
