<svg width="164" height="209" viewBox="0 0 164 209" fill="none" xmlns="http://www.w3.org/2000/svg">
<path d="M80.194 118.963L87.7657 146.664L115.425 109.319L108.918 207.243H69.4295L57.9111 207.797C57.9111 207.797 59.6184 192.367 60.3168 183.655C60.4498 181.992 61.0263 172.293 63.82 163.136C69.7288 143.904 80.194 118.963 80.194 118.963Z" fill="#FAFAFA"/>
<path d="M89.1178 162.305C89.2175 162.427 84.7499 166.03 79.1515 170.331C73.553 174.643 68.9302 178.023 68.8415 177.902C68.7417 177.78 73.1983 174.177 78.8078 169.876C84.3951 165.564 89.018 162.172 89.1178 162.305Z" fill="#05294A"/>
<path d="M157.862 105.462L136.355 95.1196L127.919 85.0877L115.99 97.4917L84.3506 206.977H138.605L145.556 188.188L157.862 115.649V105.462Z" fill="#FE565B"/>
<path d="M61.0812 208.562L59.6289 185.328L125.169 174.221C125.169 174.221 136.366 120.149 143.262 111.281C149.625 103.101 157.928 105.938 157.928 105.938C157.928 105.938 165.411 111.06 163.615 130.669C162.684 140.933 158.926 176.549 157.562 189.408C157.241 192.489 156.221 195.46 154.58 198.087C150.833 204.117 144.237 207.775 137.142 207.775L61.0812 208.562Z" fill="#FE565B"/>
<path d="M135.867 187.723C135.767 187.734 135.678 186.692 135.202 185.107C134.736 183.522 133.794 181.393 132.175 179.464C130.546 177.536 128.606 176.25 127.12 175.518C125.634 174.776 124.626 174.51 124.648 174.421C124.659 174.354 125.712 174.487 127.286 175.152C128.849 175.806 130.911 177.081 132.608 179.088C134.304 181.094 135.213 183.344 135.59 184.996C135.978 186.659 135.922 187.723 135.867 187.723Z" fill="#05294A"/>
<g opacity="0.2">
<g opacity="0.2">
<g opacity="0.2">
<path opacity="0.2" d="M134.669 96.6936C134.049 103.533 132.741 110.306 130.767 116.879C129.127 116.403 127.486 115.915 125.834 115.438C127.863 118.331 128.107 122.178 127.308 125.625C126.51 129.073 124.77 132.21 123.051 135.291C114.903 149.934 106.744 164.577 98.5957 179.221L123.251 123.242L122.608 112.9L127.353 111.88L134.669 96.6936Z" fill="black"/>
</g>
</g>
</g>
<g opacity="0.2">
<g opacity="0.2">
<g opacity="0.2">
<path opacity="0.2" d="M124.948 173.578C127.93 173.401 130.956 174.288 133.384 176.039C135.801 177.791 137.586 180.396 138.362 183.278C138.55 183.965 138.672 184.719 138.406 185.384C138.14 186.049 137.353 186.548 136.699 186.26C136.2 186.038 135.956 185.484 135.734 184.985C133.595 180.096 129.371 176.161 124.338 174.365" fill="black"/>
</g>
</g>
</g>
<path d="M98.7623 178.7C98.7402 178.689 98.8621 178.378 99.0949 177.802C99.361 177.181 99.7046 176.327 100.148 175.274C101.113 173.035 102.465 169.887 104.139 166.007C107.576 158.159 112.287 147.407 117.498 135.535C119.404 131.223 121.256 127.055 122.985 123.142L122.963 123.275C122.741 119.595 122.542 116.125 122.353 112.922L122.342 112.711L122.553 112.667C124.227 112.312 125.801 111.991 127.309 111.669L127.154 111.791C129.615 106.814 131.632 102.735 133.062 99.8306C133.761 98.4561 134.315 97.3587 134.714 96.5606C134.892 96.217 135.047 95.9398 135.158 95.7181C135.257 95.5297 135.324 95.4299 135.335 95.441C135.346 95.441 135.302 95.5519 135.224 95.7514C135.124 95.9842 134.991 96.2724 134.836 96.6271C134.459 97.4363 133.938 98.5448 133.295 99.9526C131.909 102.868 129.947 106.98 127.564 111.991L127.519 112.091L127.409 112.113C125.912 112.434 124.338 112.789 122.664 113.144L122.863 112.889C123.074 116.092 123.296 119.562 123.528 123.231V123.297L123.506 123.364C121.777 127.277 119.948 131.445 118.041 135.768C112.775 147.618 108.008 158.348 104.527 166.174C102.787 170.02 101.379 173.146 100.37 175.363C99.882 176.405 99.494 177.236 99.2169 177.846C98.9286 178.411 98.7845 178.7 98.7623 178.7Z" fill="#05294A"/>
<path d="M61.0257 207.797C61.0146 207.797 60.9924 207.664 60.9702 207.409C60.9481 207.121 60.9148 206.744 60.8705 206.279C60.7929 205.237 60.6931 203.774 60.549 201.911C60.294 198.076 59.9282 192.6 59.4847 185.838L59.4736 185.65L59.6621 185.617C71.9675 183.355 88.6852 180.285 107.066 176.904C113.141 175.806 119.039 174.731 124.548 173.734L124.327 173.933C128.173 159.334 131.51 146.664 133.894 137.608C135.091 133.13 136.056 129.538 136.732 127.033C137.064 125.825 137.33 124.882 137.519 124.206C137.608 123.907 137.674 123.674 137.73 123.475C137.785 123.308 137.807 123.231 137.818 123.231C137.829 123.231 137.807 123.32 137.774 123.486C137.73 123.674 137.674 123.918 137.608 124.228C137.441 124.916 137.209 125.858 136.909 127.077C136.277 129.594 135.368 133.196 134.226 137.686C131.887 146.764 128.628 159.445 124.859 174.066L124.814 174.244L124.637 174.277C119.127 175.285 113.241 176.361 107.166 177.469C88.7628 180.784 72.0451 183.799 59.7286 186.027L59.8949 185.805C60.2607 192.567 60.5601 198.054 60.7707 201.889C60.8594 203.763 60.9259 205.226 60.9813 206.268C60.9924 206.744 61.0146 207.121 61.0257 207.409C61.0368 207.664 61.0368 207.797 61.0257 207.797Z" fill="#05294A"/>
<path d="M154.559 103.644C154.581 103.744 153.461 103.91 151.787 104.531C150.113 105.14 147.907 106.326 145.923 108.178C143.938 110.04 142.619 112.168 141.898 113.798C141.167 115.427 140.934 116.524 140.823 116.502C140.779 116.491 140.812 116.214 140.912 115.715C140.989 115.205 141.2 114.496 141.521 113.642C142.164 111.935 143.484 109.685 145.535 107.756C147.597 105.839 149.913 104.675 151.665 104.143C152.541 103.877 153.261 103.721 153.771 103.666C154.27 103.622 154.547 103.611 154.559 103.644Z" fill="#05294A"/>
<path d="M30.6621 79.0132C32.6021 75.4328 31.7485 60.9781 34.7417 61.488C38.5553 62.142 35.0299 77.3283 34.7971 78.7139C34.5643 80.0552 36.5598 80.4432 36.7039 79.1795C36.9146 77.3727 39.1428 59.6923 42.901 60.6899C44.9852 61.2442 44.0207 65.0463 44.0207 65.0463C44.0207 65.0463 40.7836 82.1835 42.5795 82.5936C44.3976 83.0149 45.739 73.1272 46.5372 69.5246C47.3021 66.0772 49.5415 64.5918 50.3951 66.4097C51.6478 69.0701 49.2422 77.7052 48.5327 81.1637C47.8232 84.6222 46.0272 94.654 50.894 90.73C55.7607 86.817 60.9379 85.5866 62.5454 86.2073C64.1528 86.8392 63.8092 89.3111 61.9356 89.7988C60.4279 90.1979 58.0999 91.6278 56.3926 92.7696C54.9847 93.7118 53.8761 94.9866 52.7121 96.2281C51.8806 97.1038 50.4395 98.9106 49.2311 101.637C47.8453 104.797 45.1293 107.191 41.8367 108.255L38.9987 121.757L20.6182 117.821L24.72 103.533C26.2166 94.1552 25.3851 81.5406 25.3962 75.7986C25.4184 66.6536 26.6046 66.576 27.6578 66.8199C30.008 67.3741 28.7664 82.505 30.6621 79.0132Z" fill="#FFD1BD"/>
<path d="M30.141 91.2953C30.1188 91.384 31.1609 91.5725 32.5799 92.4372C33.9878 93.2797 35.7616 94.9426 36.726 97.3372C36.9921 97.9801 37.1584 98.6342 37.2803 99.2661L37.3469 99.5765L37.6129 99.4213C39.3867 98.3792 41.1272 97.8693 42.3688 97.6254C43.6215 97.3815 44.3976 97.3593 44.3976 97.2928C44.3976 97.2485 43.6215 97.1709 42.3245 97.3372C41.0385 97.5034 39.2315 97.9801 37.3912 99.0333L37.7127 99.1885C37.5907 98.5233 37.4134 97.8249 37.1473 97.1598C36.6484 95.9071 35.9057 94.8428 35.1297 94.0003C34.3426 93.1688 33.4889 92.5591 32.7462 92.1489C31.9923 91.7277 31.3272 91.5281 30.8726 91.3951C30.407 91.2953 30.1521 91.2621 30.141 91.2953Z" fill="#CC8F75"/>
<path d="M27.6912 104.154C27.6247 104.242 29.4428 105.44 31.9815 106.227C34.5202 107.025 36.682 107.069 36.693 106.959C36.7041 106.826 34.5978 106.582 32.1145 105.806C29.6313 105.03 27.7577 104.032 27.6912 104.154Z" fill="#CC8F75"/>
<path d="M94.2393 90.8519L80.1934 118.963L87.7762 146.664L107.93 125.359L127.808 88.4354L94.2393 90.8519Z" fill="#FFD1BD"/>
<path d="M81.0252 93.4901C81.0252 93.4901 61.0705 100.584 61.0705 101.904V101.915C57.5451 104.686 45.8051 133.063 42.0691 138.428L31.3933 154.158L40.3397 119.196L20.6399 113.399C20.6399 113.399 3.81136 154.058 1.77154 163.092C-0.268278 172.137 2.09304 179.309 2.09304 179.309L2.2039 179.221C3.63399 183.599 6.40548 187.113 9.58716 189.142C17.946 194.496 25.7394 195.504 33.7214 189.607C38.2444 186.26 43.4105 182.236 48.1442 178.467L49.3859 207.82H60.2612C60.2612 206.168 59.9286 186.06 59.9286 186.06C59.9286 186.06 62.2345 178.478 63.2212 171.55C64.2078 164.622 80.4155 119.196 80.4155 119.196L92.9981 94.9644L93.2863 85.9967L81.0252 93.4901Z" fill="#FE565B"/>
<path d="M49.1527 207.576C49.1306 207.576 49.0973 207.265 49.0641 206.667C49.0197 206.013 48.9643 205.137 48.8978 204.04C48.7758 201.701 48.6095 198.386 48.3989 194.307C48.022 186.016 47.512 174.576 46.9355 161.773V161.74L46.9466 161.707C47.1794 160.498 47.4344 159.201 47.6783 157.893C50.3168 144.436 52.7003 132.243 54.4408 123.364C55.3276 118.985 56.0482 115.438 56.5582 112.911C56.8132 111.714 57.0127 110.771 57.1568 110.073C57.2233 109.774 57.2788 109.541 57.3231 109.341C57.3675 109.175 57.3896 109.098 57.4007 109.098C57.4118 109.098 57.4007 109.186 57.3785 109.353C57.3453 109.552 57.312 109.796 57.2677 110.095C57.1457 110.794 56.9794 111.747 56.7688 112.955C56.3032 115.483 55.6491 119.052 54.8288 123.441C53.1326 132.332 50.8046 144.525 48.2326 158.004C47.9776 159.312 47.7337 160.598 47.4898 161.817L47.5009 161.751C48.0109 174.565 48.4543 186.005 48.7869 194.296C48.9199 198.386 49.0308 201.69 49.1084 204.04C49.1306 205.148 49.1527 206.024 49.1638 206.678C49.1749 207.265 49.1749 207.576 49.1527 207.576Z" fill="#05294A"/>
<path d="M60.3162 181.527C60.294 181.527 60.3273 181.206 60.416 180.607C60.5158 179.953 60.6488 179.088 60.8151 177.991C61.192 175.663 61.7241 172.393 62.3782 168.369C63.764 160.211 65.6708 149.026 67.766 136.678C69.1739 128.597 70.4932 121.015 71.6239 114.552V114.519L71.635 114.497C74.4065 108.223 76.7124 102.98 78.3642 99.2328C79.1735 97.4371 79.8165 96.0071 80.2932 94.9651C80.5038 94.5107 80.6812 94.1449 80.8142 93.8456C80.9362 93.5906 81.0027 93.4687 81.0138 93.4687C81.0249 93.4687 80.9805 93.6128 80.8807 93.8677C80.7588 94.167 80.6147 94.5439 80.4262 95.0095C79.9939 96.0626 79.3841 97.5036 78.6303 99.3326C77.0339 103.09 74.7834 108.367 72.0895 114.674L72.1117 114.619C71.0031 121.081 69.7061 128.663 68.3314 136.755C66.1696 149.093 64.2074 160.266 62.7773 168.414C62.0456 172.415 61.447 175.674 61.0257 178.002C60.8151 179.088 60.6488 179.953 60.5269 180.607C60.4049 181.228 60.3273 181.538 60.3162 181.527Z" fill="#05294A"/>
<path d="M22.0703 178.267C21.9927 178.212 22.8463 176.993 24.0436 174.909C25.2409 172.836 26.7375 169.865 28.0457 166.44C29.3538 163.015 30.2407 159.822 30.795 157.483C31.3493 155.144 31.6043 153.681 31.693 153.692C31.7373 153.703 31.7151 154.069 31.6375 154.745C31.571 155.421 31.4158 156.386 31.1941 157.572C30.7396 159.944 29.9081 163.203 28.5889 166.65C27.2697 170.098 25.6954 173.08 24.3984 175.119C23.7554 176.139 23.19 176.948 22.7687 177.48C22.3475 178.012 22.1036 178.29 22.0703 178.267Z" fill="#05294A"/>
<g opacity="0.2">
<g opacity="0.2">
<g opacity="0.2">
<path opacity="0.2" d="M23.5776 176.649C22.8348 176.715 22.4136 177.691 22.7351 178.367C23.0566 179.043 23.8991 179.354 24.6418 179.243C25.3846 179.132 26.0276 178.689 26.5819 178.179C28.278 176.627 29.2758 174.454 29.9742 172.259C31.6593 166.916 31.7369 161.219 31.8034 155.621C30.2403 162.915 27.4577 169.943 23.6219 176.327" fill="black"/>
</g>
</g>
</g>
<g opacity="0.2">
<g opacity="0.2">
<g opacity="0.2">
<path opacity="0.2" d="M47.8118 179.254C44.4305 173.889 43.3441 167.615 43.7875 161.285C44.3862 152.75 48.5323 144.957 51.6253 136.987C49.8405 145.367 48.8317 153.692 47.2131 161.751C47.2131 161.751 48.0778 173.723 48.1 179.043" fill="black"/>
</g>
</g>
</g>
<g opacity="0.2">
<g opacity="0.2">
<g opacity="0.2">
<path opacity="0.2" d="M61.5801 173.911C62.4448 161.141 63.3206 148.349 65.571 135.757C67.8326 123.164 72.2115 110.106 78.4308 98.9217C76.8233 103.976 71.8679 114.607 71.8679 114.607C71.8679 114.607 64.7063 152.318 61.6133 171.306" fill="black"/>
</g>
</g>
</g>
<path d="M59.9734 188.587L61.7582 208.385L52.4128 208.352C52.1689 208.352 48.3442 208.285 44.1426 208.219C41.0496 208.618 36.1385 208.629 34.653 208.474C34.3869 208.452 34.2317 208.418 34.2096 208.374C34.2096 208.374 33.5001 208.285 32.7684 208.03C32.7462 208.03 32.724 208.03 32.724 208.03V208.019C31.8815 207.709 31.0057 207.166 31.1387 206.235C31.5489 203.397 33.234 203.164 33.234 203.164C33.234 203.164 33.5555 203.142 34.0765 203.109L34.1431 202.865C32.8571 202.865 31.7817 202.831 31.2053 202.776C30.9392 202.754 30.784 202.71 30.7618 202.676C30.7618 202.676 27.4471 202.288 27.7021 200.526C28.1123 197.688 29.7973 197.455 29.7973 197.455C29.7973 197.455 30.9392 197.378 32.5245 197.267C31.1942 197.267 30.0745 197.234 29.4869 197.178C29.2209 197.145 29.0657 197.112 29.0435 197.078C29.0435 197.078 25.7288 196.69 25.9838 194.928C26.3939 192.09 28.079 191.857 28.079 191.857C28.079 191.857 28.9992 191.791 30.3406 191.702C29.2652 191.691 28.3783 191.658 27.8795 191.614C27.6134 191.58 27.4582 191.547 27.436 191.514C27.436 191.514 24.1213 191.126 24.3763 189.363C24.7865 186.526 26.4715 186.293 26.4715 186.293C26.4715 186.293 31.693 185.916 35.2627 185.772C35.2627 185.772 39.3202 182.114 40.9277 182.28C43.3222 182.535 57.2241 187.667 57.2241 187.667L59.9734 188.587Z" fill="#FFD1BD"/>
<path d="M42.4248 202.577C42.4137 202.743 40.3406 202.942 37.7908 203.02C35.241 203.098 33.1901 203.031 33.2012 202.876C33.2123 202.71 35.2854 202.51 37.8352 202.432C40.3849 202.344 42.4469 202.41 42.4248 202.577Z" fill="#CC8F75"/>
<path d="M42.458 196.956C42.469 197.123 39.5091 197.356 35.8729 197.489C32.2256 197.622 29.2656 197.588 29.2656 197.422C29.2656 197.256 32.2145 197.023 35.8507 196.89C39.498 196.768 42.458 196.79 42.458 196.956Z" fill="#CC8F75"/>
<g opacity="0.78">
<g opacity="0.78">
<g opacity="0.78">
<g opacity="0.78">
<g opacity="0.78">
<g opacity="0.78">
<g opacity="0.78">
<path opacity="0.78" d="M41.9921 191.26C42.0032 191.426 39.0433 191.659 35.4071 191.792C31.7598 191.925 28.7998 191.892 28.7998 191.725C28.7887 191.559 31.7487 191.326 35.3849 191.193C39.0211 191.06 41.9811 191.093 41.9921 191.26Z" fill="#CC8F75"/>
</g>
</g>
</g>
</g>
</g>
</g>
</g>
<path d="M33.8105 185.894C33.8105 185.961 34.6198 186.016 35.9058 186.06C37.3913 186.105 39.0986 186.16 40.9721 186.227C42.8456 186.293 44.5529 186.36 46.0384 186.404C47.3354 186.448 48.1447 186.448 48.1447 186.382C48.1447 186.315 47.3576 186.193 46.0606 186.06C44.7635 185.927 42.9786 185.805 40.9943 185.739C39.0099 185.672 37.2139 185.672 35.9169 185.717C34.6087 185.761 33.8105 185.828 33.8105 185.894Z" fill="#CC8F75"/>
<path d="M136.999 24.6418C139.35 18.9331 146.788 16.3282 152.586 18.4565C158.384 20.5848 162.264 26.5374 162.963 32.6673C163.306 35.6824 162.929 38.9081 161.189 41.4022C159.36 44.0293 156.233 45.5258 153.063 45.9692C147.409 46.7673 141.412 44.2953 137.953 39.7616C134.494 35.2168 133.696 28.7876 135.957 23.5444" fill="#05294A"/>
<path d="M160.601 25.3956C160.634 25.4178 160.49 25.6949 160.18 26.1495C159.869 26.6151 159.382 27.247 158.683 27.9676C157.32 29.4087 155.058 31.1271 152.154 32.1248C149.249 33.1225 146.411 33.1558 144.449 32.8565C143.462 32.7124 142.686 32.5128 142.154 32.3354C141.622 32.1581 141.345 32.025 141.356 31.9918C141.378 31.892 142.553 32.2689 144.493 32.4463C146.422 32.6348 149.16 32.535 151.965 31.5705C154.77 30.606 156.987 29.0096 158.395 27.6682C159.825 26.349 160.523 25.3402 160.601 25.3956Z" fill="#05294A"/>
<path d="M160.601 25.3956C160.634 25.4178 160.49 25.6949 160.18 26.1495C159.869 26.6151 159.382 27.247 158.683 27.9676C157.32 29.4087 155.058 31.1271 152.154 32.1248C149.249 33.1225 146.411 33.1558 144.449 32.8565C143.462 32.7124 142.686 32.5128 142.154 32.3354C141.622 32.1581 141.345 32.025 141.356 31.9918C141.378 31.892 142.553 32.2689 144.493 32.4463C146.422 32.6348 149.16 32.535 151.965 31.5705C154.77 30.606 156.987 29.0096 158.395 27.6682C159.825 26.349 160.523 25.3402 160.601 25.3956Z" fill="white" fill-opacity="0.16"/>
<path d="M163.062 31.9135C163.084 31.9468 162.863 32.1574 162.43 32.5122C161.998 32.878 161.344 33.3547 160.501 33.8979C158.816 34.9733 156.311 36.2925 153.273 36.9355C151.755 37.2459 150.28 37.3346 148.939 37.2791C147.597 37.2015 146.411 36.9798 145.436 36.7027C144.471 36.4144 143.706 36.1262 143.207 35.8712C142.697 35.6273 142.431 35.4721 142.453 35.4389C142.498 35.3391 143.629 35.8601 145.546 36.3147C146.511 36.5364 147.664 36.7138 148.961 36.7581C150.258 36.7803 151.688 36.6805 153.151 36.3812C156.089 35.7604 158.572 34.5409 160.291 33.5653C162.009 32.5565 163.007 31.8359 163.062 31.9135Z" fill="#05294A"/>
<path d="M163.062 31.9135C163.084 31.9468 162.863 32.1574 162.43 32.5122C161.998 32.878 161.344 33.3547 160.501 33.8979C158.816 34.9733 156.311 36.2925 153.273 36.9355C151.755 37.2459 150.28 37.3346 148.939 37.2791C147.597 37.2015 146.411 36.9798 145.436 36.7027C144.471 36.4144 143.706 36.1262 143.207 35.8712C142.697 35.6273 142.431 35.4721 142.453 35.4389C142.498 35.3391 143.629 35.8601 145.546 36.3147C146.511 36.5364 147.664 36.7138 148.961 36.7581C150.258 36.7803 151.688 36.6805 153.151 36.3812C156.089 35.7604 158.572 34.5409 160.291 33.5653C162.009 32.5565 163.007 31.8359 163.062 31.9135Z" fill="white" fill-opacity="0.16"/>
<path d="M77.0459 41.7015C63.3215 11.5173 95.9697 -3.63571 113.774 1.38574C130.514 6.1079 137.653 14.4437 140.402 25.6395C143.163 36.8352 143.03 48.9732 138.64 59.6368C136.478 64.8911 132.576 70.245 126.933 70.8991" fill="#05294A"/>
<path d="M93.442 116.292C93.2092 101.87 93.0429 82.0616 93.0318 82.1503C93.0318 82.1503 80.6377 80.0885 78.0658 63.9156C76.7909 55.8791 77.19 42.688 77.8662 31.9135C78.4759 22.2143 84.9058 10.3091 94.5728 11.3289L124.76 18.9553C127.698 19.2657 129.904 21.7709 129.848 24.7194L127.886 87.1495" fill="#FFD1BD"/>
<path d="M85.272 43.3977C85.2166 44.4841 86.1034 45.4264 87.2342 45.504C88.365 45.5816 89.3295 44.7612 89.3849 43.6748C89.4403 42.5884 88.5534 41.6461 87.4227 41.5685C86.2919 41.4909 85.3274 42.3112 85.272 43.3977Z" fill="#05294A"/>
<path d="M107.643 43.3977C107.588 44.4841 108.475 45.4264 109.605 45.504C110.736 45.5816 111.701 44.7612 111.756 43.6748C111.811 42.5884 110.925 41.6461 109.794 41.5685C108.652 41.4909 107.699 42.3112 107.643 43.3977Z" fill="#05294A"/>
<path d="M94.2518 54.8482C94.2629 54.7262 92.8771 54.4824 90.6267 54.1942C90.0613 54.1387 89.5181 54.0168 89.4183 53.6288C89.2853 53.2187 89.5181 52.5979 89.7952 51.9439C90.3274 50.5694 90.8927 49.1173 91.4803 47.6097C93.8194 41.4355 95.5156 36.3475 95.2606 36.2588C95.0056 36.1701 92.9104 41.1029 90.5712 47.2772C90.0059 48.7958 89.4737 50.248 88.9527 51.6446C88.7421 52.2876 88.3651 53.0303 88.6534 53.8838C88.8086 54.305 89.2298 54.6154 89.5957 54.7152C89.9615 54.826 90.283 54.8371 90.5602 54.8482C92.8439 54.9701 94.2518 54.9812 94.2518 54.8482Z" fill="#05294A"/>
<path d="M92.999 82.2173C92.999 82.2173 103.874 82.9157 114.661 76.4415C114.661 76.4415 109.185 87.6938 92.999 86.175V82.2173Z" fill="#CC8F75"/>
<path d="M126.767 45.1267C126.999 45.0159 135.425 41.2913 135.524 50.9684C135.624 60.6456 125.88 58.75 125.858 58.4729C125.846 58.1958 126.767 45.1267 126.767 45.1267Z" fill="#FFD1BD"/>
<path d="M128.784 54.7824C128.828 54.7492 128.95 54.8933 129.238 55.0263C129.515 55.1483 129.992 55.2369 130.502 55.0374C131.522 54.6494 132.364 53.0197 132.398 51.2682C132.409 50.3813 132.22 49.5498 131.899 48.8625C131.6 48.153 131.134 47.6652 130.613 47.5765C130.103 47.4657 129.737 47.7761 129.626 48.0532C129.504 48.3304 129.56 48.5188 129.515 48.5299C129.493 48.5521 129.305 48.3747 129.382 47.9645C129.416 47.7761 129.526 47.5433 129.759 47.3548C129.992 47.1664 130.336 47.0666 130.69 47.0998C131.433 47.1442 132.121 47.8204 132.464 48.5854C132.852 49.3503 133.096 50.2926 133.074 51.2792C133.03 53.2304 132.054 55.0707 130.657 55.4808C129.981 55.6693 129.404 55.4697 129.116 55.2369C128.795 55.0152 128.75 54.7935 128.784 54.7824Z" fill="#CC8F75"/>
<path d="M94.9162 61.0671C95.2377 61.8874 95.5702 62.73 96.1245 63.4284C96.6678 64.1268 97.4659 64.6811 98.3528 64.7254C99.2951 64.7698 100.204 64.2155 100.725 63.4284C101.246 62.6413 101.435 61.6657 101.39 60.7234C101.357 59.8698 100.958 58.8499 100.115 58.7501C99.7607 58.7058 99.4171 58.8499 99.0845 58.9829C97.599 59.5815 96.1135 60.1913 94.6279 60.7899" fill="#CC8F75"/>
<path d="M96.6897 64.7476C96.7119 64.6035 97.6875 65.0026 99.0621 64.4594C99.7273 64.1933 100.459 63.6612 100.858 62.8297C101.257 62.0094 101.335 60.8897 100.914 59.9141C100.814 59.6702 100.67 59.4485 100.525 59.249C100.348 59.0605 100.381 59.0716 100.193 59.1048C100.016 59.1492 99.7162 59.2933 99.4834 59.382C99.2395 59.4818 98.9956 59.5815 98.7517 59.6813C97.7983 60.0693 96.9336 60.4019 96.202 60.679C94.7386 61.2223 93.8185 61.5105 93.7741 61.4107C93.7298 61.3109 94.5723 60.8453 95.9802 60.1691C96.6787 59.8254 97.5212 59.4374 98.4635 59.0161C98.6963 58.9053 98.9402 58.8055 99.1841 58.6947C99.4391 58.5838 99.6386 58.4729 99.9934 58.3621C100.171 58.3177 100.415 58.2845 100.659 58.3842C100.891 58.484 101.035 58.6392 101.146 58.7723C101.346 59.0383 101.523 59.3044 101.645 59.6148C102.166 60.8342 102.044 62.1756 101.512 63.1734C100.969 64.1933 100.038 64.7698 99.2506 65.0026C98.4524 65.2465 97.754 65.191 97.3216 65.0802C96.8782 64.9471 96.6787 64.7919 96.6897 64.7476Z" fill="#05294A"/>
<path d="M137.631 38.4979C136.633 38.4314 128.64 39.4623 129.272 54.3272C129.859 68.2055 139.604 65.1571 142.708 59.925C145.646 54.9812 147.353 39.1852 137.631 38.4979Z" fill="#05294A"/>
<path d="M137.631 38.4979C136.633 38.4314 128.64 39.4623 129.272 54.3272C129.859 68.2055 139.604 65.1571 142.708 59.925C145.646 54.9812 147.353 39.1852 137.631 38.4979Z" fill="white" fill-opacity="0.16"/>
<path d="M142.575 40.2604C142.564 40.2604 142.553 40.1274 142.542 39.8725C142.531 39.5843 142.519 39.2074 142.497 38.7418C142.464 37.7109 142.431 36.281 142.375 34.5074C142.298 30.8605 142.198 25.7836 142.087 19.9308L142.264 20.1081C140.945 20.1081 139.559 20.1081 138.14 20.1192L138.329 19.9308C138.362 21.0393 138.395 22.2032 138.418 23.3892C138.551 28.9649 138.684 34.1637 138.795 38.509V38.642L138.673 38.6753C136.821 39.1076 135.347 40.1939 134.427 41.4133C133.484 42.6326 133.019 43.9295 132.731 45.0048C132.442 46.08 132.354 46.9557 132.298 47.5432C132.276 47.8425 132.254 48.0642 132.254 48.2194C132.243 48.3746 132.243 48.4522 132.232 48.4522C132.221 48.4522 132.209 48.3746 132.209 48.2194C132.198 48.0642 132.198 47.8314 132.209 47.5321C132.232 46.9335 132.298 46.0467 132.564 44.9604C132.83 43.8741 133.285 42.5439 134.238 41.2692C135.169 39.9944 136.699 38.8527 138.617 38.3871L138.495 38.5423C138.373 34.197 138.218 28.9982 138.063 23.4225C138.03 22.2364 137.996 21.0725 137.974 19.964V19.7756H138.163C139.582 19.7756 140.967 19.7756 142.287 19.7867H142.464V19.964C142.531 25.8168 142.586 30.8937 142.619 34.5406C142.63 36.3142 142.63 37.7442 142.63 38.7751C142.63 39.2406 142.619 39.6175 142.619 39.9057C142.586 40.1274 142.586 40.2604 142.575 40.2604Z" fill="#05294A"/>
<path d="M142.575 40.2604C142.564 40.2604 142.553 40.1274 142.542 39.8725C142.531 39.5843 142.519 39.2074 142.497 38.7418C142.464 37.7109 142.431 36.281 142.375 34.5074C142.298 30.8605 142.198 25.7836 142.087 19.9308L142.264 20.1081C140.945 20.1081 139.559 20.1081 138.14 20.1192L138.329 19.9308C138.362 21.0393 138.395 22.2032 138.418 23.3892C138.551 28.9649 138.684 34.1637 138.795 38.509V38.642L138.673 38.6753C136.821 39.1076 135.347 40.1939 134.427 41.4133C133.484 42.6326 133.019 43.9295 132.731 45.0048C132.442 46.08 132.354 46.9557 132.298 47.5432C132.276 47.8425 132.254 48.0642 132.254 48.2194C132.243 48.3746 132.243 48.4522 132.232 48.4522C132.221 48.4522 132.209 48.3746 132.209 48.2194C132.198 48.0642 132.198 47.8314 132.209 47.5321C132.232 46.9335 132.298 46.0467 132.564 44.9604C132.83 43.8741 133.285 42.5439 134.238 41.2692C135.169 39.9944 136.699 38.8527 138.617 38.3871L138.495 38.5423C138.373 34.197 138.218 28.9982 138.063 23.4225C138.03 22.2364 137.996 21.0725 137.974 19.964V19.7756H138.163C139.582 19.7756 140.967 19.7756 142.287 19.7867H142.464V19.964C142.531 25.8168 142.586 30.8937 142.619 34.5406C142.63 36.3142 142.63 37.7442 142.63 38.7751C142.63 39.2406 142.619 39.6175 142.619 39.9057C142.586 40.1274 142.586 40.2604 142.575 40.2604Z" fill="white" fill-opacity="0.16"/>
<path d="M137.62 19.9197C137.62 19.9197 133.44 10.1318 123.474 5.29874C118.651 2.95983 115.037 1.75157 111.534 0.875866C111.534 0.875866 117.343 -0.509747 126.755 3.68034C131.034 5.58694 135.336 8.05888 138.185 11.7723C139.992 14.1334 142.253 18.7336 142.253 19.9197H137.62Z" fill="#05294A"/>
<path d="M137.62 19.9197C137.62 19.9197 133.44 10.1318 123.474 5.29874C118.651 2.95983 115.037 1.75157 111.534 0.875866C111.534 0.875866 117.343 -0.509747 126.755 3.68034C131.034 5.58694 135.336 8.05888 138.185 11.7723C139.992 14.1334 142.253 18.7336 142.253 19.9197H137.62Z" fill="white" fill-opacity="0.16"/>
<path d="M136.566 64.0819C136.566 64.093 136.467 64.0708 136.289 64.0043C136.112 63.9378 135.857 63.8159 135.546 63.6163C134.937 63.2284 134.116 62.5189 133.451 61.3772C132.775 60.2465 132.331 58.7279 132.165 57.0208C131.999 55.3137 131.999 53.4293 132.154 51.4673C132.32 49.5053 132.653 47.643 133.074 45.9914C133.496 44.3397 133.994 42.8543 134.671 41.7348C135.347 40.6152 136.156 39.8947 136.777 39.5067C137.087 39.3183 137.342 39.1963 137.52 39.1298C137.697 39.0633 137.797 39.0411 137.797 39.0522C137.808 39.0855 137.431 39.2185 136.855 39.6286C136.278 40.0388 135.513 40.7593 134.892 41.8678C134.26 42.9652 133.795 44.4284 133.396 46.0689C132.997 47.7095 132.675 49.5496 132.509 51.4895C132.354 53.4293 132.343 55.3027 132.487 56.9765C132.631 58.6503 133.041 60.1357 133.662 61.2442C134.272 62.3526 135.036 63.0842 135.613 63.4944C136.2 63.9156 136.577 64.0486 136.566 64.0819Z" fill="#05294A"/>
<path d="M105.348 66.1118L97.6876 67.6195C96.6677 67.819 95.67 67.1539 95.4704 66.1339L95.3596 65.5575C95.16 64.5376 95.8252 63.5398 96.8451 63.3403L104.506 61.8326C105.525 61.633 106.523 62.2982 106.723 63.3181L106.834 63.8946C107.033 64.9145 106.368 65.9122 105.348 66.1118Z" fill="#05294A"/>
<path d="M105.348 66.1118L97.6876 67.6195C96.6677 67.819 95.67 67.1539 95.4704 66.1339L95.3596 65.5575C95.16 64.5376 95.8252 63.5398 96.8451 63.3403L104.506 61.8326C105.525 61.633 106.523 62.2982 106.723 63.3181L106.834 63.8946C107.033 64.9145 106.368 65.9122 105.348 66.1118Z" fill="white" fill-opacity="0.16"/>
<path d="M105.747 62.9623L139.726 52.2986C140.568 52.0326 141.466 52.4982 141.732 53.3406C142.009 54.2163 141.51 55.1364 140.624 55.3802L105.869 64.7691L105.747 62.9623Z" fill="#05294A"/>
<path d="M105.747 62.9623L139.726 52.2986C140.568 52.0326 141.466 52.4982 141.732 53.3406C142.009 54.2163 141.51 55.1364 140.624 55.3802L105.869 64.7691L105.747 62.9623Z" fill="white" fill-opacity="0.16"/>
<path d="M130.868 58.274C130.857 58.2518 131.268 58.1077 131.999 57.8749C132.797 57.631 133.839 57.3095 135.103 56.9326C136.411 56.5335 138.008 56.1011 139.704 55.5468C140.114 55.3916 140.513 55.181 140.813 54.8595C141.112 54.5491 141.3 54.1167 141.289 53.6733C141.289 53.2409 141.012 52.8419 140.591 52.6977C140.17 52.5536 139.66 52.6201 139.172 52.7421C135.225 54.017 131.644 55.1588 128.984 56.0235C127.72 56.4115 126.678 56.733 125.88 56.9769C125.148 57.1986 124.738 57.3095 124.727 57.2762C124.716 57.243 125.115 57.0989 125.835 56.8328C126.622 56.5557 127.653 56.2009 128.906 55.7575C131.511 54.8706 135.081 53.6511 139.083 52.3652C139.604 52.2432 140.17 52.1545 140.713 52.3319C141.267 52.5093 141.666 53.0857 141.655 53.6511C141.655 54.2054 141.433 54.7154 141.068 55.0923C140.702 55.4581 140.258 55.6799 139.826 55.8462C138.074 56.4005 136.5 56.7885 135.181 57.1654C133.906 57.509 132.842 57.7862 132.044 57.9968C131.29 58.2075 130.88 58.3072 130.868 58.274Z" fill="#05294A"/>
<path d="M113.042 38.6533C112.776 39.0635 110.459 37.7997 107.566 38.3097C104.672 38.7864 102.909 40.7708 102.521 40.4714C102.333 40.3384 102.532 39.6289 103.297 38.7531C104.051 37.8884 105.459 36.9239 107.266 36.6024C109.073 36.292 110.725 36.7244 111.723 37.2898C112.743 37.8552 113.164 38.4649 113.042 38.6533Z" fill="#CC8F75"/>
<path d="M112.709 39.0191C112.665 39.0967 112.089 38.8417 111.113 38.62C110.148 38.3983 108.752 38.2652 107.288 38.5978C105.814 38.9304 104.617 39.6399 103.841 40.2496C103.053 40.8593 102.643 41.3471 102.577 41.2917C102.521 41.2584 102.821 40.6709 103.574 39.9392C104.317 39.2186 105.581 38.3872 107.166 38.0324C108.752 37.6777 110.248 37.8883 111.235 38.2209C112.222 38.5535 112.743 38.9526 112.709 39.0191Z" fill="#05294A"/>
<path d="M114.206 32.5123C113.973 33.2883 111.501 33.2329 108.563 33.3659C105.625 33.4546 103.142 33.6763 102.865 32.9225C102.743 32.5566 103.242 31.9802 104.25 31.4813C105.248 30.9714 106.756 30.5501 108.452 30.4836C110.148 30.4171 111.689 30.7275 112.72 31.1598C113.762 31.6033 114.305 32.1354 114.206 32.5123Z" fill="#05294A"/>
<path d="M89.8282 40.3606C89.6065 40.4825 89.163 40.0723 88.4646 39.5846C87.7662 39.0968 86.7574 38.5868 85.5157 38.3984C83.0103 37.9882 80.9927 39.1411 80.7044 38.7309C80.5714 38.5536 80.9151 37.9882 81.8019 37.4228C82.6777 36.8796 84.1522 36.4251 85.7818 36.68C87.4114 36.9239 88.7196 37.8551 89.3293 38.7088C89.9612 39.5846 90.0166 40.2608 89.8282 40.3606Z" fill="#CC8F75"/>
<path d="M90.1048 41.5577C90.0272 41.6132 89.6503 41.0478 88.8742 40.3605C88.0982 39.6731 86.8566 38.8638 85.3156 38.5313C83.7747 38.1987 82.3003 38.4093 81.3136 38.7197C80.3159 39.019 79.7394 39.3738 79.695 39.2962C79.6507 39.2408 80.1607 38.7641 81.1806 38.3428C82.1894 37.9215 83.7636 37.6111 85.4376 37.977C87.1116 38.3428 88.4197 39.274 89.1625 40.0722C89.9052 40.8815 90.1602 41.5356 90.1048 41.5577Z" fill="#05294A"/>
<path d="M91.1026 33.4878C90.9585 34.286 88.5972 34.5077 85.7924 34.5409C82.9877 34.552 80.6263 34.3636 80.4711 33.5654C80.3159 32.8004 82.6662 31.6697 85.7702 31.6475C88.8854 31.6253 91.2578 32.7117 91.1026 33.4878Z" fill="#05294A"/>
<path d="M117.21 10.5539C115.459 13.181 113.685 15.8636 112.787 18.9008C111.878 21.927 111.956 25.4077 113.74 28.0237C115.448 30.5289 118.363 31.8369 121.024 33.289C123.684 34.7411 126.401 36.7364 127.066 39.685C127.276 40.6051 126.877 43.8418 127.576 44.4848C128.529 45.3716 130.203 44.8284 130.924 43.7421C131.644 42.6668 132.121 39.1086 132.132 37.8117C132.187 33.7878 132.243 29.7529 132.298 25.7291C132.343 22.315 132.298 18.7789 130.824 15.7084C128.762 11.4075 124.472 10.0329 118.219 10.3322" fill="#05294A"/>
<path d="M77.5001 34.8073C78.0323 30.728 79.5178 26.7264 82.0897 23.5118C84.6617 20.2971 88.3644 17.9361 92.433 17.3153C96.5126 16.7056 100.637 17.8363 104.749 18.0691C108.873 18.3019 113.563 17.2931 115.714 13.7792C116.379 12.6818 116.7 11.141 115.847 10.1877C115.525 9.82193 115.082 9.60023 114.638 9.38962C109.173 6.81792 102.987 5.65401 97.0114 6.5408C91.0361 7.42759 85.3268 10.4427 81.5687 15.1759C77.8105 19.9092 76.1809 26.3606 77.6553 32.2245" fill="#05294A"/>
<path d="M75.0394 28.733C75.0173 28.733 74.9507 28.5556 74.851 28.2009C74.7401 27.8462 74.6182 27.3252 74.5184 26.6269C74.3299 25.2523 74.3078 23.1573 75.0727 20.7519C75.8155 18.3575 77.3675 15.6417 79.9283 13.5024C82.467 11.3408 85.9037 9.74457 89.684 9.11274C93.4754 8.4809 97.1781 8.8467 100.393 9.60047C102.001 9.97736 103.508 10.4429 104.883 10.9528C106.269 11.4627 107.499 12.017 108.674 12.3384C111.058 12.8262 113.098 13.1255 114.428 12.8483C115.78 12.5712 116.257 11.8618 116.301 11.9283C116.313 11.9394 116.202 12.1057 115.925 12.3495C115.647 12.6045 115.16 12.8927 114.472 13.07C113.064 13.4248 111.036 13.192 108.575 12.7375C107.344 12.4382 106.091 11.884 104.717 11.4073C103.353 10.9196 101.856 10.4873 100.271 10.1215C97.1005 9.41203 93.4754 9.0684 89.7727 9.68915C86.0811 10.2988 82.7442 11.8396 80.2609 13.9125C77.7555 15.9743 76.2145 18.5681 75.4496 20.8849C74.6625 23.2127 74.6182 25.2412 74.729 26.6047C74.862 27.9792 75.0949 28.7219 75.0394 28.733Z" fill="#05294A"/>
<path d="M75.0394 28.733C75.0173 28.733 74.9507 28.5556 74.851 28.2009C74.7401 27.8462 74.6182 27.3252 74.5184 26.6269C74.3299 25.2523 74.3078 23.1573 75.0727 20.7519C75.8155 18.3575 77.3675 15.6417 79.9283 13.5024C82.467 11.3408 85.9037 9.74457 89.684 9.11274C93.4754 8.4809 97.1781 8.8467 100.393 9.60047C102.001 9.97736 103.508 10.4429 104.883 10.9528C106.269 11.4627 107.499 12.017 108.674 12.3384C111.058 12.8262 113.098 13.1255 114.428 12.8483C115.78 12.5712 116.257 11.8618 116.301 11.9283C116.313 11.9394 116.202 12.1057 115.925 12.3495C115.647 12.6045 115.16 12.8927 114.472 13.07C113.064 13.4248 111.036 13.192 108.575 12.7375C107.344 12.4382 106.091 11.884 104.717 11.4073C103.353 10.9196 101.856 10.4873 100.271 10.1215C97.1005 9.41203 93.4754 9.0684 89.7727 9.68915C86.0811 10.2988 82.7442 11.8396 80.2609 13.9125C77.7555 15.9743 76.2145 18.5681 75.4496 20.8849C74.6625 23.2127 74.6182 25.2412 74.729 26.6047C74.862 27.9792 75.0949 28.7219 75.0394 28.733Z" fill="white" fill-opacity="0.16"/>
<path d="M92.9316 3.30372C92.9316 3.27046 93.2864 3.18178 93.9515 3.10417C94.6167 3.02657 95.5812 2.99331 96.7785 3.10417C99.1398 3.31481 102.488 4.23494 105.381 6.54083C106.811 7.68268 108.009 8.91322 109.283 9.77793C110.525 10.6426 111.889 11.0306 113.019 11.2856C114.161 11.5295 115.115 11.5628 115.747 11.4741C116.39 11.3965 116.711 11.2191 116.744 11.2745C116.767 11.2967 116.456 11.5517 115.791 11.6958C115.126 11.851 114.139 11.8843 112.953 11.6847C111.778 11.4741 110.348 11.1304 108.995 10.2214C107.654 9.34558 106.423 8.10395 105.038 6.99535C102.244 4.76707 99.0511 3.81367 96.7452 3.50327C94.4061 3.19286 92.9427 3.40349 92.9316 3.30372Z" fill="#05294A"/>
<path d="M92.9316 3.30372C92.9316 3.27046 93.2864 3.18178 93.9515 3.10417C94.6167 3.02657 95.5812 2.99331 96.7785 3.10417C99.1398 3.31481 102.488 4.23494 105.381 6.54083C106.811 7.68268 108.009 8.91322 109.283 9.77793C110.525 10.6426 111.889 11.0306 113.019 11.2856C114.161 11.5295 115.115 11.5628 115.747 11.4741C116.39 11.3965 116.711 11.2191 116.744 11.2745C116.767 11.2967 116.456 11.5517 115.791 11.6958C115.126 11.851 114.139 11.8843 112.953 11.6847C111.778 11.4741 110.348 11.1304 108.995 10.2214C107.654 9.34558 106.423 8.10395 105.038 6.99535C102.244 4.76707 99.0511 3.81367 96.7452 3.50327C94.4061 3.19286 92.9427 3.40349 92.9316 3.30372Z" fill="white" fill-opacity="0.16"/>
<path d="M141.888 32.9894C141.832 33.0115 141.666 32.6014 141.201 31.9805C140.724 31.3819 139.892 30.5726 138.629 30.0072C137.376 29.4197 135.735 29.0317 133.906 29.0538C132.066 29.076 130.059 29.4862 127.931 29.8853C125.813 30.2955 123.707 30.5394 121.811 30.3509C119.915 30.1846 118.253 29.719 116.933 29.1758C115.603 28.6437 114.616 28.0228 113.962 27.5794C113.308 27.1249 112.987 26.8145 113.009 26.7923C113.075 26.6925 114.45 27.8233 117.089 28.7989C118.397 29.2866 120.026 29.6968 121.867 29.8299C123.707 29.9851 125.724 29.7301 127.842 29.331C129.959 28.943 132.01 28.5328 133.917 28.5439C135.835 28.5439 137.542 28.9984 138.828 29.6525C140.136 30.3066 140.968 31.1934 141.4 31.8697C141.611 32.2133 141.755 32.4905 141.821 32.69C141.877 32.8785 141.91 32.9783 141.888 32.9894Z" fill="#05294A"/>
<path d="M141.888 32.9894C141.832 33.0115 141.666 32.6014 141.201 31.9805C140.724 31.3819 139.892 30.5726 138.629 30.0072C137.376 29.4197 135.735 29.0317 133.906 29.0538C132.066 29.076 130.059 29.4862 127.931 29.8853C125.813 30.2955 123.707 30.5394 121.811 30.3509C119.915 30.1846 118.253 29.719 116.933 29.1758C115.603 28.6437 114.616 28.0228 113.962 27.5794C113.308 27.1249 112.987 26.8145 113.009 26.7923C113.075 26.6925 114.45 27.8233 117.089 28.7989C118.397 29.2866 120.026 29.6968 121.867 29.8299C123.707 29.9851 125.724 29.7301 127.842 29.331C129.959 28.943 132.01 28.5328 133.917 28.5439C135.835 28.5439 137.542 28.9984 138.828 29.6525C140.136 30.3066 140.968 31.1934 141.4 31.8697C141.611 32.2133 141.755 32.4905 141.821 32.69C141.877 32.8785 141.91 32.9783 141.888 32.9894Z" fill="white" fill-opacity="0.16"/>
<path d="M140.137 25.2302C140.092 25.2524 139.926 24.8533 139.449 24.2547C138.973 23.6782 138.119 22.9354 136.866 22.4366C135.613 21.9266 133.984 21.7381 132.199 21.9377C130.403 22.1151 128.474 22.6583 126.379 23.0463C124.295 23.4343 122.166 23.5341 120.348 22.9465C118.541 22.3922 117.133 21.3612 116.158 20.3524C115.171 19.3325 114.617 18.3126 114.317 17.592C114.162 17.2261 114.073 16.9379 114.029 16.7384C113.974 16.5388 113.963 16.4279 113.974 16.4279C114.096 16.3614 114.484 18.1463 116.446 20.0642C117.41 21.0065 118.785 21.9488 120.503 22.4366C122.21 22.9576 124.228 22.8578 126.268 22.4698C128.319 22.0929 130.281 21.5497 132.144 21.3945C133.995 21.2171 135.724 21.4499 137.021 22.0485C138.33 22.625 139.183 23.4675 139.627 24.1105C140.07 24.7868 140.159 25.2191 140.137 25.2302Z" fill="#05294A"/>
<path d="M140.137 25.2302C140.092 25.2524 139.926 24.8533 139.449 24.2547C138.973 23.6782 138.119 22.9354 136.866 22.4366C135.613 21.9266 133.984 21.7381 132.199 21.9377C130.403 22.1151 128.474 22.6583 126.379 23.0463C124.295 23.4343 122.166 23.5341 120.348 22.9465C118.541 22.3922 117.133 21.3612 116.158 20.3524C115.171 19.3325 114.617 18.3126 114.317 17.592C114.162 17.2261 114.073 16.9379 114.029 16.7384C113.974 16.5388 113.963 16.4279 113.974 16.4279C114.096 16.3614 114.484 18.1463 116.446 20.0642C117.41 21.0065 118.785 21.9488 120.503 22.4366C122.21 22.9576 124.228 22.8578 126.268 22.4698C128.319 22.0929 130.281 21.5497 132.144 21.3945C133.995 21.2171 135.724 21.4499 137.021 22.0485C138.33 22.625 139.183 23.4675 139.627 24.1105C140.07 24.7868 140.159 25.2191 140.137 25.2302Z" fill="white" fill-opacity="0.16"/>
<path d="M98.5859 136.089C98.5859 136.089 98.6525 136.023 98.7966 135.912C98.9296 135.801 99.1513 135.646 99.4174 135.424C99.9606 134.992 100.737 134.316 101.668 133.374C102.61 132.431 103.686 131.201 104.85 129.682C106.014 128.164 107.266 126.357 108.63 124.339C111.357 120.293 114.55 115.383 117.942 109.707C119.638 106.87 121.39 103.854 123.152 100.662C123.596 99.8639 124.039 99.0547 124.483 98.2344C124.926 97.4141 125.381 96.5717 126.002 95.8179C126.611 95.0641 127.421 94.4323 128.352 94.1108C128.817 93.9446 129.327 93.8448 129.848 93.9446C130.103 94 130.358 94.133 130.558 94.3325C130.757 94.5321 130.857 94.7981 130.935 95.053L130.946 95.1085L130.924 95.1639C130.802 95.4854 130.658 95.8068 130.403 96.0729C130.159 96.3389 129.793 96.5163 129.427 96.5384C128.695 96.5828 128.052 96.2502 127.509 95.8733C126.312 95.1417 125.78 93.4679 126.279 92.0934C126.512 91.395 127.044 90.8075 127.687 90.4861C128.33 90.1535 129.072 90.0427 129.782 90.1979C130.48 90.342 131.201 90.7521 131.489 91.5281C131.633 91.9049 131.545 92.4149 131.245 92.7031C130.957 93.0023 130.613 93.1464 130.248 93.2462C128.973 93.5566 127.598 92.9137 126.999 91.7608C126.7 91.1844 126.633 90.475 126.811 89.8542C126.966 89.2224 127.321 88.6682 127.798 88.2469C128.274 87.8257 128.884 87.5597 129.527 87.5707C130.159 87.5929 130.791 87.87 131.157 88.4354C131.345 88.7125 131.423 89.0783 131.356 89.4108C131.301 89.7545 131.079 90.0649 130.813 90.2422C130.27 90.6191 129.605 90.6745 129.006 90.4639C128.396 90.2311 128.008 89.6769 127.798 89.1226C127.587 88.5573 127.52 87.9476 127.52 87.3712C127.543 86.2184 127.731 85.0212 128.396 84.0347C128.74 83.558 129.183 83.1368 129.782 82.9816C130.369 82.8375 130.968 82.9816 131.456 83.2809C131.933 83.5802 132.365 84.1233 132.298 84.7773C132.254 85.4092 131.733 85.9191 131.19 86.0632C130.647 86.2406 130.026 86.1519 129.56 85.7972C129.106 85.4535 128.84 84.9104 128.74 84.3672C128.629 83.8241 128.729 83.2366 128.873 82.7599C129.017 82.2611 129.172 81.7623 129.427 81.2967C129.66 80.8311 130.026 80.3988 130.48 80.1328C130.924 79.8667 131.412 79.7005 131.91 79.645C132.154 79.6229 132.431 79.6229 132.698 79.7559C132.941 79.8778 133.13 80.0663 133.285 80.2769C133.44 80.4875 133.551 80.7203 133.607 80.9863C133.673 81.2413 133.662 81.5406 133.518 81.7955C133.23 82.3165 132.598 82.4052 132.143 82.3276C131.655 82.2611 131.223 81.9951 130.879 81.6736C130.203 81.0085 129.837 80.0884 129.793 79.1795C129.738 78.2705 129.97 77.3505 130.469 76.63C130.724 76.2752 131.035 75.9538 131.412 75.7432C131.788 75.5326 132.199 75.4217 132.62 75.4106C133.03 75.3995 133.462 75.4882 133.795 75.7653C134.128 76.0314 134.338 76.4637 134.294 76.896C134.194 77.7606 133.44 78.3481 132.698 78.4479C131.91 78.5477 131.234 78.0156 130.879 77.417C130.502 76.8184 130.369 76.109 130.425 75.4439C130.558 74.1137 131.234 73.0717 131.633 72.063C132.077 71.0543 132.476 70.1453 132.842 69.3139C133.573 67.6734 134.139 66.3986 134.527 65.5229C134.715 65.1017 134.87 64.7802 134.97 64.5363C135.07 64.3146 135.136 64.2038 135.136 64.2038C135.136 64.2038 135.103 64.3257 135.003 64.5474C134.904 64.7913 134.771 65.1238 134.593 65.5451C134.216 66.4319 133.673 67.7177 132.975 69.3694C132.62 70.2007 132.221 71.1208 131.8 72.1295C131.4 73.1493 130.746 74.2024 130.636 75.455C130.591 76.0757 130.724 76.7297 131.068 77.284C131.4 77.8271 132.01 78.2816 132.675 78.1929C133.318 78.1153 133.983 77.5611 134.039 76.8627C134.072 76.5191 133.906 76.1755 133.629 75.9649C133.352 75.7432 132.986 75.6656 132.609 75.6767C132.243 75.6877 131.855 75.7875 131.522 75.987C131.19 76.1755 130.913 76.4748 130.68 76.7962C130.225 77.4613 130.004 78.3149 130.07 79.1573C130.114 79.9998 130.458 80.8533 131.079 81.4519C131.389 81.7401 131.755 81.9618 132.188 82.0172C132.598 82.0837 133.063 81.984 133.241 81.6403C133.44 81.3078 133.274 80.82 133.03 80.4764C132.897 80.2991 132.742 80.1439 132.553 80.0552C132.387 79.9665 132.165 79.9665 131.933 79.9776C131.035 80.0774 130.126 80.5651 129.715 81.4519C129.494 81.8842 129.327 82.3609 129.194 82.8486C129.039 83.3474 128.973 83.813 129.072 84.3007C129.161 84.7774 129.394 85.2318 129.771 85.509C130.137 85.7972 130.647 85.8637 131.09 85.7196C131.545 85.5866 131.922 85.2097 131.955 84.733C132.01 84.2675 131.678 83.8351 131.279 83.5691C130.857 83.3141 130.336 83.1922 129.871 83.3142C129.405 83.425 128.984 83.8019 128.695 84.2231C128.108 85.0988 127.908 86.2516 127.897 87.3491C127.897 87.9033 127.953 88.4575 128.152 88.9674C128.341 89.4552 128.684 89.9318 129.15 90.0981C129.616 90.2755 130.203 90.2089 130.613 89.9207C131.046 89.6436 131.134 89.045 130.857 88.6238C130.58 88.2026 130.037 87.9476 129.516 87.9366C128.995 87.9255 128.452 88.1472 128.041 88.513C127.21 89.2335 126.8 90.5526 127.332 91.5502C127.842 92.5479 129.083 93.1243 130.17 92.8471C130.469 92.7696 130.78 92.6255 130.99 92.4148C131.201 92.2042 131.256 91.916 131.157 91.6389C130.946 91.0625 130.336 90.6856 129.726 90.5637C128.485 90.2865 127.044 90.9849 126.645 92.2153C126.212 93.4236 126.667 94.9089 127.742 95.5519C128.252 95.9066 128.851 96.1948 129.427 96.1505C130.015 96.1283 130.414 95.6073 130.602 95.0198V95.1307C130.502 94.6983 130.203 94.3658 129.782 94.2882C129.361 94.2106 128.906 94.2882 128.474 94.4434C127.609 94.7427 126.855 95.3191 126.279 96.0285C125.691 96.738 125.237 97.5693 124.793 98.3785C124.339 99.1988 123.895 100.008 123.452 100.806C121.678 103.999 119.915 107.014 118.208 109.851C114.794 115.516 111.579 120.426 108.818 124.45C107.444 126.468 106.18 128.263 104.994 129.771C103.807 131.278 102.71 132.509 101.757 133.44C99.8387 135.336 98.5859 136.089 98.5859 136.089Z" fill="#05294A"/>
</svg>
