<svg width="20" height="20" viewBox="0 0 20 20" fill="none" xmlns="http://www.w3.org/2000/svg">
<path d="M20.0004 14.92V17.92C20.0016 18.1985 19.9445 18.4741 19.8329 18.7293C19.7214 18.9845 19.5577 19.2136 19.3525 19.4018C19.1473 19.5901 18.905 19.7335 18.6412 19.8227C18.3773 19.9119 18.0978 19.945 17.8204 19.92C14.7433 19.5856 11.7874 18.5341 9.19042 16.85C6.77425 15.3146 4.72576 13.2661 3.19042 10.85C1.5004 8.24118 0.448664 5.27097 0.120421 2.17997C0.0954319 1.90344 0.128296 1.62474 0.216922 1.3616C0.305547 1.09846 0.447992 0.856664 0.635187 0.651596C0.822383 0.446528 1.05023 0.282684 1.30421 0.170497C1.5582 0.0583095 1.83276 0.000236361 2.11042 -2.5118e-05H5.11042C5.59573 -0.00480156 6.06621 0.167053 6.43418 0.483508C6.80215 0.799962 7.0425 1.23942 7.11042 1.71997C7.23704 2.68004 7.47187 3.6227 7.81042 4.52997C7.94496 4.8879 7.97408 5.27689 7.89433 5.65086C7.81457 6.02482 7.62928 6.36809 7.36042 6.63998L6.09042 7.90997C7.51398 10.4135 9.58688 12.4864 12.0904 13.91L13.3604 12.64C13.6323 12.3711 13.9756 12.1858 14.3495 12.1061C14.7235 12.0263 15.1125 12.0554 15.4704 12.19C16.3777 12.5285 17.3204 12.7634 18.2804 12.89C18.7662 12.9585 19.2098 13.2032 19.527 13.5775C19.8441 13.9518 20.0126 14.4296 20.0004 14.92Z" fill="#007AFF"/>
</svg>
