<svg width="24" height="24" viewBox="0 0 24 24" fill="none" xmlns="http://www.w3.org/2000/svg">
<g opacity="0.5">
<path d="M16 7H13.8182C12.8538 7 11.9288 7.39509 11.2469 8.09835C10.5649 8.80161 10.1818 9.75544 10.1818 10.75V13H8V16H10.1818V22H13.0909V16H15.2727L16 13H13.0909V10.75C13.0909 10.5511 13.1675 10.3603 13.3039 10.2197C13.4403 10.079 13.6253 10 13.8182 10H16V7Z" fill="white"/>
<path d="M17 2H7C4.23858 2 2 4.23858 2 7V17C2 19.7614 4.23858 22 7 22H17C19.7614 22 22 19.7614 22 17V7C22 4.23858 19.7614 2 17 2Z" stroke="white" stroke-width="2" stroke-linecap="round" stroke-linejoin="round"/>
</g>
</svg>
