<svg width="24" height="24" viewBox="0 0 24 24" fill="none" xmlns="http://www.w3.org/2000/svg">
<g opacity="0.5">
<path d="M17 2H7C4.23858 2 2 4.23858 2 7V17C2 19.7614 4.23858 22 7 22H17C19.7614 22 22 19.7614 22 17V7C22 4.23858 19.7614 2 17 2Z" stroke="white" stroke-width="2" stroke-linecap="round" stroke-linejoin="round"/>
<path fill-rule="evenodd" clip-rule="evenodd" d="M6.43891 17.3919H8.8534V10.192H6.43891V17.3919ZM6.75836 8.81849C6.99382 9.05254 7.31317 9.18402 7.64616 9.18402C7.82298 9.20395 8.00203 9.18654 8.17161 9.13291C8.34119 9.07929 8.49746 8.99067 8.63019 8.87285C8.76292 8.75504 8.86912 8.61068 8.94183 8.44924C9.01454 8.2878 9.05213 8.11292 9.05213 7.93604C9.05213 7.75916 9.01454 7.58427 8.94183 7.42283C8.86912 7.26139 8.76292 7.11703 8.63019 6.99922C8.49746 6.8814 8.34119 6.79278 8.17161 6.73916C8.00203 6.68554 7.82298 6.66812 7.64616 6.68805C7.31317 6.68805 6.99382 6.81954 6.75836 7.05358C6.5229 7.28762 6.39062 7.60505 6.39062 7.93604C6.39062 8.26702 6.5229 8.58445 6.75836 8.81849ZM15.1472 17.3919H17.5617V13.248C17.5617 11.032 16.3946 10 14.785 10C14.346 9.98389 13.9109 10.0871 13.5266 10.2986C13.1423 10.51 12.8232 10.8217 12.6039 11.2V10.184H10.1894V17.3839H12.6039V13.384C12.5941 13.186 12.6214 12.988 12.6844 12.8C12.7765 12.5461 12.9447 12.3264 13.1663 12.1705C13.388 12.0146 13.6523 11.93 13.9238 11.928C14.8011 11.928 15.1472 12.56 15.1472 13.528V17.3919Z" fill="white"/>
</g>
</svg>
