<svg width="15" height="18" viewBox="0 0 15 18" fill="none" xmlns="http://www.w3.org/2000/svg">
<g opacity="0.5">
<path d="M14 7.54545C14 12.6364 7.5 17 7.5 17C7.5 17 1 12.6364 1 7.54545C1 5.80949 1.68482 4.14463 2.90381 2.91712C4.12279 1.68961 5.77609 1 7.5 1C9.22391 1 10.8772 1.68961 12.0962 2.91712C13.3152 4.14463 14 5.80949 14 7.54545Z" stroke="#05294A" stroke-linecap="round" stroke-linejoin="round"/>
<path d="M7.49992 9.7273C8.69654 9.7273 9.66659 8.75047 9.66659 7.54548C9.66659 6.3405 8.69654 5.36366 7.49992 5.36366C6.3033 5.36366 5.33325 6.3405 5.33325 7.54548C5.33325 8.75047 6.3033 9.7273 7.49992 9.7273Z" stroke="#05294A" stroke-linecap="round" stroke-linejoin="round"/>
</g>
</svg>
